<svg width="100" height="100" viewBox="0 0 150 151" fill="none" xmlns="http://www.w3.org/2000/svg"><path d="M149.58 75.413c0 41.305-33.485 74.79-74.79 74.79-41.306 0-74.79-33.485-74.79-74.79C0 34.108 33.484.623 74.79.623c41.305 0 74.79 33.485 74.79 74.79zm-127.143 0c0 28.914 23.44 52.353 52.353 52.353s52.353-23.439 52.353-52.353S103.703 23.06 74.79 23.06c-28.914 0-52.353 23.44-52.353 52.353z" fill="#fe026c"/><path d="m42.466 132.645 1.12.522a2.571 2.571 0 0 0 .261 1.902c.153.277.352.523.595.739.244.217.519.396.826.539a3.11 3.11 0 0 0 1.718.285c.584-.072 1.138-.321 1.662-.747.522-.427.969-1.041 1.342-1.841.373-.8.556-1.538.548-2.212-.011-.675-.176-1.26-.496-1.753a3.108 3.108 0 0 0-1.323-1.133 3.385 3.385 0 0 0-.943-.287 2.885 2.885 0 0 0-.947.015 2.622 2.622 0 0 0-1.627 1.027l-1.12-.522a4.107 4.107 0 0 1 1.052-1.053 3.8 3.8 0 0 1 1.275-.565 3.994 3.994 0 0 1 1.39-.072c.473.056.942.192 1.408.41.789.367 1.4.887 1.834 1.558.434.671.662 1.444.683 2.318.02.875-.196 1.799-.65 2.774-.455.975-1.024 1.735-1.707 2.281s-1.422.868-2.215.967c-.793.099-1.584-.035-2.373-.403a4.577 4.577 0 0 1-1.218-.815c-.35-.328-.628-.7-.837-1.116a3.756 3.756 0 0 1-.389-1.335 4.063 4.063 0 0 1 .131-1.483zM32.913 129.855l6.138-8.145.938.708-6.137 8.144-.939-.707zM30.226 112.999c.453.521.726 1.086.82 1.695.092.607.01 1.214-.244 1.822-.256.606-.683 1.168-1.28 1.686-.6.523-1.22.87-1.858 1.042-.64.169-1.254.167-1.842-.009-.59-.177-1.112-.527-1.565-1.048-.453-.521-.725-1.085-.817-1.692a3.296 3.296 0 0 1 .248-1.825c.257-.61.686-1.177 1.287-1.699.596-.519 1.213-.862 1.851-1.029a3.317 3.317 0 0 1 1.838.012c.588.176 1.108.524 1.562 1.045zm-.797.692c-.344-.395-.729-.633-1.154-.712a2.386 2.386 0 0 0-1.294.128c-.437.165-.849.415-1.235.751a4.099 4.099 0 0 0-.918 1.121 2.41 2.41 0 0 0-.315 1.27c.017.434.197.849.541 1.245.344.396.73.633 1.158.71.427.077.861.032 1.301-.135.44-.167.853-.418 1.239-.754.386-.335.69-.708.915-1.118.224-.411.326-.832.307-1.264-.02-.432-.201-.846-.545-1.242zM17.048 104l.774.779a1.952 1.952 0 0 0-.307.506 1.424 1.424 0 0 0-.114.655c.01.245.098.517.264.816.227.409.51.698.85.867.336.167.647.171.935.011a.836.836 0 0 0 .45-.614c.046-.268.008-.627-.112-1.076l-.306-1.129c-.187-.678-.212-1.247-.075-1.706.133-.458.434-.816.901-1.075a1.94 1.94 0 0 1 1.212-.239c.422.051.83.223 1.221.519.392.295.731.703 1.02 1.223.378.682.543 1.329.494 1.94-.048.611-.324 1.134-.827 1.569l-.785-.84c.309-.293.482-.618.518-.977.036-.361-.064-.752-.297-1.173-.265-.479-.578-.803-.937-.972-.364-.17-.69-.176-.977-.016a.888.888 0 0 0-.449.567c-.07.251-.05.567.058.947l.357 1.26c.194.693.219 1.268.073 1.724-.15.456-.456.811-.917 1.067-.378.209-.77.288-1.178.237-.41-.054-.8-.219-1.17-.496a3.517 3.517 0 0 1-.948-1.125c-.367-.662-.51-1.263-.428-1.801.08-.541.313-1.024.7-1.448zM19.004 92.177c.216.704.246 1.36.091 1.966a3.276 3.276 0 0 1-.954 1.578c-.482.446-1.098.784-1.847 1.013-.75.229-1.451.294-2.106.196-.66-.1-1.224-.348-1.695-.742-.476-.396-.814-.925-1.016-1.585a3.626 3.626 0 0 1-.155-1.187c.014-.41.117-.811.31-1.203.189-.392.489-.75.9-1.073.412-.323.959-.59 1.641-.798l.476-.146 1.724 5.639-.971.297-1.374-4.496a2.508 2.508 0 0 0-1.03.586c-.274.26-.459.57-.554.93-.096.355-.082.736.042 1.142.137.448.367.801.69 1.06.317.257.679.42 1.085.486.406.067.81.039 1.213-.085l.648-.198c.552-.169.992-.407 1.317-.715.322-.31.53-.667.626-1.071.092-.403.069-.832-.07-1.286a2.545 2.545 0 0 0-.369-.762 1.792 1.792 0 0 0-.571-.507 1.81 1.81 0 0 0-.762-.21l-.027-1.179c.403.002.785.095 1.147.28.359.185.677.452.954.801.273.35.486.773.637 1.269zM6.369 69.766l8.89-1.96.014-.118-8.152-4.051.158-1.285 9.666 4.96-.155 1.265L6.21 71.05l.159-1.285zM19.432 56.764l-7.232-2.49.383-1.111 7.232 2.49-.383 1.111zm-8.243-3.47a.835.835 0 0 1-.414.484.752.752 0 0 1-.611.048.752.752 0 0 1-.453-.414.836.836 0 0 1-.028-.637.818.818 0 0 1 .412-.479.745.745 0 0 1 .613-.052c.207.071.358.21.451.418a.819.819 0 0 1 .03.632zM24.926 45.259c-.328.546-.756.946-1.284 1.198-.53.25-1.12.342-1.768.274-.651-.07-1.324-.314-2.018-.73-.689-.415-1.216-.892-1.58-1.432-.365-.54-.558-1.105-.581-1.692-.023-.587.13-1.156.463-1.708.256-.427.53-.722.82-.884a2.03 2.03 0 0 1 .823-.284c.256-.028.464-.045.622-.05l.052-.086-3.227-1.939.605-1.007 8.742 5.253-.585.973-1.007-.606-.072.12c.075.146.162.342.262.588.098.244.141.536.131.874-.012.337-.145.717-.398 1.138zm-.823-.68c.243-.405.343-.81.3-1.215-.046-.407-.213-.796-.502-1.167-.291-.372-.684-.707-1.18-1.005-.489-.294-.96-.48-1.413-.558-.455-.08-.869-.042-1.241.113-.376.154-.686.436-.933.846-.256.427-.36.848-.312 1.265.047.411.214.8.501 1.167.286.361.66.68 1.121.958.467.28.933.464 1.4.55.466.083.896.05 1.29-.096.393-.151.716-.437.969-.859zM32.48 35.303c-.502.54-1.054.893-1.657 1.062a3.276 3.276 0 0 1-1.844-.038c-.627-.194-1.227-.558-1.8-1.092-.573-.535-.98-1.11-1.223-1.727-.242-.62-.31-1.234-.205-1.839.106-.61.394-1.167.865-1.672.271-.291.588-.534.95-.727a2.924 2.924 0 0 1 1.197-.334c.434-.032.893.05 1.38.244.485.195.99.535 1.511 1.022l.365.34-4.022 4.312-.742-.693 3.206-3.438a2.508 2.508 0 0 0-1.022-.599 1.951 1.951 0 0 0-1.082-.015c-.356.095-.68.297-.97.608-.318.343-.51.718-.573 1.127-.063.404-.023.798.122 1.183s.372.72.68 1.008l.496.462c.422.394.848.655 1.278.784.43.123.843.125 1.24.006.396-.122.755-.357 1.079-.704.21-.226.369-.46.476-.7a1.79 1.79 0 0 0 .153-.749 1.81 1.81 0 0 0-.2-.764l1.008-.613c.2.35.311.727.332 1.133.019.403-.054.812-.218 1.227a3.879 3.879 0 0 1-.78 1.186zM41.586 27.455c-.566.396-1.156.609-1.772.638a3.35 3.35 0 0 1-1.786-.433c-.576-.318-1.09-.8-1.544-1.448-.456-.653-.737-1.305-.841-1.958a3.343 3.343 0 0 1 .2-1.83c.24-.569.641-1.051 1.207-1.447.566-.396 1.155-.608 1.768-.636a3.297 3.297 0 0 1 1.789.437c.58.32 1.099.805 1.556 1.458.453.647.73 1.297.829 1.948.102.65.034 1.259-.204 1.827-.236.566-.636 1.048-1.202 1.444zm-.606-.865c.43-.301.706-.659.83-1.073.123-.415.125-.848.007-1.3a4.06 4.06 0 0 0-.617-1.307 4.102 4.102 0 0 0-1.02-1.03 2.41 2.41 0 0 0-1.23-.447c-.433-.028-.865.108-1.294.409-.43.3-.706.66-.827 1.077a2.41 2.41 0 0 0-.002 1.308c.12.455.327.892.62 1.31.293.42.632.762 1.017 1.027.385.266.793.412 1.224.438.432.026.863-.111 1.292-.412zM107.53 18.179l-1.12-.522a2.582 2.582 0 0 0-.261-1.902 2.779 2.779 0 0 0-.595-.74 3.391 3.391 0 0 0-.826-.538 3.11 3.11 0 0 0-1.718-.285c-.584.072-1.137.321-1.662.747-.522.427-.969 1.041-1.342 1.841-.373.8-.556 1.538-.548 2.212.011.675.176 1.26.496 1.753.322.495.763.873 1.323 1.134.307.143.621.238.943.286.323.047.638.043.947-.015a2.61 2.61 0 0 0 1.627-1.027l1.119.522a4.114 4.114 0 0 1-1.051 1.054c-.397.269-.822.457-1.275.565a4.006 4.006 0 0 1-1.39.071 4.575 4.575 0 0 1-1.408-.41c-.789-.367-1.4-.886-1.834-1.558-.434-.671-.662-1.444-.683-2.318-.02-.874.196-1.799.65-2.774.455-.975 1.024-1.735 1.707-2.28.683-.547 1.422-.87 2.215-.968.794-.1 1.584.035 2.373.403.466.217.872.49 1.218.815.349.328.628.7.837 1.116.211.413.34.858.389 1.335.05.474.006.968-.131 1.483zM117.083 20.97l-6.138 8.146-.938-.707 6.138-8.145.938.707zM119.771 37.825c-.454-.52-.727-1.086-.821-1.695a3.35 3.35 0 0 1 .244-1.822c.257-.606.683-1.168 1.279-1.686.602-.523 1.221-.87 1.859-1.042a3.344 3.344 0 0 1 1.842.009c.59.178 1.112.527 1.565 1.048.453.521.725 1.085.817 1.692a3.297 3.297 0 0 1-.248 1.825c-.257.61-.686 1.177-1.287 1.7-.596.518-1.213.86-1.851 1.028a3.302 3.302 0 0 1-1.838-.012c-.588-.175-1.108-.523-1.561-1.045zm.796-.692c.344.396.729.633 1.154.712.425.08.857.037 1.294-.128a4.07 4.07 0 0 0 1.235-.75 4.09 4.09 0 0 0 .918-1.122c.227-.413.332-.836.315-1.27-.017-.434-.197-.85-.541-1.245-.344-.396-.73-.632-1.158-.71a2.409 2.409 0 0 0-1.301.136c-.44.166-.853.418-1.239.753a4.06 4.06 0 0 0-.915 1.118 2.38 2.38 0 0 0-.307 1.264c.019.432.201.846.545 1.242zM132.948 46.824l-.773-.779c.121-.143.223-.312.306-.505.087-.193.125-.411.114-.656-.01-.245-.098-.517-.264-.816-.227-.41-.51-.698-.85-.866-.336-.167-.647-.171-.935-.012a.839.839 0 0 0-.451.614c-.045.268-.007.627.113 1.077l.307 1.128c.186.678.211 1.247.074 1.706-.133.458-.434.816-.901 1.075a1.944 1.944 0 0 1-1.212.239c-.422-.05-.829-.223-1.221-.519-.391-.295-.731-.703-1.019-1.222-.379-.683-.544-1.33-.495-1.94.048-.612.324-1.135.827-1.57l.785.84c-.309.293-.482.619-.518.977-.036.36.064.752.297 1.173.266.48.578.803.937.972.364.17.69.176.977.017a.89.89 0 0 0 .449-.568c.069-.251.05-.567-.058-.947l-.357-1.26c-.194-.693-.219-1.268-.073-1.724.15-.455.456-.81.917-1.067.378-.21.77-.288 1.178-.237.41.054.799.22 1.169.496.372.28.688.655.949 1.126.367.662.51 1.262.428 1.8a2.684 2.684 0 0 1-.7 1.448zM130.992 58.648c-.216-.705-.246-1.36-.091-1.967.159-.604.477-1.13.955-1.578.481-.446 1.097-.783 1.846-1.013.749-.229 1.451-.294 2.106-.196.659.1 1.224.348 1.696.742.475.397.813.925 1.015 1.585.117.381.168.777.155 1.187-.014.41-.117.812-.309 1.204-.19.39-.49.748-.901 1.072-.412.324-.959.59-1.641.799l-.476.145-1.724-5.638.971-.297 1.375 4.495a2.516 2.516 0 0 0 1.029-.585c.274-.261.459-.571.554-.93.096-.356.082-.737-.042-1.143-.137-.448-.367-.801-.689-1.06a2.293 2.293 0 0 0-1.086-.486 2.633 2.633 0 0 0-1.213.085l-.648.198c-.552.169-.991.407-1.317.715-.322.31-.531.667-.626 1.071-.092.403-.068.832.07 1.286.091.295.213.55.369.762.159.215.35.384.572.508.224.122.478.192.761.21l.028 1.178a2.516 2.516 0 0 1-1.148-.28 2.923 2.923 0 0 1-.953-.801 3.866 3.866 0 0 1-.638-1.268zM143.627 81.058l-8.89 1.96-.014.118 8.152 4.052-.158 1.285-9.666-4.96.155-1.266 10.579-2.474-.158 1.285zM130.564 94.06l7.232 2.49-.383 1.111-7.232-2.49.383-1.111zm8.243 3.47a.835.835 0 0 1 .414-.484.753.753 0 0 1 .612-.048.75.75 0 0 1 .452.414c.094.208.103.42.029.637a.822.822 0 0 1-.413.48.745.745 0 0 1-.613.052.744.744 0 0 1-.451-.42.815.815 0 0 1-.03-.631zM125.07 105.565c.329-.546.756-.945 1.284-1.198.53-.25 1.119-.342 1.768-.274.651.07 1.324.314 2.018.731.689.414 1.216.891 1.58 1.431.365.541.559 1.105.582 1.692.023.587-.132 1.156-.464 1.708-.256.427-.53.722-.821.884-.29.166-.564.261-.822.285a9.784 9.784 0 0 1-.622.05l-.051.085 3.227 1.939-.606 1.007-8.742-5.252.585-.974 1.007.606.072-.12a7.627 7.627 0 0 1-.262-.588 2.167 2.167 0 0 1-.131-.874c.012-.337.145-.716.398-1.138zm.823.681c-.243.404-.342.809-.299 1.214.045.407.213.796.501 1.167.291.373.684.708 1.18 1.005.489.294.96.48 1.413.559.455.08.869.042 1.241-.114.376-.154.687-.436.933-.846.256-.427.36-.848.312-1.264a2.295 2.295 0 0 0-.501-1.167 4.092 4.092 0 0 0-1.121-.958 4.208 4.208 0 0 0-1.4-.551 2.428 2.428 0 0 0-1.29.096c-.393.151-.716.438-.969.859zM117.515 115.523c.503-.539 1.056-.893 1.658-1.062a3.274 3.274 0 0 1 1.844.038c.627.194 1.227.558 1.8 1.093.573.534.981 1.109 1.223 1.726.242.621.311 1.234.205 1.839-.106.609-.394 1.167-.865 1.672a3.608 3.608 0 0 1-.95.727 2.912 2.912 0 0 1-1.197.334c-.434.032-.893-.049-1.379-.244-.486-.194-.99-.535-1.512-1.022l-.364-.339 4.021-4.312.743.692-3.206 3.438c.315.295.656.494 1.021.599.363.107.724.112 1.082.015.356-.095.679-.297.969-.608.319-.342.511-.718.574-1.127a2.298 2.298 0 0 0-.122-1.183 2.638 2.638 0 0 0-.68-1.008l-.496-.462c-.422-.394-.848-.655-1.278-.783a2.156 2.156 0 0 0-1.24-.007c-.395.122-.755.357-1.079.704-.21.226-.369.459-.475.7a1.787 1.787 0 0 0-.154.749c.007.256.073.511.199.765l-1.007.613c-.2-.35-.311-.728-.332-1.134a2.938 2.938 0 0 1 .218-1.227c.166-.412.426-.807.779-1.186zM108.41 123.37c.566-.397 1.156-.609 1.772-.639a3.34 3.34 0 0 1 1.786.433c.576.318 1.09.801 1.544 1.448.457.653.737 1.306.841 1.958a3.336 3.336 0 0 1-.201 1.831c-.238.568-.64 1.05-1.206 1.446-.566.396-1.155.608-1.768.636a3.295 3.295 0 0 1-1.789-.437c-.58-.319-1.099-.805-1.556-1.458-.453-.647-.729-1.296-.829-1.948a3.31 3.31 0 0 1 .204-1.827c.236-.566.637-1.047 1.202-1.443zm.606.864c-.43.301-.706.659-.829 1.073a2.374 2.374 0 0 0-.008 1.301c.118.452.324.887.617 1.306.293.419.633.763 1.02 1.031.386.268.796.417 1.23.446.433.028.865-.108 1.294-.408.43-.301.706-.66.827-1.078a2.41 2.41 0 0 0 .002-1.308 4.111 4.111 0 0 0-.62-1.311 4.05 4.05 0 0 0-1.017-1.026 2.377 2.377 0 0 0-1.224-.438c-.432-.026-.863.111-1.292.412zM71.66 13.412a2 2 0 1 1-4 0 2 2 0 0 1 4 0zM84.66 138.412a2 2 0 1 1-4 0 2 2 0 0 1 4 0z" fill="#fff"/></svg>