<svg width="100" height="101" viewBox="0 0 150 151" fill="none" xmlns="http://www.w3.org/2000/svg"><path d="M149.58 75.413c0 41.305-33.485 74.79-74.79 74.79-41.306 0-74.79-33.485-74.79-74.79C0 34.108 33.484.623 74.79.623c41.305 0 74.79 33.485 74.79 74.79zm-127.143 0c0 28.914 23.44 52.353 52.353 52.353s52.353-23.439 52.353-52.353S103.703 23.06 74.79 23.06c-28.914 0-52.353 23.44-52.353 52.353z" fill="#fe026c"/><path d="m53.052 129.846-1.782 10.422-1.138-.531 1.579-8.429-.09-.042-5.479 6.611-1.263-.589 1.542-8.446-.09-.042-5.442 6.627-1.137-.53 6.837-8.065 1.156.539-1.395 8.317.072.033 5.475-6.414 1.155.539zM40.129 122.295c.387.292.683.63.889 1.013.203.387.293.789.269 1.207-.026.421-.19.83-.49 1.228-.263.35-.545.582-.847.695-.304.116-.618.15-.943.101a3.697 3.697 0 0 1-.973-.297c-.329-.149-.65-.311-.961-.488a54.07 54.07 0 0 1-.984-.572c-.253-.15-.456-.234-.608-.253-.154-.021-.289.044-.402.195l-.024.032c-.296.393-.419.778-.368 1.158.049.377.289.728.721 1.054.448.338.873.504 1.276.5.402-.004.739-.079 1.01-.224l.651.99c-.438.251-.868.38-1.29.387a2.974 2.974 0 0 1-1.204-.222 4.541 4.541 0 0 1-1.034-.58 4.637 4.637 0 0 1-.623-.581c-.223-.239-.4-.52-.53-.843-.134-.325-.171-.691-.113-1.1.06-.409.271-.856.637-1.341l3.033-4.025.938.707-.623.827.048.036c.163-.084.376-.146.639-.186a2.3 2.3 0 0 1 .883.061c.326.08.667.254 1.023.521zm-.779.736c-.371-.28-.739-.443-1.103-.489a1.872 1.872 0 0 0-1.007.127 1.808 1.808 0 0 0-.747.578l-.647.859c.076-.017.196.005.361.067.16.063.34.145.536.248a23.422 23.422 0 0 1 .99.558c.267.152.534.272.8.36.261.089.51.112.746.07.231-.042.436-.182.616-.421.246-.326.311-.664.196-1.012-.12-.349-.367-.664-.741-.945zM23.447 117.099l.751-.653 2.6 2.991-.75.654-2.601-2.992zm.46 3.322-.772-.887 5.502-4.783c.25-.218.407-.417.47-.599a.747.747 0 0 0-.001-.501 1.529 1.529 0 0 0-.263-.425 2.16 2.16 0 0 0-.224-.227l-.161-.124.64-.873c.075.04.17.105.286.193.119.086.25.211.394.377.218.25.377.543.479.877.099.332.107.672.024 1.022-.086.347-.296.666-.632.958l-5.743 4.992zM23.627 103.289c.347.627.499 1.249.454 1.867a3.308 3.308 0 0 1-.645 1.723c-.384.532-.91.983-1.578 1.354-.68.376-1.349.584-2.007.622a3.381 3.381 0 0 1-1.808-.376c-.547-.288-.988-.735-1.323-1.339a3.425 3.425 0 0 1-.444-1.416 2.788 2.788 0 0 1 .218-1.334c.18-.414.463-.767.849-1.057l.57 1.028c-.262.248-.435.572-.52.972-.091.399-.01.825.24 1.278.223.401.522.694.899.88.371.185.793.257 1.264.216.466-.042.952-.203 1.457-.483.517-.287.922-.617 1.215-.992.291-.378.46-.776.506-1.192a2.06 2.06 0 0 0-.27-1.239 2.097 2.097 0 0 0-.543-.65 1.713 1.713 0 0 0-.708-.331 1.752 1.752 0 0 0-.805.025l-.57-1.028a2.72 2.72 0 0 1 2.555.326c.389.271.72.652.994 1.146zM15.068 95.572l4.4-1.346.344 1.124-9.753 2.982-.344-1.124 3.581-1.095-.029-.095a2.161 2.161 0 0 1-1.136-.496c-.331-.277-.585-.703-.76-1.278-.153-.498-.186-.966-.1-1.401a2.11 2.11 0 0 1 .643-1.15c.342-.334.827-.597 1.456-.789l4.648-1.42.343 1.123-4.571 1.398c-.581.177-.984.466-1.21.864-.23.397-.263.86-.1 1.39.112.368.29.675.536.92.243.24.54.4.89.477.35.074.736.046 1.162-.084zM6.373 69.768l8.89-1.96.014-.118-8.152-4.051.158-1.285 9.666 4.96-.155 1.265-10.58 2.474.159-1.285zM19.436 56.767l-7.232-2.49.383-1.112 7.232 2.49-.383 1.111zm-8.243-3.47a.835.835 0 0 1-.414.483.752.752 0 0 1-.612.048.752.752 0 0 1-.452-.414.836.836 0 0 1-.029-.637.818.818 0 0 1 .413-.48.745.745 0 0 1 .613-.051c.207.071.358.21.451.418a.82.82 0 0 1 .03.632zM24.93 45.26c-.329.547-.756.947-1.284 1.199-.53.25-1.12.342-1.768.274-.651-.07-1.324-.314-2.018-.73-.689-.415-1.216-.892-1.58-1.432-.365-.54-.559-1.105-.582-1.692-.023-.587.132-1.156.463-1.708.257-.427.53-.722.822-.884.29-.166.564-.261.822-.284.256-.028.464-.045.622-.05l.052-.086-3.227-1.939.605-1.007 8.742 5.253-.585.973-1.008-.605-.071.119c.075.146.162.342.262.588.098.244.141.536.131.874-.012.337-.145.717-.398 1.138zm-.823-.68c.243-.404.343-.808.3-1.214-.046-.407-.213-.796-.502-1.167-.291-.372-.684-.707-1.18-1.005-.489-.294-.96-.48-1.413-.559-.455-.08-.869-.042-1.242.114-.375.154-.686.436-.932.846-.256.427-.36.848-.312 1.264.047.412.214.801.501 1.167.286.362.66.681 1.12.958.468.281.934.465 1.401.551.466.083.896.05 1.29-.096.393-.151.716-.438.969-.859zM32.485 35.303c-.503.54-1.055.893-1.658 1.062a3.276 3.276 0 0 1-1.844-.038c-.627-.194-1.227-.558-1.8-1.092-.573-.535-.98-1.11-1.223-1.727-.242-.62-.31-1.234-.205-1.839.105-.61.394-1.167.865-1.672.271-.291.588-.534.95-.727a2.924 2.924 0 0 1 1.197-.334c.434-.032.893.05 1.38.244.485.195.99.535 1.511 1.022l.364.34-4.02 4.312-.744-.693 3.206-3.438a2.508 2.508 0 0 0-1.021-.599 1.952 1.952 0 0 0-1.082-.015c-.356.095-.68.297-.97.608-.318.343-.51.718-.573 1.127-.063.404-.023.798.122 1.183s.372.72.68 1.008l.496.462c.422.394.848.655 1.278.784.43.123.843.125 1.24.006.395-.122.755-.357 1.079-.704.21-.226.369-.46.475-.7a1.79 1.79 0 0 0 .154-.749 1.81 1.81 0 0 0-.2-.764l1.008-.613c.2.35.31.727.332 1.133.019.403-.054.812-.218 1.227a3.879 3.879 0 0 1-.78 1.186zM41.59 27.457c-.566.396-1.157.609-1.772.638a3.35 3.35 0 0 1-1.786-.433c-.576-.318-1.09-.8-1.544-1.448-.457-.653-.737-1.305-.841-1.958a3.343 3.343 0 0 1 .2-1.83c.24-.569.641-1.051 1.207-1.447.566-.396 1.155-.608 1.768-.636a3.297 3.297 0 0 1 1.789.437c.58.32 1.099.805 1.556 1.458.453.647.73 1.297.829 1.948.102.65.034 1.259-.204 1.827-.236.566-.637 1.047-1.202 1.444zm-.606-.865c.43-.301.706-.659.83-1.073.123-.415.125-.848.007-1.3a4.06 4.06 0 0 0-.617-1.307 4.102 4.102 0 0 0-1.02-1.03 2.408 2.408 0 0 0-1.23-.447c-.433-.028-.865.108-1.294.409-.43.3-.706.66-.827 1.077a2.41 2.41 0 0 0-.002 1.308c.12.455.327.892.62 1.31.293.42.632.762 1.017 1.027.384.266.793.412 1.224.438.432.026.862-.111 1.292-.412zM96.952 20.98l1.782-10.421 1.138.53-1.579 8.429.09.042 5.478-6.61 1.264.589-1.543 8.445.091.042 5.442-6.627 1.137.53-6.837 8.065-1.156-.539 1.395-8.317-.072-.033-5.475 6.414-1.155-.539zM109.875 28.53a3.113 3.113 0 0 1-.889-1.012 2.272 2.272 0 0 1-.269-1.207c.026-.42.189-.83.489-1.228.264-.35.546-.581.848-.695a1.83 1.83 0 0 1 .943-.1c.324.049.649.148.973.296.329.149.649.311.961.488.407.232.735.423.984.573.253.149.456.233.608.252.154.021.288-.044.402-.195l.024-.032c.296-.393.418-.778.367-1.158-.048-.377-.288-.728-.72-1.054-.448-.338-.874-.504-1.276-.5-.402.005-.739.08-1.01.224l-.651-.99c.438-.25.868-.38 1.289-.387a2.99 2.99 0 0 1 1.205.222c.382.155.727.348 1.034.58.197.148.404.341.622.58.224.24.401.52.531.844.134.325.171.692.112 1.1-.058.41-.27.856-.636 1.342l-3.033 4.024-.938-.707.623-.827-.048-.036a2.057 2.057 0 0 1-.639.186c-.262.039-.556.019-.883-.061-.326-.08-.667-.253-1.023-.521zm.779-.735c.371.28.739.443 1.103.489a1.868 1.868 0 0 0 1.754-.705l.647-.86c-.076.019-.196-.004-.361-.066a5.393 5.393 0 0 1-.536-.248 26.75 26.75 0 0 1-.989-.558 4.499 4.499 0 0 0-.801-.36 1.478 1.478 0 0 0-.746-.07c-.231.042-.437.183-.616.421-.246.326-.311.664-.196 1.013.12.348.367.663.741.945zM126.557 33.727l-.751.654-2.601-2.992.752-.654 2.6 2.992zm-.459-3.322.771.887-5.502 4.783c-.251.218-.407.417-.469.6a.742.742 0 0 0 0 .5c.062.153.15.294.263.425.085.097.16.173.224.227l.161.124-.64.873a2.375 2.375 0 0 1-.286-.193 2.46 2.46 0 0 1-.394-.377 2.373 2.373 0 0 1-.479-.877 1.943 1.943 0 0 1-.024-1.022c.086-.346.296-.666.632-.958l5.743-4.992zM126.377 47.537c-.347-.627-.499-1.25-.454-1.866.045-.617.26-1.192.645-1.724.384-.532.911-.983 1.578-1.353.68-.377 1.349-.584 2.007-.623a3.386 3.386 0 0 1 1.808.376c.547.288.988.735 1.323 1.339.261.47.409.942.444 1.416.035.475-.038.919-.218 1.334a2.61 2.61 0 0 1-.849 1.057l-.57-1.028c.262-.248.435-.571.521-.972.09-.399.009-.825-.242-1.278a2.062 2.062 0 0 0-.898-.88c-.372-.185-.793-.257-1.264-.216-.466.042-.952.203-1.457.483-.517.287-.922.617-1.215.992-.292.378-.46.776-.507 1.192-.044.42.046.833.272 1.24.148.266.328.483.542.65.214.166.449.276.707.33.258.055.527.046.806-.025l.57 1.028a2.72 2.72 0 0 1-2.555-.326c-.389-.27-.72-.652-.994-1.146zM134.936 55.255l-4.4 1.345-.344-1.124 9.753-2.982.344 1.124-3.581 1.095.029.095c.43.056.809.221 1.136.496.331.278.584.703.76 1.278.153.499.186.966.1 1.401a2.105 2.105 0 0 1-.643 1.15c-.342.334-.827.597-1.456.789l-4.648 1.421-.344-1.124 4.572-1.398c.581-.177.984-.465 1.21-.864.229-.397.263-.86.101-1.39a2.174 2.174 0 0 0-.537-.92c-.244-.24-.54-.4-.89-.477-.349-.074-.736-.046-1.162.084zM143.631 81.06l-8.89 1.96-.014.118 8.152 4.051-.158 1.286-9.666-4.96.155-1.266 10.579-2.474-.158 1.285zM130.568 94.062l7.232 2.49-.383 1.111-7.232-2.49.383-1.111zm8.243 3.47a.832.832 0 0 1 .414-.484.75.75 0 0 1 .611-.048c.208.072.359.21.453.414.094.208.103.42.028.637a.817.817 0 0 1-.412.48.745.745 0 0 1-.613.051.744.744 0 0 1-.451-.418.815.815 0 0 1-.03-.632zM125.07 105.567c.329-.546.756-.945 1.284-1.198.53-.251 1.119-.342 1.768-.274.651.07 1.324.314 2.018.731.689.414 1.216.891 1.58 1.431.365.541.559 1.105.582 1.692.023.587-.132 1.156-.464 1.708-.256.427-.53.722-.821.884-.29.166-.564.261-.822.285a9.784 9.784 0 0 1-.622.05l-.051.085 3.227 1.939-.606 1.007-8.742-5.252.585-.974 1.007.606.072-.12a7.627 7.627 0 0 1-.262-.588 2.167 2.167 0 0 1-.131-.874c.012-.337.145-.716.398-1.138zm.823.681c-.243.404-.342.809-.299 1.214.045.407.213.796.501 1.167.291.372.684.708 1.18 1.005.489.294.96.48 1.413.559.455.08.869.042 1.241-.114.376-.154.687-.436.933-.846.256-.427.36-.848.312-1.264a2.295 2.295 0 0 0-.501-1.167 4.092 4.092 0 0 0-1.121-.958 4.208 4.208 0 0 0-1.4-.551 2.428 2.428 0 0 0-1.29.096c-.393.151-.716.438-.969.859zM117.519 115.525c.503-.539 1.055-.893 1.658-1.062a3.274 3.274 0 0 1 1.844.038c.627.194 1.227.558 1.8 1.093.573.534.98 1.109 1.223 1.726.242.621.311 1.234.205 1.839-.106.609-.394 1.167-.865 1.672a3.608 3.608 0 0 1-.95.727 2.912 2.912 0 0 1-1.197.334c-.434.032-.893-.049-1.379-.244-.486-.194-.99-.535-1.512-1.022l-.365-.339 4.022-4.313.743.693-3.206 3.438c.315.295.656.494 1.021.599.363.107.724.112 1.082.015.356-.095.679-.297.969-.608.319-.343.511-.718.574-1.127a2.298 2.298 0 0 0-.123-1.183 2.608 2.608 0 0 0-.68-1.008l-.495-.462c-.422-.394-.848-.655-1.278-.784a2.164 2.164 0 0 0-1.24-.006c-.395.122-.755.357-1.079.704-.21.226-.369.459-.476.7a1.801 1.801 0 0 0-.153.749c.006.256.073.511.199.765l-1.007.613c-.2-.35-.311-.728-.332-1.134a2.938 2.938 0 0 1 .218-1.227c.166-.412.426-.807.779-1.186zM108.414 123.372c.566-.397 1.156-.609 1.772-.639a3.34 3.34 0 0 1 1.786.433c.576.318 1.09.801 1.543 1.448.457.653.738 1.306.842 1.958a3.336 3.336 0 0 1-.201 1.831c-.238.568-.64 1.05-1.206 1.446-.566.396-1.155.608-1.768.636a3.295 3.295 0 0 1-1.789-.437c-.58-.319-1.099-.805-1.556-1.458-.453-.647-.729-1.296-.829-1.948a3.31 3.31 0 0 1 .204-1.827c.236-.566.636-1.047 1.202-1.443zm.606.864c-.43.301-.706.659-.83 1.073a2.383 2.383 0 0 0-.007 1.301c.118.452.324.887.617 1.306.293.419.633.763 1.02 1.031.386.268.796.417 1.23.446.433.028.865-.108 1.294-.408.43-.301.706-.66.827-1.078a2.41 2.41 0 0 0 .002-1.308 4.111 4.111 0 0 0-.62-1.311 4.05 4.05 0 0 0-1.017-1.026 2.377 2.377 0 0 0-1.224-.438c-.432-.026-.863.111-1.292.412zM71.664 13.414a2 2 0 1 1-4 0 2 2 0 0 1 4 0zM84.664 138.414a2 2 0 1 1-4 0 2 2 0 0 1 4 0z" fill="#fff"/></svg>