<svg xmlns="http://www.w3.org/2000/svg" width="60" height="60" fill="none"><g filter="url(#b)" clip-path="url(#a)"><mask id="e" fill="#fff"><path d="M.01 12.496a1.607 1.607 0 0 1 1.598-1.782h6.965a1.071 1.071 0 0 0 0-2.143H3.75A1.607 1.607 0 0 1 2.15 6.793c.137-.854.89-1.47 1.755-1.436h6.81a1.071 1.071 0 0 0 0-2.143h-4.82a1.607 1.607 0 0 1-1.603-1.778A1.707 1.707 0 0 1 6.047 0h15.867c.195.001.387.056.553.159L26.8 2.754a3.237 3.237 0 0 0 1.65.46h10.123v9.524l-1.856-1.52a3.561 3.561 0 0 0-4.619.255A3.374 3.374 0 0 0 31.26 15h-3.592a3.214 3.214 0 0 0-2.25.932l-10.084 10-.021.022-.446.442c-.522.51-1.36.505-1.875-.013a1.324 1.324 0 0 1-.107-1.748l2.947-3.6a1.071 1.071 0 0 0-.83-1.75H2.833a1.707 1.707 0 0 1-1.752-1.434 1.607 1.607 0 0 1 1.599-1.78h5.893a1.071 1.071 0 1 0 0-2.143H1.762A1.708 1.708 0 0 1 .01 12.496zM17.843 58.92a1.588 1.588 0 0 1-1.238-.403 1.622 1.622 0 0 1-.532-1.196v-5.893a1.071 1.071 0 0 0-2.143 0V58.242a1.714 1.714 0 0 1-1.448 1.752c-.45.049-.9-.098-1.234-.403a1.62 1.62 0 0 1-.532-1.198v-6.965a1.071 1.071 0 0 0-2.143 0v4.835a1.607 1.607 0 0 1-1.779 1.588 1.707 1.707 0 0 1-1.436-1.754v-6.811a1.071 1.071 0 0 0-2.142 0V54.117a1.607 1.607 0 0 1-1.778 1.59 1.708 1.708 0 0 1-1.437-1.752V38.088c.002-.193.052-.382.147-.55l2.607-4.335a3.247 3.247 0 0 0 .46-1.65V21.428h9.524l-1.52 1.857A3.452 3.452 0 0 0 15 28.745v3.59c.004.844.339 1.652.933 2.25l9.992 10.072a.597.597 0 0 0 .036.037l.436.439a1.329 1.329 0 0 1-.95 2.26 1.286 1.286 0 0 1-.804-.278l-3.599-2.945a1.072 1.072 0 0 0-1.758.83v12.168c.03.865-.59 1.616-1.444 1.752zm42.15-11.416a1.607 1.607 0 0 1-1.599 1.782H51.43a1.071 1.071 0 0 0 0 2.142h4.821a1.607 1.607 0 0 1 1.602 1.78 1.708 1.708 0 0 1-1.755 1.435h-6.811a1.071 1.071 0 0 0 0 2.143h4.822a1.607 1.607 0 0 1 1.601 1.778A1.707 1.707 0 0 1 53.955 60H38.09a1.071 1.071 0 0 1-.553-.159l-4.333-2.595a3.236 3.236 0 0 0-1.65-.46H21.43V47.26l1.856 1.519a3.552 3.552 0 0 0 4.618-.254A3.374 3.374 0 0 0 28.747 45h3.589a3.214 3.214 0 0 0 2.25-.932l10.08-9.997.038-.036.435-.429a1.332 1.332 0 0 1 1.875.013c.471.473.517 1.221.108 1.748l-2.947 3.6a1.071 1.071 0 0 0 .826 1.747H57.17a1.707 1.707 0 0 1 1.751 1.435 1.607 1.607 0 0 1-1.598 1.78H51.43a1.071 1.071 0 0 0 0 2.142h6.814c.86-.031 1.61.583 1.749 1.433zM60 21.912a1.08 1.08 0 0 1-.157.553l-2.596 4.332a3.237 3.237 0 0 0-.461 1.65V38.57h-9.526l1.52-1.856a3.466 3.466 0 0 0-.256-4.617 3.527 3.527 0 0 0-3.524-.812v-3.622a3.214 3.214 0 0 0-.932-2.25l-9.996-10.086-.02-.02-.443-.446a1.308 1.308 0 0 1 .013-1.874 1.359 1.359 0 0 1 1.748-.107l3.6 2.945A1.072 1.072 0 0 0 40.715 15V2.832A1.708 1.708 0 0 1 42.15 1.08a1.607 1.607 0 0 1 1.779 1.599V8.57a1.071 1.071 0 0 0 2.143 0v-6.81A1.707 1.707 0 0 1 47.508.008a1.607 1.607 0 0 1 1.779 1.598v6.964a1.071 1.071 0 0 0 2.143 0V3.75a1.607 1.607 0 0 1 1.779-1.6c.853.136 1.47.89 1.435 1.753v6.811a1.071 1.071 0 0 0 2.143 0V5.893a1.608 1.608 0 0 1 1.779-1.6c.853.136 1.469.889 1.435 1.752v15.867z"/></mask><path d="M.01 12.496a1.607 1.607 0 0 1 1.598-1.782h6.965a1.071 1.071 0 0 0 0-2.143H3.75A1.607 1.607 0 0 1 2.15 6.793c.137-.854.89-1.47 1.755-1.436h6.81a1.071 1.071 0 0 0 0-2.143h-4.82a1.607 1.607 0 0 1-1.603-1.778A1.707 1.707 0 0 1 6.047 0h15.867c.195.001.387.056.553.159L26.8 2.754a3.237 3.237 0 0 0 1.65.46h10.123v9.524l-1.856-1.52a3.561 3.561 0 0 0-4.619.255A3.374 3.374 0 0 0 31.26 15h-3.592a3.214 3.214 0 0 0-2.25.932l-10.084 10-.021.022-.446.442c-.522.51-1.36.505-1.875-.013a1.324 1.324 0 0 1-.107-1.748l2.947-3.6a1.071 1.071 0 0 0-.83-1.75H2.833a1.707 1.707 0 0 1-1.752-1.434 1.607 1.607 0 0 1 1.599-1.78h5.893a1.071 1.071 0 1 0 0-2.143H1.762A1.708 1.708 0 0 1 .01 12.496zM17.843 58.92a1.588 1.588 0 0 1-1.238-.403 1.622 1.622 0 0 1-.532-1.196v-5.893a1.071 1.071 0 0 0-2.143 0V58.242a1.714 1.714 0 0 1-1.448 1.752c-.45.049-.9-.098-1.234-.403a1.62 1.62 0 0 1-.532-1.198v-6.965a1.071 1.071 0 0 0-2.143 0v4.835a1.607 1.607 0 0 1-1.779 1.588 1.707 1.707 0 0 1-1.436-1.754v-6.811a1.071 1.071 0 0 0-2.142 0V54.117a1.607 1.607 0 0 1-1.778 1.59 1.708 1.708 0 0 1-1.437-1.752V38.088c.002-.193.052-.382.147-.55l2.607-4.335a3.247 3.247 0 0 0 .46-1.65V21.428h9.524l-1.52 1.857A3.452 3.452 0 0 0 15 28.745v3.59c.004.844.339 1.652.933 2.25l9.992 10.072a.597.597 0 0 0 .036.037l.436.439a1.329 1.329 0 0 1-.95 2.26 1.286 1.286 0 0 1-.804-.278l-3.599-2.945a1.072 1.072 0 0 0-1.758.83v12.168c.03.865-.59 1.616-1.444 1.752zm42.15-11.416a1.607 1.607 0 0 1-1.599 1.782H51.43a1.071 1.071 0 0 0 0 2.142h4.821a1.607 1.607 0 0 1 1.602 1.78 1.708 1.708 0 0 1-1.755 1.435h-6.811a1.071 1.071 0 0 0 0 2.143h4.822a1.607 1.607 0 0 1 1.601 1.778A1.707 1.707 0 0 1 53.955 60H38.09a1.071 1.071 0 0 1-.553-.159l-4.333-2.595a3.236 3.236 0 0 0-1.65-.46H21.43V47.26l1.856 1.519a3.552 3.552 0 0 0 4.618-.254A3.374 3.374 0 0 0 28.747 45h3.589a3.214 3.214 0 0 0 2.25-.932l10.08-9.997.038-.036.435-.429a1.332 1.332 0 0 1 1.875.013c.471.473.517 1.221.108 1.748l-2.947 3.6a1.071 1.071 0 0 0 .826 1.747H57.17a1.707 1.707 0 0 1 1.751 1.435 1.607 1.607 0 0 1-1.598 1.78H51.43a1.071 1.071 0 0 0 0 2.142h6.814c.86-.031 1.61.583 1.749 1.433zM60 21.912a1.08 1.08 0 0 1-.157.553l-2.596 4.332a3.237 3.237 0 0 0-.461 1.65V38.57h-9.526l1.52-1.856a3.466 3.466 0 0 0-.256-4.617 3.527 3.527 0 0 0-3.524-.812v-3.622a3.214 3.214 0 0 0-.932-2.25l-9.996-10.086-.02-.02-.443-.446a1.308 1.308 0 0 1 .013-1.874 1.359 1.359 0 0 1 1.748-.107l3.6 2.945A1.072 1.072 0 0 0 40.715 15V2.832A1.708 1.708 0 0 1 42.15 1.08a1.607 1.607 0 0 1 1.779 1.599V8.57a1.071 1.071 0 0 0 2.143 0v-6.81A1.707 1.707 0 0 1 47.508.008a1.607 1.607 0 0 1 1.779 1.598v6.964a1.071 1.071 0 0 0 2.143 0V3.75a1.607 1.607 0 0 1 1.779-1.6c.853.136 1.47.89 1.435 1.753v6.811a1.071 1.071 0 0 0 2.143 0V5.893a1.608 1.608 0 0 1 1.779-1.6c.853.136 1.469.889 1.435 1.752v15.867z" fill="url(#c)" fill-opacity=".8" shape-rendering="crispEdges"/><path d="M.01 12.496a1.607 1.607 0 0 1 1.598-1.782h6.965a1.071 1.071 0 0 0 0-2.143H3.75A1.607 1.607 0 0 1 2.15 6.793c.137-.854.89-1.47 1.755-1.436h6.81a1.071 1.071 0 0 0 0-2.143h-4.82a1.607 1.607 0 0 1-1.603-1.778A1.707 1.707 0 0 1 6.047 0h15.867c.195.001.387.056.553.159L26.8 2.754a3.237 3.237 0 0 0 1.65.46h10.123v9.524l-1.856-1.52a3.561 3.561 0 0 0-4.619.255A3.374 3.374 0 0 0 31.26 15h-3.592a3.214 3.214 0 0 0-2.25.932l-10.084 10-.021.022-.446.442c-.522.51-1.36.505-1.875-.013a1.324 1.324 0 0 1-.107-1.748l2.947-3.6a1.071 1.071 0 0 0-.83-1.75H2.833a1.707 1.707 0 0 1-1.752-1.434 1.607 1.607 0 0 1 1.599-1.78h5.893a1.071 1.071 0 1 0 0-2.143H1.762A1.708 1.708 0 0 1 .01 12.496zM17.843 58.92a1.588 1.588 0 0 1-1.238-.403 1.622 1.622 0 0 1-.532-1.196v-5.893a1.071 1.071 0 0 0-2.143 0V58.242a1.714 1.714 0 0 1-1.448 1.752c-.45.049-.9-.098-1.234-.403a1.62 1.62 0 0 1-.532-1.198v-6.965a1.071 1.071 0 0 0-2.143 0v4.835a1.607 1.607 0 0 1-1.779 1.588 1.707 1.707 0 0 1-1.436-1.754v-6.811a1.071 1.071 0 0 0-2.142 0V54.117a1.607 1.607 0 0 1-1.778 1.59 1.708 1.708 0 0 1-1.437-1.752V38.088c.002-.193.052-.382.147-.55l2.607-4.335a3.247 3.247 0 0 0 .46-1.65V21.428h9.524l-1.52 1.857A3.452 3.452 0 0 0 15 28.745v3.59c.004.844.339 1.652.933 2.25l9.992 10.072a.597.597 0 0 0 .036.037l.436.439a1.329 1.329 0 0 1-.95 2.26 1.286 1.286 0 0 1-.804-.278l-3.599-2.945a1.072 1.072 0 0 0-1.758.83v12.168c.03.865-.59 1.616-1.444 1.752zm42.15-11.416a1.607 1.607 0 0 1-1.599 1.782H51.43a1.071 1.071 0 0 0 0 2.142h4.821a1.607 1.607 0 0 1 1.602 1.78 1.708 1.708 0 0 1-1.755 1.435h-6.811a1.071 1.071 0 0 0 0 2.143h4.822a1.607 1.607 0 0 1 1.601 1.778A1.707 1.707 0 0 1 53.955 60H38.09a1.071 1.071 0 0 1-.553-.159l-4.333-2.595a3.236 3.236 0 0 0-1.65-.46H21.43V47.26l1.856 1.519a3.552 3.552 0 0 0 4.618-.254A3.374 3.374 0 0 0 28.747 45h3.589a3.214 3.214 0 0 0 2.25-.932l10.08-9.997.038-.036.435-.429a1.332 1.332 0 0 1 1.875.013c.471.473.517 1.221.108 1.748l-2.947 3.6a1.071 1.071 0 0 0 .826 1.747H57.17a1.707 1.707 0 0 1 1.751 1.435 1.607 1.607 0 0 1-1.598 1.78H51.43a1.071 1.071 0 0 0 0 2.142h6.814c.86-.031 1.61.583 1.749 1.433zM60 21.912a1.08 1.08 0 0 1-.157.553l-2.596 4.332a3.237 3.237 0 0 0-.461 1.65V38.57h-9.526l1.52-1.856a3.466 3.466 0 0 0-.256-4.617 3.527 3.527 0 0 0-3.524-.812v-3.622a3.214 3.214 0 0 0-.932-2.25l-9.996-10.086-.02-.02-.443-.446a1.308 1.308 0 0 1 .013-1.874 1.359 1.359 0 0 1 1.748-.107l3.6 2.945A1.072 1.072 0 0 0 40.715 15V2.832A1.708 1.708 0 0 1 42.15 1.08a1.607 1.607 0 0 1 1.779 1.599V8.57a1.071 1.071 0 0 0 2.143 0v-6.81A1.707 1.707 0 0 1 47.508.008a1.607 1.607 0 0 1 1.779 1.598v6.964a1.071 1.071 0 0 0 2.143 0V3.75a1.607 1.607 0 0 1 1.779-1.6c.853.136 1.47.89 1.435 1.753v6.811a1.071 1.071 0 0 0 2.143 0V5.893a1.608 1.608 0 0 1 1.779-1.6c.853.136 1.469.889 1.435 1.752v15.867z" fill="#344254" fill-opacity=".15" shape-rendering="crispEdges"/><path d="M.01 12.496a1.607 1.607 0 0 1 1.598-1.782h6.965a1.071 1.071 0 0 0 0-2.143H3.75A1.607 1.607 0 0 1 2.15 6.793c.137-.854.89-1.47 1.755-1.436h6.81a1.071 1.071 0 0 0 0-2.143h-4.82a1.607 1.607 0 0 1-1.603-1.778A1.707 1.707 0 0 1 6.047 0h15.867c.195.001.387.056.553.159L26.8 2.754a3.237 3.237 0 0 0 1.65.46h10.123v9.524l-1.856-1.52a3.561 3.561 0 0 0-4.619.255A3.374 3.374 0 0 0 31.26 15h-3.592a3.214 3.214 0 0 0-2.25.932l-10.084 10-.021.022-.446.442c-.522.51-1.36.505-1.875-.013a1.324 1.324 0 0 1-.107-1.748l2.947-3.6a1.071 1.071 0 0 0-.83-1.75H2.833a1.707 1.707 0 0 1-1.752-1.434 1.607 1.607 0 0 1 1.599-1.78h5.893a1.071 1.071 0 1 0 0-2.143H1.762A1.708 1.708 0 0 1 .01 12.496zM17.843 58.92a1.588 1.588 0 0 1-1.238-.403 1.622 1.622 0 0 1-.532-1.196v-5.893a1.071 1.071 0 0 0-2.143 0V58.242a1.714 1.714 0 0 1-1.448 1.752c-.45.049-.9-.098-1.234-.403a1.62 1.62 0 0 1-.532-1.198v-6.965a1.071 1.071 0 0 0-2.143 0v4.835a1.607 1.607 0 0 1-1.779 1.588 1.707 1.707 0 0 1-1.436-1.754v-6.811a1.071 1.071 0 0 0-2.142 0V54.117a1.607 1.607 0 0 1-1.778 1.59 1.708 1.708 0 0 1-1.437-1.752V38.088c.002-.193.052-.382.147-.55l2.607-4.335a3.247 3.247 0 0 0 .46-1.65V21.428h9.524l-1.52 1.857A3.452 3.452 0 0 0 15 28.745v3.59c.004.844.339 1.652.933 2.25l9.992 10.072a.597.597 0 0 0 .036.037l.436.439a1.329 1.329 0 0 1-.95 2.26 1.286 1.286 0 0 1-.804-.278l-3.599-2.945a1.072 1.072 0 0 0-1.758.83v12.168c.03.865-.59 1.616-1.444 1.752zm42.15-11.416a1.607 1.607 0 0 1-1.599 1.782H51.43a1.071 1.071 0 0 0 0 2.142h4.821a1.607 1.607 0 0 1 1.602 1.78 1.708 1.708 0 0 1-1.755 1.435h-6.811a1.071 1.071 0 0 0 0 2.143h4.822a1.607 1.607 0 0 1 1.601 1.778A1.707 1.707 0 0 1 53.955 60H38.09a1.071 1.071 0 0 1-.553-.159l-4.333-2.595a3.236 3.236 0 0 0-1.65-.46H21.43V47.26l1.856 1.519a3.552 3.552 0 0 0 4.618-.254A3.374 3.374 0 0 0 28.747 45h3.589a3.214 3.214 0 0 0 2.25-.932l10.08-9.997.038-.036.435-.429a1.332 1.332 0 0 1 1.875.013c.471.473.517 1.221.108 1.748l-2.947 3.6a1.071 1.071 0 0 0 .826 1.747H57.17a1.707 1.707 0 0 1 1.751 1.435 1.607 1.607 0 0 1-1.598 1.78H51.43a1.071 1.071 0 0 0 0 2.142h6.814c.86-.031 1.61.583 1.749 1.433zM60 21.912a1.08 1.08 0 0 1-.157.553l-2.596 4.332a3.237 3.237 0 0 0-.461 1.65V38.57h-9.526l1.52-1.856a3.466 3.466 0 0 0-.256-4.617 3.527 3.527 0 0 0-3.524-.812v-3.622a3.214 3.214 0 0 0-.932-2.25l-9.996-10.086-.02-.02-.443-.446a1.308 1.308 0 0 1 .013-1.874 1.359 1.359 0 0 1 1.748-.107l3.6 2.945A1.072 1.072 0 0 0 40.715 15V2.832A1.708 1.708 0 0 1 42.15 1.08a1.607 1.607 0 0 1 1.779 1.599V8.57a1.071 1.071 0 0 0 2.143 0v-6.81A1.707 1.707 0 0 1 47.508.008a1.607 1.607 0 0 1 1.779 1.598v6.964a1.071 1.071 0 0 0 2.143 0V3.75a1.607 1.607 0 0 1 1.779-1.6c.853.136 1.47.89 1.435 1.753v6.811a1.071 1.071 0 0 0 2.143 0V5.893a1.608 1.608 0 0 1 1.779-1.6c.853.136 1.469.889 1.435 1.752v15.867z" stroke="url(#d)" stroke-opacity=".6" stroke-width="1.5" shape-rendering="crispEdges" mask="url(#e)"/><path d="M.01 12.496a1.607 1.607 0 0 1 1.598-1.782h6.965a1.071 1.071 0 0 0 0-2.143H3.75A1.607 1.607 0 0 1 2.15 6.793c.137-.854.89-1.47 1.755-1.436h6.81a1.071 1.071 0 0 0 0-2.143h-4.82a1.607 1.607 0 0 1-1.603-1.778A1.707 1.707 0 0 1 6.047 0h15.867c.195.001.387.056.553.159L26.8 2.754a3.237 3.237 0 0 0 1.65.46h10.123v9.524l-1.856-1.52a3.561 3.561 0 0 0-4.619.255A3.374 3.374 0 0 0 31.26 15h-3.592a3.214 3.214 0 0 0-2.25.932l-10.084 10-.021.022-.446.442c-.522.51-1.36.505-1.875-.013a1.324 1.324 0 0 1-.107-1.748l2.947-3.6a1.071 1.071 0 0 0-.83-1.75H2.833a1.707 1.707 0 0 1-1.752-1.434 1.607 1.607 0 0 1 1.599-1.78h5.893a1.071 1.071 0 1 0 0-2.143H1.762A1.708 1.708 0 0 1 .01 12.496zM17.843 58.92a1.588 1.588 0 0 1-1.238-.403 1.622 1.622 0 0 1-.532-1.196v-5.893a1.071 1.071 0 0 0-2.143 0V58.242a1.714 1.714 0 0 1-1.448 1.752c-.45.049-.9-.098-1.234-.403a1.62 1.62 0 0 1-.532-1.198v-6.965a1.071 1.071 0 0 0-2.143 0v4.835a1.607 1.607 0 0 1-1.779 1.588 1.707 1.707 0 0 1-1.436-1.754v-6.811a1.071 1.071 0 0 0-2.142 0V54.117a1.607 1.607 0 0 1-1.778 1.59 1.708 1.708 0 0 1-1.437-1.752V38.088c.002-.193.052-.382.147-.55l2.607-4.335a3.247 3.247 0 0 0 .46-1.65V21.428h9.524l-1.52 1.857A3.452 3.452 0 0 0 15 28.745v3.59c.004.844.339 1.652.933 2.25l9.992 10.072a.597.597 0 0 0 .036.037l.436.439a1.329 1.329 0 0 1-.95 2.26 1.286 1.286 0 0 1-.804-.278l-3.599-2.945a1.072 1.072 0 0 0-1.758.83v12.168c.03.865-.59 1.616-1.444 1.752zm42.15-11.416a1.607 1.607 0 0 1-1.599 1.782H51.43a1.071 1.071 0 0 0 0 2.142h4.821a1.607 1.607 0 0 1 1.602 1.78 1.708 1.708 0 0 1-1.755 1.435h-6.811a1.071 1.071 0 0 0 0 2.143h4.822a1.607 1.607 0 0 1 1.601 1.778A1.707 1.707 0 0 1 53.955 60H38.09a1.071 1.071 0 0 1-.553-.159l-4.333-2.595a3.236 3.236 0 0 0-1.65-.46H21.43V47.26l1.856 1.519a3.552 3.552 0 0 0 4.618-.254A3.374 3.374 0 0 0 28.747 45h3.589a3.214 3.214 0 0 0 2.25-.932l10.08-9.997.038-.036.435-.429a1.332 1.332 0 0 1 1.875.013c.471.473.517 1.221.108 1.748l-2.947 3.6a1.071 1.071 0 0 0 .826 1.747H57.17a1.707 1.707 0 0 1 1.751 1.435 1.607 1.607 0 0 1-1.598 1.78H51.43a1.071 1.071 0 0 0 0 2.142h6.814c.86-.031 1.61.583 1.749 1.433zM60 21.912a1.08 1.08 0 0 1-.157.553l-2.596 4.332a3.237 3.237 0 0 0-.461 1.65V38.57h-9.526l1.52-1.856a3.466 3.466 0 0 0-.256-4.617 3.527 3.527 0 0 0-3.524-.812v-3.622a3.214 3.214 0 0 0-.932-2.25l-9.996-10.086-.02-.02-.443-.446a1.308 1.308 0 0 1 .013-1.874 1.359 1.359 0 0 1 1.748-.107l3.6 2.945A1.072 1.072 0 0 0 40.715 15V2.832A1.708 1.708 0 0 1 42.15 1.08a1.607 1.607 0 0 1 1.779 1.599V8.57a1.071 1.071 0 0 0 2.143 0v-6.81A1.707 1.707 0 0 1 47.508.008a1.607 1.607 0 0 1 1.779 1.598v6.964a1.071 1.071 0 0 0 2.143 0V3.75a1.607 1.607 0 0 1 1.779-1.6c.853.136 1.47.89 1.435 1.753v6.811a1.071 1.071 0 0 0 2.143 0V5.893a1.608 1.608 0 0 1 1.779-1.6c.853.136 1.469.889 1.435 1.752v15.867z" stroke="url(#f)" stroke-opacity=".3" stroke-width="1.5" shape-rendering="crispEdges" mask="url(#e)"/></g><defs><radialGradient id="d" cx="0" cy="0" r="1" gradientUnits="userSpaceOnUse" gradientTransform="matrix(0 52.0946 -52.0932 0 30.001 .544)"><stop stop-color="#fff"/><stop offset="1" stop-color="#fff" stop-opacity="0"/></radialGradient><radialGradient id="f" cx="0" cy="0" r="1" gradientUnits="userSpaceOnUse" gradientTransform="matrix(0 -30.0021 30.0013 0 30.001 60.003)"><stop stop-color="#fff"/><stop offset="1" stop-color="#fff" stop-opacity="0"/></radialGradient><linearGradient id="c" x1="2.476" y1="1.544" x2="30.75" y2="74.144" gradientUnits="userSpaceOnUse"><stop stop-color="#fff" stop-opacity=".6"/><stop offset="1" stop-color="#fff" stop-opacity="0"/></linearGradient><clipPath id="a"><path fill="#fff" d="M0 0h60v60H0z"/></clipPath><filter id="b" x="-375" y="-375.001" width="810" height="810.004" filterUnits="userSpaceOnUse" color-interpolation-filters="sRGB"><feFlood flood-opacity="0" result="BackgroundImageFix"/><feGaussianBlur in="BackgroundImageFix" stdDeviation="187.5"/><feComposite in2="SourceAlpha" operator="in" result="effect1_backgroundBlur_8462_42726"/><feColorMatrix in="SourceAlpha" values="0 0 0 0 0 0 0 0 0 0 0 0 0 0 0 0 0 0 127 0" result="hardAlpha"/><feOffset dy="1.5"/><feGaussianBlur stdDeviation=".75"/><feComposite in2="hardAlpha" operator="out"/><feColorMatrix values="0 0 0 0 0 0 0 0 0 0 0 0 0 0 0 0 0 0 0.25 0"/><feBlend in2="effect1_backgroundBlur_8462_42726" result="effect2_dropShadow_8462_42726"/><feBlend in="SourceGraphic" in2="effect2_dropShadow_8462_42726" result="shape"/></filter></defs></svg>