<svg xmlns="http://www.w3.org/2000/svg" width="60" height="60" fill="none"><g filter="url(#b)" clip-path="url(#a)"><mask id="e" fill="#fff"><path fill-rule="evenodd" clip-rule="evenodd" d="M28.24 1.762v40.484h-5.274a8.756 8.756 0 0 1-8.436-6.323C7.572 34.8 4.647 26.21 9.66 21.093c-5-5.103-2.116-13.716 4.887-14.831 1.757-5.842 8.818-8.167 13.692-4.5zm-9.073 11.689c-1.288.622-3.232 1.561-3.232 4.244a1.758 1.758 0 0 0 3.515 0c0-.385 0-.477 1.246-1.079 1.506-.728 4.028-1.946 4.028-5.952a1.758 1.758 0 0 0-3.516 0c0 1.8-.682 2.13-2.041 2.787zm1.17 17.765a1.759 1.759 0 0 0 .483-3.448 6.893 6.893 0 0 1-3.504-2.355 1.758 1.758 0 1 0-2.763 2.174c1.946 2.474 4.867 3.629 5.785 3.629zm30.004-10.122c5.001-5.106 2.111-13.717-4.888-14.832-1.757-5.842-8.817-8.168-13.692-4.5v40.484h5.273a8.758 8.758 0 0 0 8.437-6.323c6.96-1.123 9.88-9.714 4.87-14.83zm-15.065-10.43a1.758 1.758 0 0 1 3.516 0c0 1.8.682 2.13 2.042 2.787 1.287.622 3.231 1.561 3.231 4.244a1.758 1.758 0 0 1-3.515 0c0-.385 0-.477-1.246-1.079-1.506-.728-4.028-1.946-4.028-5.952zm10.427 16.584c-2.024 2.804-5.15 3.968-6.04 3.968a1.759 1.759 0 0 1-.483-3.448 6.886 6.886 0 0 0 3.672-2.577 1.758 1.758 0 0 1 2.85 2.057zM7.46 4.063c1.17 1.092.383 3.043-1.2 3.043-.751 0-1.164-.411-1.716-.96-.235-.235-.496-.495-.82-.759a1.758 1.758 0 0 1 2.399-2.571L7.46 4.063zM3.586 19.458a1.758 1.758 0 0 1 0 3.516H1.758a1.758 1.758 0 0 1 0-3.516h1.828zm1.477 16.095L3.726 36.8a1.758 1.758 0 0 0 2.398 2.571l1.337-1.247a1.758 1.758 0 1 0-2.398-2.571zm51.351-16.34h1.828a1.758 1.758 0 0 1 0 3.516h-1.828a1.758 1.758 0 1 1 0-3.515zm-1.479 16.34a1.758 1.758 0 0 0-2.398 2.571l1.338 1.247a1.758 1.758 0 0 0 2.397-2.571l-1.337-1.247zm1.337-30.166-1.337 1.247a1.758 1.758 0 0 1-2.398-2.571l1.338-1.247a1.758 1.758 0 1 1 2.397 2.571zm-36.23 42.25a5.28 5.28 0 0 0 3.24 4.863h13.442a5.28 5.28 0 0 0 3.24-4.863v-2.52H20.042v2.52zM25.31 60c-.97 0-1.758-.788-1.758-1.758v-2.226h12.89v2.226c0 .97-.787 1.758-1.757 1.758H25.31z"/></mask><path fill-rule="evenodd" clip-rule="evenodd" d="M28.24 1.762v40.484h-5.274a8.756 8.756 0 0 1-8.436-6.323C7.572 34.8 4.647 26.21 9.66 21.093c-5-5.103-2.116-13.716 4.887-14.831 1.757-5.842 8.818-8.167 13.692-4.5zm-9.073 11.689c-1.288.622-3.232 1.561-3.232 4.244a1.758 1.758 0 0 0 3.515 0c0-.385 0-.477 1.246-1.079 1.506-.728 4.028-1.946 4.028-5.952a1.758 1.758 0 0 0-3.516 0c0 1.8-.682 2.13-2.041 2.787zm1.17 17.765a1.759 1.759 0 0 0 .483-3.448 6.893 6.893 0 0 1-3.504-2.355 1.758 1.758 0 1 0-2.763 2.174c1.946 2.474 4.867 3.629 5.785 3.629zm30.004-10.122c5.001-5.106 2.111-13.717-4.888-14.832-1.757-5.842-8.817-8.168-13.692-4.5v40.484h5.273a8.758 8.758 0 0 0 8.437-6.323c6.96-1.123 9.88-9.714 4.87-14.83zm-15.065-10.43a1.758 1.758 0 0 1 3.516 0c0 1.8.682 2.13 2.042 2.787 1.287.622 3.231 1.561 3.231 4.244a1.758 1.758 0 0 1-3.515 0c0-.385 0-.477-1.246-1.079-1.506-.728-4.028-1.946-4.028-5.952zm10.427 16.584c-2.024 2.804-5.15 3.968-6.04 3.968a1.759 1.759 0 0 1-.483-3.448 6.886 6.886 0 0 0 3.672-2.577 1.758 1.758 0 0 1 2.85 2.057zM7.46 4.063c1.17 1.092.383 3.043-1.2 3.043-.751 0-1.164-.411-1.716-.96-.235-.235-.496-.495-.82-.759a1.758 1.758 0 0 1 2.399-2.571L7.46 4.063zM3.586 19.458a1.758 1.758 0 0 1 0 3.516H1.758a1.758 1.758 0 0 1 0-3.516h1.828zm1.477 16.095L3.726 36.8a1.758 1.758 0 0 0 2.398 2.571l1.337-1.247a1.758 1.758 0 1 0-2.398-2.571zm51.351-16.34h1.828a1.758 1.758 0 0 1 0 3.516h-1.828a1.758 1.758 0 1 1 0-3.515zm-1.479 16.34a1.758 1.758 0 0 0-2.398 2.571l1.338 1.247a1.758 1.758 0 0 0 2.397-2.571l-1.337-1.247zm1.337-30.166-1.337 1.247a1.758 1.758 0 0 1-2.398-2.571l1.338-1.247a1.758 1.758 0 1 1 2.397 2.571zm-36.23 42.25a5.28 5.28 0 0 0 3.24 4.863h13.442a5.28 5.28 0 0 0 3.24-4.863v-2.52H20.042v2.52zM25.31 60c-.97 0-1.758-.788-1.758-1.758v-2.226h12.89v2.226c0 .97-.787 1.758-1.757 1.758H25.31z" fill="url(#c)" fill-opacity=".8" shape-rendering="crispEdges"/><path fill-rule="evenodd" clip-rule="evenodd" d="M28.24 1.762v40.484h-5.274a8.756 8.756 0 0 1-8.436-6.323C7.572 34.8 4.647 26.21 9.66 21.093c-5-5.103-2.116-13.716 4.887-14.831 1.757-5.842 8.818-8.167 13.692-4.5zm-9.073 11.689c-1.288.622-3.232 1.561-3.232 4.244a1.758 1.758 0 0 0 3.515 0c0-.385 0-.477 1.246-1.079 1.506-.728 4.028-1.946 4.028-5.952a1.758 1.758 0 0 0-3.516 0c0 1.8-.682 2.13-2.041 2.787zm1.17 17.765a1.759 1.759 0 0 0 .483-3.448 6.893 6.893 0 0 1-3.504-2.355 1.758 1.758 0 1 0-2.763 2.174c1.946 2.474 4.867 3.629 5.785 3.629zm30.004-10.122c5.001-5.106 2.111-13.717-4.888-14.832-1.757-5.842-8.817-8.168-13.692-4.5v40.484h5.273a8.758 8.758 0 0 0 8.437-6.323c6.96-1.123 9.88-9.714 4.87-14.83zm-15.065-10.43a1.758 1.758 0 0 1 3.516 0c0 1.8.682 2.13 2.042 2.787 1.287.622 3.231 1.561 3.231 4.244a1.758 1.758 0 0 1-3.515 0c0-.385 0-.477-1.246-1.079-1.506-.728-4.028-1.946-4.028-5.952zm10.427 16.584c-2.024 2.804-5.15 3.968-6.04 3.968a1.759 1.759 0 0 1-.483-3.448 6.886 6.886 0 0 0 3.672-2.577 1.758 1.758 0 0 1 2.85 2.057zM7.46 4.063c1.17 1.092.383 3.043-1.2 3.043-.751 0-1.164-.411-1.716-.96-.235-.235-.496-.495-.82-.759a1.758 1.758 0 0 1 2.399-2.571L7.46 4.063zM3.586 19.458a1.758 1.758 0 0 1 0 3.516H1.758a1.758 1.758 0 0 1 0-3.516h1.828zm1.477 16.095L3.726 36.8a1.758 1.758 0 0 0 2.398 2.571l1.337-1.247a1.758 1.758 0 1 0-2.398-2.571zm51.351-16.34h1.828a1.758 1.758 0 0 1 0 3.516h-1.828a1.758 1.758 0 1 1 0-3.515zm-1.479 16.34a1.758 1.758 0 0 0-2.398 2.571l1.338 1.247a1.758 1.758 0 0 0 2.397-2.571l-1.337-1.247zm1.337-30.166-1.337 1.247a1.758 1.758 0 0 1-2.398-2.571l1.338-1.247a1.758 1.758 0 1 1 2.397 2.571zm-36.23 42.25a5.28 5.28 0 0 0 3.24 4.863h13.442a5.28 5.28 0 0 0 3.24-4.863v-2.52H20.042v2.52zM25.31 60c-.97 0-1.758-.788-1.758-1.758v-2.226h12.89v2.226c0 .97-.787 1.758-1.757 1.758H25.31z" fill="#344254" fill-opacity=".15" shape-rendering="crispEdges"/><path d="M28.24 42.246v1h1v-1h-1zm0-40.484h1v-.499l-.4-.3-.6.8zm-13.71 34.16.96-.279-.177-.607-.624-.1-.16.987zM9.66 21.095l.714.7.686-.7-.686-.7-.714.7zm4.887-14.832.158.987.62-.098.18-.601-.958-.288zm4.62 7.189-.435-.9.434.9zm0 0 .434.9-.434-.9zm1.529 3.165-.435-.9.435.9zm1.33 13.325-.96-.275.96.275zm-1.206-2.173.275-.962-.275.962zm-3.504-2.355-.786.619.786-.619zm-2.468-.295-.618-.786.618.786zm-.295 2.469.786-.619-.786.619zm30.9-21.325-.958.288.181.6.62.1.157-.988zm4.888 14.832-.715-.7-.685.7.685.7.715-.7zM31.76 1.762 31.16.963l-.4.3v.5h1zm0 40.484h-1v1h1v-1zm13.71-6.323-.16-.987-.624.1-.177.607.96.28zM40.834 13.45l-.435.9.435-.9zm-1.53 3.165-.435.9.435-.9zm6.399 10.632.81.585-.81-.585zm-7.73 2.693-.961.275.961-.275zm1.207-2.173-.275-.962.275.962zm3.672-2.577.81.585-.81-.585zm2.454-.397.585-.811-.585.81zM7.46 4.063l-.682.731.682-.731zM4.545 6.145l-.707.707.002.002.705-.709zm0 0 .707-.707v-.001l-.707.708zm-.82-.758-.681.731.024.023.026.02.632-.774zM3.64 2.903l-.731-.682.731.682zm2.485-.087.682-.731-.682.73zM3.726 36.8l.682.731-.682-.731zm1.337-1.247-.682-.731.682.731zM3.64 39.284l-.731.682.731-.682zm2.485.087.682.732-.682-.732zm1.337-1.247-.682-.731.682.731zm.087-2.484.731-.682-.731.682zm44.903 0-.732-.682.732.682zm2.484-.087.682-.731-.682.73zm-2.398 2.571.682-.731-.681.731zm1.338 1.247-.682.731.682-.73zm2.484-.087.731.682-.73-.682zm-.087-2.484-.682.731.682-.731zM54.935 6.634l-.682-.731.682.731zm1.337-1.247-.682-.731.682.731zm-3.821 1.16-.732.682.732-.682zm.087-2.484.681.731-.681-.731zm1.337-1.247.682.731-.682-.731zm2.484.087-.731.682.731-.682zM23.281 52.5l-.386.922.185.078h.202v-1zm13.443 0v1h.202l.185-.078-.387-.922zm3.24-7.383h1v-1h-1v1zm-19.922 0v-1h-1v1h1zm3.51 10.899v-1h-1v1h1zm12.89 0h1v-1h-1v1zm-7.203-13.77V1.762h-2v40.484h2zm-6.273 1h5.273v-2h-5.273v2zm-9.396-7.043a9.756 9.756 0 0 0 9.396 7.043v-2a7.756 7.756 0 0 1-7.476-5.603l-1.92.56zm-4.625-15.81C3.358 26.098 6.622 35.66 14.371 36.91l.318-1.974c-6.167-.995-8.753-8.612-4.315-13.142l-1.429-1.4zM14.39 5.275C6.588 6.517 3.375 16.108 8.945 21.794l1.43-1.4C5.944 15.873 8.5 8.238 14.704 7.249l-.315-1.975zM28.84.963c-5.432-4.087-13.293-1.496-15.25 5.01l1.915.577C17.062 1.372 23.32-.687 27.638 2.56L28.841.963zm-9.239 13.388-.87-1.8.87 1.8zm-2.666 3.344c0-1.061.37-1.717.84-2.188.51-.511 1.166-.837 1.827-1.156l-.87-1.8c-.627.302-1.587.757-2.372 1.543-.823.824-1.425 1.98-1.425 3.601h2zm.758.758a.758.758 0 0 1-.758-.758h-2a2.758 2.758 0 0 0 2.758 2.758v-2zm.757-.758c0 .419-.339.758-.757.758v2a2.758 2.758 0 0 0 2.757-2.758h-2zm1.81-1.98c-.578.28-1.048.52-1.339.793-.19.179-.341.4-.417.68-.06.225-.054.446-.054.507h2v-.055l.001-.017s-.002.035-.016.086a.62.62 0 0 1-.144.256c-.01.01.024-.023.178-.11.145-.083.355-.19.662-.338l-.87-1.801zm3.464-5.051c0 1.767-.546 2.829-1.188 3.531-.673.737-1.513 1.152-2.275 1.52l.87 1.802c.744-.36 1.918-.918 2.882-1.973.996-1.09 1.71-2.64 1.71-4.88h-2zm-.758-.758c.418 0 .758.34.758.758h2a2.758 2.758 0 0 0-2.758-2.758v2zm-.758.758c0-.418.34-.758.758-.758v-2a2.758 2.758 0 0 0-2.758 2.758h2zm-2.606 3.687c.619-.3 1.345-.631 1.848-1.207.565-.646.758-1.46.758-2.48h-2c0 .78-.148 1.031-.264 1.164-.178.204-.472.365-1.212.722l.87 1.801zm1.463 15.315a.759.759 0 0 1-.727.55v2c1.199 0 2.304-.788 2.65-2l-1.923-.55zm-.52-.937a.758.758 0 0 1 .52.937l1.923.55a2.758 2.758 0 0 0-1.893-3.41l-.55 1.923zm-4.015-2.697a7.892 7.892 0 0 0 4.015 2.697l.55-1.923a5.892 5.892 0 0 1-2.993-2.01l-1.572 1.236zm-1.064-.128a.758.758 0 0 1 1.064.128l1.572-1.237a2.758 2.758 0 0 0-3.872-.463l1.236 1.572zm-.127 1.064a.758.758 0 0 1 .127-1.064l-1.236-1.572a2.758 2.758 0 0 0-.463 3.873l1.572-1.237zm4.999 3.248c-.067 0-.3-.032-.697-.166a8.479 8.479 0 0 1-1.328-.597c-.998-.548-2.101-1.375-2.974-2.485l-1.572 1.237c1.073 1.365 2.403 2.353 3.582 3a10.46 10.46 0 0 0 1.65.739c.47.16.947.272 1.339.272v-2zM45.296 7.249c6.201.988 8.76 8.622 4.33 13.145l1.429 1.4c5.573-5.69 2.352-15.278-5.445-16.52l-.314 1.975zM32.362 2.561C36.679-.687 42.938 1.372 44.495 6.55l1.916-.576C44.454-.532 36.592-3.124 31.159.963l1.203 1.598zm.399 39.685V1.762h-2v40.484h2zm4.273-1h-5.273v2h5.273v-2zm7.476-5.603a7.758 7.758 0 0 1-7.476 5.603v2a9.758 9.758 0 0 0 9.397-7.043l-1.92-.56zm5.116-13.85c4.437 4.53 1.855 12.148-4.315 13.143l.319 1.974c7.752-1.25 11.01-10.815 5.425-16.516l-1.429 1.4zM37.034 7.907a2.758 2.758 0 0 0-2.758 2.758h2c0-.418.34-.758.758-.758v-2zm2.758 2.758a2.758 2.758 0 0 0-2.758-2.758v2c.419 0 .758.34.758.758h2zm1.477 1.886c-.74-.357-1.035-.518-1.213-.722-.116-.133-.264-.385-.264-1.164h-2c0 1.02.193 1.834.758 2.48.503.576 1.23.908 1.849 1.207l.87-1.8zm3.796 5.145c0-1.621-.602-2.777-1.425-3.601-.784-.786-1.745-1.24-2.371-1.544l-.87 1.801c.66.32 1.316.645 1.826 1.156.47.47.84 1.127.84 2.188h2zm-2.757 2.758a2.758 2.758 0 0 0 2.757-2.758h-2c0 .419-.339.758-.757.758v2zm-2.758-2.758a2.758 2.758 0 0 0 2.758 2.758v-2a.758.758 0 0 1-.758-.758h-2zm-.68-.178c.306.148.516.255.661.338.154.087.188.12.178.11a.62.62 0 0 1-.16-.343v.073h2c0-.061.008-.282-.053-.506a1.437 1.437 0 0 0-.417-.68c-.29-.274-.76-.513-1.34-.793l-.87 1.8zm-4.594-6.853c0 2.24.715 3.79 1.711 4.88.964 1.055 2.138 1.613 2.882 1.973l.87-1.801c-.762-.369-1.602-.784-2.275-1.52-.642-.703-1.188-1.765-1.188-3.532h-2zm5.387 21.552c.386 0 .87-.114 1.356-.279.51-.173 1.104-.432 1.727-.78 1.244-.697 2.653-1.78 3.768-3.324l-1.622-1.17c-.91 1.26-2.076 2.162-3.123 2.748-.522.292-1.004.5-1.393.633-.415.14-.654.172-.713.172v2zm-2.651-2a2.758 2.758 0 0 0 2.65 2v-2a.758.758 0 0 1-.727-.55l-1.923.55zm1.893-3.41a2.758 2.758 0 0 0-1.893 3.41l1.923-.55a.758.758 0 0 1 .52-.937l-.55-1.923zm3.136-2.2a5.886 5.886 0 0 1-3.136 2.2l.55 1.923a7.886 7.886 0 0 0 4.208-2.953l-1.622-1.17zm3.85-.623a2.758 2.758 0 0 0-3.85.622l1.622 1.17a.758.758 0 0 1 1.058-.17l1.17-1.622zm.623 3.85a2.758 2.758 0 0 0-.623-3.85l-1.17 1.622c.34.245.416.718.17 1.058l1.623 1.17zM6.262 8.106c2.477 0 3.725-3.055 1.88-4.774L6.78 4.794c.498.465.17 1.312-.517 1.312v2zM3.84 6.854c.515.513 1.203 1.252 2.422 1.252v-2a.651.651 0 0 1-.392-.115c-.16-.103-.323-.26-.619-.554L3.84 6.854zm-.002-.002 1.414-1.414-1.414 1.414zm-.744-.69c.28.228.508.455.746.692L5.25 5.437c-.234-.233-.526-.526-.893-.825l-1.264 1.55zM2.908 2.22a2.758 2.758 0 0 0 .136 3.897l1.364-1.462a.758.758 0 0 1-.037-1.071L2.908 2.22zm3.898-.137a2.758 2.758 0 0 0-3.898.137L4.37 3.585a.758.758 0 0 1 1.07-.038l1.365-1.463zm1.337 1.248L6.806 2.085 5.442 3.547l1.337 1.247 1.364-1.462zM6.344 21.216a2.758 2.758 0 0 0-2.758-2.758v2c.419 0 .758.34.758.758h2zm-2.758 2.758a2.758 2.758 0 0 0 2.758-2.758h-2c0 .419-.34.758-.758.758v2zm-1.828 0h1.828v-2H1.758v2zM-1 21.216a2.758 2.758 0 0 0 2.758 2.758v-2A.758.758 0 0 1 1 21.216h-2zm2.758-2.758A2.758 2.758 0 0 0-1 21.216h2c0-.418.34-.758.758-.758v-2zm1.828 0H1.758v2h1.828v-2zm.822 19.073 1.337-1.247-1.364-1.462-1.337 1.247 1.364 1.462zm-.037 1.071a.758.758 0 0 1 .037-1.07l-1.364-1.463a2.758 2.758 0 0 0-.136 3.897l1.463-1.364zm1.07.038a.758.758 0 0 1-1.07-.038l-1.463 1.365a2.758 2.758 0 0 0 3.898.136L5.442 38.64zm1.338-1.247L5.442 38.64l1.364 1.463 1.337-1.247-1.364-1.463zm.037-1.071a.758.758 0 0 1-.037 1.07l1.364 1.464a2.758 2.758 0 0 0 .136-3.898l-1.463 1.364zm-1.07-.038a.758.758 0 0 1 1.07.038l1.463-1.364a2.758 2.758 0 0 0-3.898-.136l1.364 1.462zm52.497-18.07h-1.829v2h1.828v-2zM61 20.97a2.758 2.758 0 0 0-2.758-2.757v2c.419 0 .758.339.758.757h2zm-2.758 2.758A2.758 2.758 0 0 0 61 20.971h-2c0 .419-.339.758-.758.758v2zm-1.828 0h1.828v-2h-1.828v2zm-2.758-2.758a2.758 2.758 0 0 0 2.758 2.758v-2a.758.758 0 0 1-.758-.758h-2zm2.758-2.757a2.758 2.758 0 0 0-2.758 2.757h2c0-.418.34-.757.758-.757v-2zm-3.232 18.108a.758.758 0 0 1 1.071-.038l1.364-1.463a2.758 2.758 0 0 0-3.898.137l1.463 1.364zm.037 1.07a.758.758 0 0 1-.037-1.07l-1.463-1.364a2.758 2.758 0 0 0 .136 3.898l1.364-1.463zm1.338 1.248-1.338-1.247-1.364 1.462 1.338 1.248 1.364-1.463zm1.071-.038a.758.758 0 0 1-1.071.038l-1.364 1.462a2.758 2.758 0 0 0 3.898-.136l-1.463-1.364zm-.038-1.07a.758.758 0 0 1 .038 1.07l1.463 1.364a2.758 2.758 0 0 0-.137-3.898l-1.364 1.463zm-1.337-1.248 1.337 1.247 1.364-1.462-1.337-1.248-1.364 1.463zm1.364-28.919 1.337-1.247-1.364-1.462-1.337 1.247 1.364 1.462zM51.72 7.23a2.758 2.758 0 0 0 3.898.136l-1.364-1.462a.758.758 0 0 1-1.07-.038L51.718 7.23zm.136-3.897a2.758 2.758 0 0 0-.136 3.897l1.463-1.364a.758.758 0 0 1 .037-1.07l-1.364-1.463zm1.338-1.247-1.337 1.247 1.363 1.462 1.338-1.247-1.364-1.462zm3.897.136a2.758 2.758 0 0 0-3.897-.136l1.364 1.462a.758.758 0 0 1 1.07.038L57.09 2.22zm-.136 3.897a2.758 2.758 0 0 0 .136-3.897l-1.462 1.364a.758.758 0 0 1-.038 1.07l1.364 1.463zM23.67 51.578a4.28 4.28 0 0 1-2.627-3.941h-2a6.28 6.28 0 0 0 3.853 5.785l.774-1.844zm13.055-.078H23.282v2h13.442v-2zm2.24-3.863a4.28 4.28 0 0 1-2.627 3.94l.774 1.845a6.28 6.28 0 0 0 3.853-5.785h-2zm0-2.52v2.52h2v-2.52h-2zm-18.922 1h19.922v-2H20.042v2zm1 1.52v-2.52h-2v2.52h2zm1.51 10.605A2.758 2.758 0 0 0 25.31 61v-2a.758.758 0 0 1-.758-.758h-2zm0-2.226v2.226h2v-2.226h-2zm13.89-1h-12.89v2h12.89v-2zm1 3.226v-2.226h-2v2.226h2zM34.685 61a2.758 2.758 0 0 0 2.757-2.758h-2c0 .418-.34.758-.757.758v2zm-9.375 0h9.375v-2H25.31v2z" fill="url(#d)" fill-opacity=".6" mask="url(#e)"/><path d="M28.24 42.246v1h1v-1h-1zm0-40.484h1v-.499l-.4-.3-.6.8zm-13.71 34.16.96-.279-.177-.607-.624-.1-.16.987zM9.66 21.095l.714.7.686-.7-.686-.7-.714.7zm4.887-14.832.158.987.62-.098.18-.601-.958-.288zm4.62 7.189-.435-.9.434.9zm0 0 .434.9-.434-.9zm1.529 3.165-.435-.9.435.9zm1.33 13.325-.96-.275.96.275zm-1.206-2.173.275-.962-.275.962zm-3.504-2.355-.786.619.786-.619zm-2.468-.295-.618-.786.618.786zm-.295 2.469.786-.619-.786.619zm30.9-21.325-.958.288.181.6.62.1.157-.988zm4.888 14.832-.715-.7-.685.7.685.7.715-.7zM31.76 1.762 31.16.963l-.4.3v.5h1zm0 40.484h-1v1h1v-1zm13.71-6.323-.16-.987-.624.1-.177.607.96.28zM40.834 13.45l-.435.9.435-.9zm-1.53 3.165-.435.9.435-.9zm6.399 10.632.81.585-.81-.585zm-7.73 2.693-.961.275.961-.275zm1.207-2.173-.275-.962.275.962zm3.672-2.577.81.585-.81-.585zm2.454-.397.585-.811-.585.81zM7.46 4.063l-.682.731.682-.731zM4.545 6.145l-.707.707.002.002.705-.709zm0 0 .707-.707v-.001l-.707.708zm-.82-.758-.681.731.024.023.026.02.632-.774zM3.64 2.903l-.731-.682.731.682zm2.485-.087.682-.731-.682.73zM3.726 36.8l.682.731-.682-.731zm1.337-1.247-.682-.731.682.731zM3.64 39.284l-.731.682.731-.682zm2.485.087.682.732-.682-.732zm1.337-1.247-.682-.731.682.731zm.087-2.484.731-.682-.731.682zm44.903 0-.732-.682.732.682zm2.484-.087.682-.731-.682.73zm-2.398 2.571.682-.731-.681.731zm1.338 1.247-.682.731.682-.73zm2.484-.087.731.682-.73-.682zm-.087-2.484-.682.731.682-.731zM54.935 6.634l-.682-.731.682.731zm1.337-1.247-.682-.731.682.731zm-3.821 1.16-.732.682.732-.682zm.087-2.484.681.731-.681-.731zm1.337-1.247.682.731-.682-.731zm2.484.087-.731.682.731-.682zM23.281 52.5l-.386.922.185.078h.202v-1zm13.443 0v1h.202l.185-.078-.387-.922zm3.24-7.383h1v-1h-1v1zm-19.922 0v-1h-1v1h1zm3.51 10.899v-1h-1v1h1zm12.89 0h1v-1h-1v1zm-7.203-13.77V1.762h-2v40.484h2zm-6.273 1h5.273v-2h-5.273v2zm-9.396-7.043a9.756 9.756 0 0 0 9.396 7.043v-2a7.756 7.756 0 0 1-7.476-5.603l-1.92.56zm-4.625-15.81C3.358 26.098 6.622 35.66 14.371 36.91l.318-1.974c-6.167-.995-8.753-8.612-4.315-13.142l-1.429-1.4zM14.39 5.275C6.588 6.517 3.375 16.108 8.945 21.794l1.43-1.4C5.944 15.873 8.5 8.238 14.704 7.249l-.315-1.975zM28.84.963c-5.432-4.087-13.293-1.496-15.25 5.01l1.915.577C17.062 1.372 23.32-.687 27.638 2.56L28.841.963zm-9.239 13.388-.87-1.8.87 1.8zm-2.666 3.344c0-1.061.37-1.717.84-2.188.51-.511 1.166-.837 1.827-1.156l-.87-1.8c-.627.302-1.587.757-2.372 1.543-.823.824-1.425 1.98-1.425 3.601h2zm.758.758a.758.758 0 0 1-.758-.758h-2a2.758 2.758 0 0 0 2.758 2.758v-2zm.757-.758c0 .419-.339.758-.757.758v2a2.758 2.758 0 0 0 2.757-2.758h-2zm1.81-1.98c-.578.28-1.048.52-1.339.793-.19.179-.341.4-.417.68-.06.225-.054.446-.054.507h2v-.055l.001-.017s-.002.035-.016.086a.62.62 0 0 1-.144.256c-.01.01.024-.023.178-.11.145-.083.355-.19.662-.338l-.87-1.801zm3.464-5.051c0 1.767-.546 2.829-1.188 3.531-.673.737-1.513 1.152-2.275 1.52l.87 1.802c.744-.36 1.918-.918 2.882-1.973.996-1.09 1.71-2.64 1.71-4.88h-2zm-.758-.758c.418 0 .758.34.758.758h2a2.758 2.758 0 0 0-2.758-2.758v2zm-.758.758c0-.418.34-.758.758-.758v-2a2.758 2.758 0 0 0-2.758 2.758h2zm-2.606 3.687c.619-.3 1.345-.631 1.848-1.207.565-.646.758-1.46.758-2.48h-2c0 .78-.148 1.031-.264 1.164-.178.204-.472.365-1.212.722l.87 1.801zm1.463 15.315a.759.759 0 0 1-.727.55v2c1.199 0 2.304-.788 2.65-2l-1.923-.55zm-.52-.937a.758.758 0 0 1 .52.937l1.923.55a2.758 2.758 0 0 0-1.893-3.41l-.55 1.923zm-4.015-2.697a7.892 7.892 0 0 0 4.015 2.697l.55-1.923a5.892 5.892 0 0 1-2.993-2.01l-1.572 1.236zm-1.064-.128a.758.758 0 0 1 1.064.128l1.572-1.237a2.758 2.758 0 0 0-3.872-.463l1.236 1.572zm-.127 1.064a.758.758 0 0 1 .127-1.064l-1.236-1.572a2.758 2.758 0 0 0-.463 3.873l1.572-1.237zm4.999 3.248c-.067 0-.3-.032-.697-.166a8.479 8.479 0 0 1-1.328-.597c-.998-.548-2.101-1.375-2.974-2.485l-1.572 1.237c1.073 1.365 2.403 2.353 3.582 3a10.46 10.46 0 0 0 1.65.739c.47.16.947.272 1.339.272v-2zM45.296 7.249c6.201.988 8.76 8.622 4.33 13.145l1.429 1.4c5.573-5.69 2.352-15.278-5.445-16.52l-.314 1.975zM32.362 2.561C36.679-.687 42.938 1.372 44.495 6.55l1.916-.576C44.454-.532 36.592-3.124 31.159.963l1.203 1.598zm.399 39.685V1.762h-2v40.484h2zm4.273-1h-5.273v2h5.273v-2zm7.476-5.603a7.758 7.758 0 0 1-7.476 5.603v2a9.758 9.758 0 0 0 9.397-7.043l-1.92-.56zm5.116-13.85c4.437 4.53 1.855 12.148-4.315 13.143l.319 1.974c7.752-1.25 11.01-10.815 5.425-16.516l-1.429 1.4zM37.034 7.907a2.758 2.758 0 0 0-2.758 2.758h2c0-.418.34-.758.758-.758v-2zm2.758 2.758a2.758 2.758 0 0 0-2.758-2.758v2c.419 0 .758.34.758.758h2zm1.477 1.886c-.74-.357-1.035-.518-1.213-.722-.116-.133-.264-.385-.264-1.164h-2c0 1.02.193 1.834.758 2.48.503.576 1.23.908 1.849 1.207l.87-1.8zm3.796 5.145c0-1.621-.602-2.777-1.425-3.601-.784-.786-1.745-1.24-2.371-1.544l-.87 1.801c.66.32 1.316.645 1.826 1.156.47.47.84 1.127.84 2.188h2zm-2.757 2.758a2.758 2.758 0 0 0 2.757-2.758h-2c0 .419-.339.758-.757.758v2zm-2.758-2.758a2.758 2.758 0 0 0 2.758 2.758v-2a.758.758 0 0 1-.758-.758h-2zm-.68-.178c.306.148.516.255.661.338.154.087.188.12.178.11a.62.62 0 0 1-.16-.343v.073h2c0-.061.008-.282-.053-.506a1.437 1.437 0 0 0-.417-.68c-.29-.274-.76-.513-1.34-.793l-.87 1.8zm-4.594-6.853c0 2.24.715 3.79 1.711 4.88.964 1.055 2.138 1.613 2.882 1.973l.87-1.801c-.762-.369-1.602-.784-2.275-1.52-.642-.703-1.188-1.765-1.188-3.532h-2zm5.387 21.552c.386 0 .87-.114 1.356-.279.51-.173 1.104-.432 1.727-.78 1.244-.697 2.653-1.78 3.768-3.324l-1.622-1.17c-.91 1.26-2.076 2.162-3.123 2.748-.522.292-1.004.5-1.393.633-.415.14-.654.172-.713.172v2zm-2.651-2a2.758 2.758 0 0 0 2.65 2v-2a.758.758 0 0 1-.727-.55l-1.923.55zm1.893-3.41a2.758 2.758 0 0 0-1.893 3.41l1.923-.55a.758.758 0 0 1 .52-.937l-.55-1.923zm3.136-2.2a5.886 5.886 0 0 1-3.136 2.2l.55 1.923a7.886 7.886 0 0 0 4.208-2.953l-1.622-1.17zm3.85-.623a2.758 2.758 0 0 0-3.85.622l1.622 1.17a.758.758 0 0 1 1.058-.17l1.17-1.622zm.623 3.85a2.758 2.758 0 0 0-.623-3.85l-1.17 1.622c.34.245.416.718.17 1.058l1.623 1.17zM6.262 8.106c2.477 0 3.725-3.055 1.88-4.774L6.78 4.794c.498.465.17 1.312-.517 1.312v2zM3.84 6.854c.515.513 1.203 1.252 2.422 1.252v-2a.651.651 0 0 1-.392-.115c-.16-.103-.323-.26-.619-.554L3.84 6.854zm-.002-.002 1.414-1.414-1.414 1.414zm-.744-.69c.28.228.508.455.746.692L5.25 5.437c-.234-.233-.526-.526-.893-.825l-1.264 1.55zM2.908 2.22a2.758 2.758 0 0 0 .136 3.897l1.364-1.462a.758.758 0 0 1-.037-1.071L2.908 2.22zm3.898-.137a2.758 2.758 0 0 0-3.898.137L4.37 3.585a.758.758 0 0 1 1.07-.038l1.365-1.463zm1.337 1.248L6.806 2.085 5.442 3.547l1.337 1.247 1.364-1.462zM6.344 21.216a2.758 2.758 0 0 0-2.758-2.758v2c.419 0 .758.34.758.758h2zm-2.758 2.758a2.758 2.758 0 0 0 2.758-2.758h-2c0 .419-.34.758-.758.758v2zm-1.828 0h1.828v-2H1.758v2zM-1 21.216a2.758 2.758 0 0 0 2.758 2.758v-2A.758.758 0 0 1 1 21.216h-2zm2.758-2.758A2.758 2.758 0 0 0-1 21.216h2c0-.418.34-.758.758-.758v-2zm1.828 0H1.758v2h1.828v-2zm.822 19.073 1.337-1.247-1.364-1.462-1.337 1.247 1.364 1.462zm-.037 1.071a.758.758 0 0 1 .037-1.07l-1.364-1.463a2.758 2.758 0 0 0-.136 3.897l1.463-1.364zm1.07.038a.758.758 0 0 1-1.07-.038l-1.463 1.365a2.758 2.758 0 0 0 3.898.136L5.442 38.64zm1.338-1.247L5.442 38.64l1.364 1.463 1.337-1.247-1.364-1.463zm.037-1.071a.758.758 0 0 1-.037 1.07l1.364 1.464a2.758 2.758 0 0 0 .136-3.898l-1.463 1.364zm-1.07-.038a.758.758 0 0 1 1.07.038l1.463-1.364a2.758 2.758 0 0 0-3.898-.136l1.364 1.462zm52.497-18.07h-1.829v2h1.828v-2zM61 20.97a2.758 2.758 0 0 0-2.758-2.757v2c.419 0 .758.339.758.757h2zm-2.758 2.758A2.758 2.758 0 0 0 61 20.971h-2c0 .419-.339.758-.758.758v2zm-1.828 0h1.828v-2h-1.828v2zm-2.758-2.758a2.758 2.758 0 0 0 2.758 2.758v-2a.758.758 0 0 1-.758-.758h-2zm2.758-2.757a2.758 2.758 0 0 0-2.758 2.757h2c0-.418.34-.757.758-.757v-2zm-3.232 18.108a.758.758 0 0 1 1.071-.038l1.364-1.463a2.758 2.758 0 0 0-3.898.137l1.463 1.364zm.037 1.07a.758.758 0 0 1-.037-1.07l-1.463-1.364a2.758 2.758 0 0 0 .136 3.898l1.364-1.463zm1.338 1.248-1.338-1.247-1.364 1.462 1.338 1.248 1.364-1.463zm1.071-.038a.758.758 0 0 1-1.071.038l-1.364 1.462a2.758 2.758 0 0 0 3.898-.136l-1.463-1.364zm-.038-1.07a.758.758 0 0 1 .038 1.07l1.463 1.364a2.758 2.758 0 0 0-.137-3.898l-1.364 1.463zm-1.337-1.248 1.337 1.247 1.364-1.462-1.337-1.248-1.364 1.463zm1.364-28.919 1.337-1.247-1.364-1.462-1.337 1.247 1.364 1.462zM51.72 7.23a2.758 2.758 0 0 0 3.898.136l-1.364-1.462a.758.758 0 0 1-1.07-.038L51.718 7.23zm.136-3.897a2.758 2.758 0 0 0-.136 3.897l1.463-1.364a.758.758 0 0 1 .037-1.07l-1.364-1.463zm1.338-1.247-1.337 1.247 1.363 1.462 1.338-1.247-1.364-1.462zm3.897.136a2.758 2.758 0 0 0-3.897-.136l1.364 1.462a.758.758 0 0 1 1.07.038L57.09 2.22zm-.136 3.897a2.758 2.758 0 0 0 .136-3.897l-1.462 1.364a.758.758 0 0 1-.038 1.07l1.364 1.463zM23.67 51.578a4.28 4.28 0 0 1-2.627-3.941h-2a6.28 6.28 0 0 0 3.853 5.785l.774-1.844zm13.055-.078H23.282v2h13.442v-2zm2.24-3.863a4.28 4.28 0 0 1-2.627 3.94l.774 1.845a6.28 6.28 0 0 0 3.853-5.785h-2zm0-2.52v2.52h2v-2.52h-2zm-18.922 1h19.922v-2H20.042v2zm1 1.52v-2.52h-2v2.52h2zm1.51 10.605A2.758 2.758 0 0 0 25.31 61v-2a.758.758 0 0 1-.758-.758h-2zm0-2.226v2.226h2v-2.226h-2zm13.89-1h-12.89v2h12.89v-2zm1 3.226v-2.226h-2v2.226h2zM34.685 61a2.758 2.758 0 0 0 2.757-2.758h-2c0 .418-.34.758-.757.758v2zm-9.375 0h9.375v-2H25.31v2z" fill="url(#f)" fill-opacity=".3" mask="url(#e)"/></g><defs><radialGradient id="d" cx="0" cy="0" r="1" gradientUnits="userSpaceOnUse" gradientTransform="matrix(0 52.0909 -52.0912 0 30 .545)"><stop stop-color="#fff"/><stop offset="1" stop-color="#fff" stop-opacity="0"/></radialGradient><radialGradient id="f" cx="0" cy="0" r="1" gradientUnits="userSpaceOnUse" gradientTransform="matrix(0 -30 30.0002 0 30 60)"><stop stop-color="#fff"/><stop offset="1" stop-color="#fff" stop-opacity="0"/></radialGradient><linearGradient id="c" x1="2.476" y1="1.545" x2="30.747" y2="74.141" gradientUnits="userSpaceOnUse"><stop stop-color="#fff" stop-opacity=".6"/><stop offset="1" stop-color="#fff" stop-opacity="0"/></linearGradient><clipPath id="a"><path fill="#fff" d="M0 0h60v60H0z"/></clipPath><filter id="b" x="-500" y="-500" width="1060" height="1060" filterUnits="userSpaceOnUse" color-interpolation-filters="sRGB"><feFlood flood-opacity="0" result="BackgroundImageFix"/><feGaussianBlur in="BackgroundImageFix" stdDeviation="250"/><feComposite in2="SourceAlpha" operator="in" result="effect1_backgroundBlur_8462_42708"/><feColorMatrix in="SourceAlpha" values="0 0 0 0 0 0 0 0 0 0 0 0 0 0 0 0 0 0 127 0" result="hardAlpha"/><feOffset dy="2"/><feGaussianBlur stdDeviation="1"/><feComposite in2="hardAlpha" operator="out"/><feColorMatrix values="0 0 0 0 0 0 0 0 0 0 0 0 0 0 0 0 0 0 0.25 0"/><feBlend in2="effect1_backgroundBlur_8462_42708" result="effect2_dropShadow_8462_42708"/><feBlend in="SourceGraphic" in2="effect2_dropShadow_8462_42708" result="shape"/></filter></defs></svg>