<svg xmlns="http://www.w3.org/2000/svg" width="60" height="60" fill="none"><g filter="url(#b)" clip-path="url(#a)"><mask id="e" fill="#fff"><path fill-rule="evenodd" clip-rule="evenodd" d="M46.739 2.52 48.735.523c1.708-1.586 4.072.78 2.486 2.486l-1.997 1.997A1.758 1.758 0 1 1 46.74 2.52zM10.793 5.006c1.707 1.586 4.072-.778 2.486-2.486L11.282.524a1.758 1.758 0 0 0-2.486 2.485l1.997 1.997zM1.766 19.98H4.59c2.33.086 2.328 3.43 0 3.515H1.766a1.758 1.758 0 0 1 0-3.515zm53.66 0h2.824c2.33.086 2.328 3.43 0 3.515h-2.824a1.758 1.758 0 0 1 0-3.515zm-8.688 20.974c-1.586-1.708.78-4.072 2.486-2.486l1.997 1.997a1.758 1.758 0 0 1-2.486 2.486l-1.997-1.997zm-35.945-2.486-1.997 1.997a1.758 1.758 0 1 0 2.486 2.486l1.997-1.997c1.586-1.707-.778-4.072-2.486-2.486zm27.472-14.973L34.95 26.81c1.848 3.575-.901 8.036-4.944 7.982a5.53 5.53 0 0 1-5.524-5.523c-.053-4.043 4.408-6.793 7.982-4.945l3.83-3.83c.33-.33.777-.515 1.243-.515h12.034c-2.724-23.693-36.415-23.676-39.13 0h11.305l3.316-3.315c-1.849-3.575.901-8.036 4.944-7.982a5.53 5.53 0 0 1 5.523 5.524c.054 4.042-4.407 6.793-7.982 4.944l-3.83 3.83c-.329.33-.776.515-1.242.515H10.442a19.416 19.416 0 0 0 6.424 12.774 12.025 12.025 0 0 1 3.72 7.046h18.84a12.025 12.025 0 0 1 3.72-7.046 19.415 19.415 0 0 0 6.424-12.774H38.265zM28.25 57.958c-4.284-.824-7.531-4.599-7.531-9.12V46.83h18.578v2.008c0 4.521-3.247 8.296-7.531 9.12.175 2.722-3.69 2.724-3.516 0zm3.77-43.753a2.01 2.01 0 0 0-2.009-2.008c-2.66.101-2.659 3.915 0 4.016a2.01 2.01 0 0 0 2.008-2.008zm-2.01 17.071A2.01 2.01 0 0 1 28 29.268c0-1.107.9-2.007 2.008-2.007 2.66.1 2.66 3.914 0 4.015z"/></mask><path fill-rule="evenodd" clip-rule="evenodd" d="M46.739 2.52 48.735.523c1.708-1.586 4.072.78 2.486 2.486l-1.997 1.997A1.758 1.758 0 1 1 46.74 2.52zM10.793 5.006c1.707 1.586 4.072-.778 2.486-2.486L11.282.524a1.758 1.758 0 0 0-2.486 2.485l1.997 1.997zM1.766 19.98H4.59c2.33.086 2.328 3.43 0 3.515H1.766a1.758 1.758 0 0 1 0-3.515zm53.66 0h2.824c2.33.086 2.328 3.43 0 3.515h-2.824a1.758 1.758 0 0 1 0-3.515zm-8.688 20.974c-1.586-1.708.78-4.072 2.486-2.486l1.997 1.997a1.758 1.758 0 0 1-2.486 2.486l-1.997-1.997zm-35.945-2.486-1.997 1.997a1.758 1.758 0 1 0 2.486 2.486l1.997-1.997c1.586-1.707-.778-4.072-2.486-2.486zm27.472-14.973L34.95 26.81c1.848 3.575-.901 8.036-4.944 7.982a5.53 5.53 0 0 1-5.524-5.523c-.053-4.043 4.408-6.793 7.982-4.945l3.83-3.83c.33-.33.777-.515 1.243-.515h12.034c-2.724-23.693-36.415-23.676-39.13 0h11.305l3.316-3.315c-1.849-3.575.901-8.036 4.944-7.982a5.53 5.53 0 0 1 5.523 5.524c.054 4.042-4.407 6.793-7.982 4.944l-3.83 3.83c-.329.33-.776.515-1.242.515H10.442a19.416 19.416 0 0 0 6.424 12.774 12.025 12.025 0 0 1 3.72 7.046h18.84a12.025 12.025 0 0 1 3.72-7.046 19.415 19.415 0 0 0 6.424-12.774H38.265zM28.25 57.958c-4.284-.824-7.531-4.599-7.531-9.12V46.83h18.578v2.008c0 4.521-3.247 8.296-7.531 9.12.175 2.722-3.69 2.724-3.516 0zm3.77-43.753a2.01 2.01 0 0 0-2.009-2.008c-2.66.101-2.659 3.915 0 4.016a2.01 2.01 0 0 0 2.008-2.008zm-2.01 17.071A2.01 2.01 0 0 1 28 29.268c0-1.107.9-2.007 2.008-2.007 2.66.1 2.66 3.914 0 4.015z" fill="url(#c)" fill-opacity=".8" shape-rendering="crispEdges"/><path fill-rule="evenodd" clip-rule="evenodd" d="M46.739 2.52 48.735.523c1.708-1.586 4.072.78 2.486 2.486l-1.997 1.997A1.758 1.758 0 1 1 46.74 2.52zM10.793 5.006c1.707 1.586 4.072-.778 2.486-2.486L11.282.524a1.758 1.758 0 0 0-2.486 2.485l1.997 1.997zM1.766 19.98H4.59c2.33.086 2.328 3.43 0 3.515H1.766a1.758 1.758 0 0 1 0-3.515zm53.66 0h2.824c2.33.086 2.328 3.43 0 3.515h-2.824a1.758 1.758 0 0 1 0-3.515zm-8.688 20.974c-1.586-1.708.78-4.072 2.486-2.486l1.997 1.997a1.758 1.758 0 0 1-2.486 2.486l-1.997-1.997zm-35.945-2.486-1.997 1.997a1.758 1.758 0 1 0 2.486 2.486l1.997-1.997c1.586-1.707-.778-4.072-2.486-2.486zm27.472-14.973L34.95 26.81c1.848 3.575-.901 8.036-4.944 7.982a5.53 5.53 0 0 1-5.524-5.523c-.053-4.043 4.408-6.793 7.982-4.945l3.83-3.83c.33-.33.777-.515 1.243-.515h12.034c-2.724-23.693-36.415-23.676-39.13 0h11.305l3.316-3.315c-1.849-3.575.901-8.036 4.944-7.982a5.53 5.53 0 0 1 5.523 5.524c.054 4.042-4.407 6.793-7.982 4.944l-3.83 3.83c-.329.33-.776.515-1.242.515H10.442a19.416 19.416 0 0 0 6.424 12.774 12.025 12.025 0 0 1 3.72 7.046h18.84a12.025 12.025 0 0 1 3.72-7.046 19.415 19.415 0 0 0 6.424-12.774H38.265zM28.25 57.958c-4.284-.824-7.531-4.599-7.531-9.12V46.83h18.578v2.008c0 4.521-3.247 8.296-7.531 9.12.175 2.722-3.69 2.724-3.516 0zm3.77-43.753a2.01 2.01 0 0 0-2.009-2.008c-2.66.101-2.659 3.915 0 4.016a2.01 2.01 0 0 0 2.008-2.008zm-2.01 17.071A2.01 2.01 0 0 1 28 29.268c0-1.107.9-2.007 2.008-2.007 2.66.1 2.66 3.914 0 4.015z" fill="#344254" fill-opacity=".15" shape-rendering="crispEdges"/><path d="m48.735.523-.68-.732-.014.012-.013.013.707.707zM46.74 2.52l.707.707-.707-.707zm4.482.49.707.706.013-.013.013-.013-.733-.68zm-1.997 1.996-.707-.707.707.707zm-2.485 0-.708.707.708-.707zM13.279 2.52l.732-.68L14 1.826l-.013-.013-.707.707zm-2.486 2.486-.707.707.013.013.013.013.68-.733zm.489-4.482.707-.708-.707.708zm-2.486 0L8.09-.184l.707.708zm0 2.485-.707.708.707-.708zM4.59 19.98l.037-.999H4.59v1zm0 3.516v1h.037l-.037-1zm53.66-3.515.037-1h-.037v1zm0 3.515v1h.037l-.037-1zm-9.026 14.973.707-.707-.013-.013-.013-.013-.68.733zm-2.486 2.486-.732.68.012.014.013.013.707-.707zm4.483 1.997-.707-.708.707.708zm-2.486 0 .707-.708-.707.708zM8.796 40.465l.707.707-.707-.707zm1.997-1.997-.68-.733-.014.013-.013.013.707.707zm-1.997 4.483-.707.707.707-.707zm2.486 0-.707-.707.707.707zm1.997-1.997.707.707.013-.013.012-.013-.732-.681zM34.95 26.81l-.707-.707-.517.517.336.65.888-.46zm3.315-3.315.708.707.292-.293v-.414h-1zm-8.26 11.297.014-1h-.013v1zm-5.523-5.523h1v-.014l-1 .014zm7.982-4.945-.459.888.65.336.516-.517-.707-.707zm3.83-3.83.707.707-.707-.707zm13.277-.515v1h1.122l-.128-1.114-.994.114zm-39.13 0-.994-.114-.128 1.114h1.121v-1zm11.305 0v1h.415l.292-.293-.707-.707zm3.316-3.315.707.707.517-.517-.336-.65-.888.46zm4.944-7.982-.013 1h.013v-1zm5.523 5.524h-1v.013l1-.013zm-7.982 4.944.46-.888-.65-.336-.517.517.707.707zm-3.83 3.83-.707-.707.707.707zm-13.275.515v-1H9.347l.099 1.09.996-.09zm6.424 12.774.679-.734-.007-.007-.008-.007-.664.748zm3.72 7.046-.99.147.146.976.978-.133-.135-.99zm18.84 0-.089.996.94.084.139-.933-.99-.147zm3.72-7.046-.664-.748-.008.007-.007.007.679.734zm6.424-12.774.996.09.098-1.09H49.57v1zm-11.305 0v-1h-1v1h1zM28.25 57.958l.998.064.057-.88-.866-.166-.189.982zM20.718 46.83v-1h-1v1h1zm18.578 0h1v-1h-1v1zm-7.531 11.128-.189-.982-.866.167.057.88.998-.065zM30.01 12.197v-1h-.038l.038 1zm0 4.016-.037 1h.038v-1zm-.001 15.063v1h.038l-.038-1zm0-4.015.038-1h-.038v1zM48.029-.184 46.03 1.813l1.415 1.414 1.996-1.996-1.414-1.415zm3.925 3.874c2.46-2.649-1.25-6.36-3.9-3.9l1.362 1.466a.759.759 0 0 1 1.073 1.073l1.465 1.361zM49.93 5.713l1.997-1.997-1.414-1.414L48.517 4.3l1.414 1.414zm-3.9 0a2.758 2.758 0 0 0 3.9 0L48.517 4.3a.758.758 0 0 1-1.071 0L46.03 5.713zm0-3.9a2.758 2.758 0 0 0 0 3.9L47.446 4.3a.758.758 0 0 1 0-1.072L46.03 1.813zM12.546 3.201a.759.759 0 0 1-1.072 1.073l-1.362 1.465c2.646 2.458 6.363-1.247 3.9-3.9l-1.466 1.362zm-1.971-1.97 1.997 1.996 1.414-1.414-1.997-1.997-1.414 1.415zm-1.072 0a.758.758 0 0 1 1.072 0l1.414-1.415a2.758 2.758 0 0 0-3.9 0l1.414 1.415zm0 1.071a.758.758 0 0 1 0-1.071L8.09-.184a2.758 2.758 0 0 0 0 3.9l1.414-1.414zM11.5 4.3 9.503 2.302 8.09 3.717l1.997 1.996L11.5 4.3zM4.59 18.98H1.766v2H4.59v-2zm.037 5.516c3.61-.133 3.615-5.38 0-5.515l-.074 2a.759.759 0 0 1 0 1.516l.074 1.999zm-2.861 0H4.59v-2H1.766v2zm-2.758-2.758a2.758 2.758 0 0 0 2.758 2.758v-2a.758.758 0 0 1-.758-.758h-2zm2.758-2.757a2.758 2.758 0 0 0-2.758 2.758h2c0-.419.34-.758.758-.758v-2zm56.484 0h-2.824v2h2.824v-2zm.037 5.515c3.611-.133 3.614-5.38 0-5.515l-.074 2a.759.759 0 0 1 0 1.516l.074 1.999zm-2.861 0h2.824v-2h-2.824v2zm-2.758-2.758a2.758 2.758 0 0 0 2.758 2.758v-2a.758.758 0 0 1-.758-.758h-2zm2.758-2.757a2.758 2.758 0 0 0-2.758 2.758h2c0-.419.34-.758.758-.758v-2zm-5.521 18.755c-2.646-2.457-6.363 1.247-3.9 3.9l1.466-1.362a.759.759 0 0 1 1.073-1.072l1.36-1.466zm2.023 2.023-1.997-1.997-1.414 1.414 1.997 1.997 1.414-1.414zm0 3.9a2.758 2.758 0 0 0 0-3.9l-1.414 1.414a.758.758 0 0 1 0 1.072l1.414 1.414zm-3.9 0a2.758 2.758 0 0 0 3.9 0l-1.414-1.415a.758.758 0 0 1-1.072 0l-1.414 1.415zm-1.997-1.997 1.997 1.997 1.414-1.415-1.996-1.996-1.415 1.414zm-36.528-.489 1.997-1.997-1.414-1.414-1.997 1.997 1.414 1.414zm0 1.072a.758.758 0 0 1 0-1.072L8.09 39.758a2.758 2.758 0 0 0 0 3.9l1.414-1.414zm1.072 0a.758.758 0 0 1-1.072 0L8.09 43.658a2.758 2.758 0 0 0 3.9 0l-1.414-1.414zm1.997-1.997-1.997 1.997 1.414 1.414 1.997-1.997-1.414-1.414zM11.473 39.2a.759.759 0 0 1 1.073 1.072l1.465 1.362c2.46-2.648-1.248-6.361-3.899-3.9l1.361 1.466zm24.184-11.684 3.316-3.315-1.415-1.414-3.315 3.315 1.414 1.414zm-5.665 8.275c4.797.064 8.042-5.195 5.847-9.441l-1.777.918c1.501 2.904-.754 6.567-4.043 6.523l-.027 2zm-6.51-6.523a6.53 6.53 0 0 0 6.524 6.523v-2a4.53 4.53 0 0 1-4.524-4.523h-2zm9.442-5.833c-4.247-2.196-9.505 1.05-9.442 5.846l2-.027c-.043-3.288 3.62-5.544 6.523-4.043l.919-1.776zm2.663-3.649-3.83 3.83 1.414 1.414 3.83-3.83-1.414-1.414zm1.95-.808c-.731 0-1.433.29-1.95.808l1.414 1.414a.758.758 0 0 1 .536-.222v-2zm12.034 0H37.537v2h12.034v-2zm-38.137 1.114c2.58-22.496 34.556-22.51 37.144 0l1.987-.228c-2.86-24.876-38.267-24.856-41.118 0l1.987.228zm10.312-1.114H10.44v2h11.306v-2zm2.609-3.022-3.316 3.315 1.414 1.414 3.316-3.315-1.414-1.414zm5.664-8.275c-4.797-.064-8.041 5.195-5.846 9.441l1.777-.918c-1.501-2.903.754-6.567 4.043-6.523l.026-2zm6.51 6.524a6.53 6.53 0 0 0-6.523-6.524v2a4.53 4.53 0 0 1 4.523 4.524h2zm-9.44 5.832c4.246 2.196 9.504-1.05 9.44-5.846l-2 .027c.044 3.288-3.619 5.544-6.522 4.043l-.919 1.776zm-2.664 3.649 3.83-3.83-1.415-1.414-3.83 3.83 1.415 1.414zm-1.95.808c.731 0 1.433-.29 1.95-.808l-1.415-1.414a.758.758 0 0 1-.535.222v2zm-12.033 0h12.033v-2H10.442v2zM17.53 35.52a18.416 18.416 0 0 1-6.092-12.116l-1.992.18a20.416 20.416 0 0 0 6.756 13.432l1.328-1.496zm4.044 7.646a13.026 13.026 0 0 0-4.029-7.632l-1.358 1.469a11.025 11.025 0 0 1 3.41 6.458l1.977-.295zm17.942-.848a1.992 1.992 0 0 0-.082-.004H20.578a2.09 2.09 0 0 0-.127.009l.269 1.982c-.06.006-.124.009-.127.009h-.003 18.831s.001 0 0 0h-.002l-.082-.004.179-1.992zm2.951-6.784a13.025 13.025 0 0 0-4.03 7.632l1.979.295a11.025 11.025 0 0 1 3.409-6.459l-1.358-1.468zm6.107-12.13a18.415 18.415 0 0 1-6.092 12.116l1.328 1.496a20.415 20.415 0 0 0 6.756-13.432l-1.992-.18zm-10.309 1.09H49.57v-2H38.265v2zm1-1h-2 2zM19.718 48.838c0 5.01 3.597 9.19 8.342 10.102l.378-1.964c-3.823-.735-6.72-4.106-6.72-8.138h-2zm0-2.008v2.008h2V46.83h-2zm19.578-1H20.718v2h18.578v-2zm1 3.008V46.83h-2v2.008h2zM31.954 58.94c4.745-.912 8.342-5.091 8.342-10.102h-2c0 4.032-2.897 7.403-6.72 8.138l.378 1.964zm-4.703-1.046c-.06.932.228 1.732.786 2.298a2.76 2.76 0 0 0 1.97.809c.7 0 1.428-.259 1.97-.81.558-.566.846-1.366.786-2.297l-1.996.129c.028.43-.102.65-.215.765a.763.763 0 0 1-.545.213.762.762 0 0 1-.545-.212c-.113-.115-.242-.336-.215-.767l-1.996-.128zm2.76-44.697a1.01 1.01 0 0 1 1.007 1.008h2a3.01 3.01 0 0 0-3.008-3.008v2zm.037 2.017c-1.377-.053-1.376-1.965 0-2.018l-.076-1.998c-3.943.15-3.94 5.865 0 6.014l.076-1.998zm.97-1.01a1.01 1.01 0 0 1-1.008 1.009v2a3.01 3.01 0 0 0 3.008-3.008h-2zm-4.017 15.064a3.01 3.01 0 0 0 3.008 3.008v-2A1.01 1.01 0 0 1 29 29.268h-2zm3.008-3.007A3.01 3.01 0 0 0 27 29.269h2a1.01 1.01 0 0 1 1.008-1.008v-2zm.038 6.015c3.943-.15 3.942-5.866 0-6.015l-.076 1.999c1.377.052 1.377 1.965 0 2.017l.076 1.999z" fill="url(#d)" fill-opacity=".6" mask="url(#e)"/><path d="m48.735.523-.68-.732-.014.012-.013.013.707.707zM46.74 2.52l.707.707-.707-.707zm4.482.49.707.706.013-.013.013-.013-.733-.68zm-1.997 1.996-.707-.707.707.707zm-2.485 0-.708.707.708-.707zM13.279 2.52l.732-.68L14 1.826l-.013-.013-.707.707zm-2.486 2.486-.707.707.013.013.013.013.68-.733zm.489-4.482.707-.708-.707.708zm-2.486 0L8.09-.184l.707.708zm0 2.485-.707.708.707-.708zM4.59 19.98l.037-.999H4.59v1zm0 3.516v1h.037l-.037-1zm53.66-3.515.037-1h-.037v1zm0 3.515v1h.037l-.037-1zm-9.026 14.973.707-.707-.013-.013-.013-.013-.68.733zm-2.486 2.486-.732.68.012.014.013.013.707-.707zm4.483 1.997-.707-.708.707.708zm-2.486 0 .707-.708-.707.708zM8.796 40.465l.707.707-.707-.707zm1.997-1.997-.68-.733-.014.013-.013.013.707.707zm-1.997 4.483-.707.707.707-.707zm2.486 0-.707-.707.707.707zm1.997-1.997.707.707.013-.013.012-.013-.732-.681zM34.95 26.81l-.707-.707-.517.517.336.65.888-.46zm3.315-3.315.708.707.292-.293v-.414h-1zm-8.26 11.297.014-1h-.013v1zm-5.523-5.523h1v-.014l-1 .014zm7.982-4.945-.459.888.65.336.516-.517-.707-.707zm3.83-3.83.707.707-.707-.707zm13.277-.515v1h1.122l-.128-1.114-.994.114zm-39.13 0-.994-.114-.128 1.114h1.121v-1zm11.305 0v1h.415l.292-.293-.707-.707zm3.316-3.315.707.707.517-.517-.336-.65-.888.46zm4.944-7.982-.013 1h.013v-1zm5.523 5.524h-1v.013l1-.013zm-7.982 4.944.46-.888-.65-.336-.517.517.707.707zm-3.83 3.83-.707-.707.707.707zm-13.275.515v-1H9.347l.099 1.09.996-.09zm6.424 12.774.679-.734-.007-.007-.008-.007-.664.748zm3.72 7.046-.99.147.146.976.978-.133-.135-.99zm18.84 0-.089.996.94.084.139-.933-.99-.147zm3.72-7.046-.664-.748-.008.007-.007.007.679.734zm6.424-12.774.996.09.098-1.09H49.57v1zm-11.305 0v-1h-1v1h1zM28.25 57.958l.998.064.057-.88-.866-.166-.189.982zM20.718 46.83v-1h-1v1h1zm18.578 0h1v-1h-1v1zm-7.531 11.128-.189-.982-.866.167.057.88.998-.065zM30.01 12.197v-1h-.038l.038 1zm0 4.016-.037 1h.038v-1zm-.001 15.063v1h.038l-.038-1zm0-4.015.038-1h-.038v1zM48.029-.184 46.03 1.813l1.415 1.414 1.996-1.996-1.414-1.415zm3.925 3.874c2.46-2.649-1.25-6.36-3.9-3.9l1.362 1.466a.759.759 0 0 1 1.073 1.073l1.465 1.361zM49.93 5.713l1.997-1.997-1.414-1.414L48.517 4.3l1.414 1.414zm-3.9 0a2.758 2.758 0 0 0 3.9 0L48.517 4.3a.758.758 0 0 1-1.071 0L46.03 5.713zm0-3.9a2.758 2.758 0 0 0 0 3.9L47.446 4.3a.758.758 0 0 1 0-1.072L46.03 1.813zM12.546 3.201a.759.759 0 0 1-1.072 1.073l-1.362 1.465c2.646 2.458 6.363-1.247 3.9-3.9l-1.466 1.362zm-1.971-1.97 1.997 1.996 1.414-1.414-1.997-1.997-1.414 1.415zm-1.072 0a.758.758 0 0 1 1.072 0l1.414-1.415a2.758 2.758 0 0 0-3.9 0l1.414 1.415zm0 1.071a.758.758 0 0 1 0-1.071L8.09-.184a2.758 2.758 0 0 0 0 3.9l1.414-1.414zM11.5 4.3 9.503 2.302 8.09 3.717l1.997 1.996L11.5 4.3zM4.59 18.98H1.766v2H4.59v-2zm.037 5.516c3.61-.133 3.615-5.38 0-5.515l-.074 2a.759.759 0 0 1 0 1.516l.074 1.999zm-2.861 0H4.59v-2H1.766v2zm-2.758-2.758a2.758 2.758 0 0 0 2.758 2.758v-2a.758.758 0 0 1-.758-.758h-2zm2.758-2.757a2.758 2.758 0 0 0-2.758 2.758h2c0-.419.34-.758.758-.758v-2zm56.484 0h-2.824v2h2.824v-2zm.037 5.515c3.611-.133 3.614-5.38 0-5.515l-.074 2a.759.759 0 0 1 0 1.516l.074 1.999zm-2.861 0h2.824v-2h-2.824v2zm-2.758-2.758a2.758 2.758 0 0 0 2.758 2.758v-2a.758.758 0 0 1-.758-.758h-2zm2.758-2.757a2.758 2.758 0 0 0-2.758 2.758h2c0-.419.34-.758.758-.758v-2zm-5.521 18.755c-2.646-2.457-6.363 1.247-3.9 3.9l1.466-1.362a.759.759 0 0 1 1.073-1.072l1.36-1.466zm2.023 2.023-1.997-1.997-1.414 1.414 1.997 1.997 1.414-1.414zm0 3.9a2.758 2.758 0 0 0 0-3.9l-1.414 1.414a.758.758 0 0 1 0 1.072l1.414 1.414zm-3.9 0a2.758 2.758 0 0 0 3.9 0l-1.414-1.415a.758.758 0 0 1-1.072 0l-1.414 1.415zm-1.997-1.997 1.997 1.997 1.414-1.415-1.996-1.996-1.415 1.414zm-36.528-.489 1.997-1.997-1.414-1.414-1.997 1.997 1.414 1.414zm0 1.072a.758.758 0 0 1 0-1.072L8.09 39.758a2.758 2.758 0 0 0 0 3.9l1.414-1.414zm1.072 0a.758.758 0 0 1-1.072 0L8.09 43.658a2.758 2.758 0 0 0 3.9 0l-1.414-1.414zm1.997-1.997-1.997 1.997 1.414 1.414 1.997-1.997-1.414-1.414zM11.473 39.2a.759.759 0 0 1 1.073 1.072l1.465 1.362c2.46-2.648-1.248-6.361-3.899-3.9l1.361 1.466zm24.184-11.684 3.316-3.315-1.415-1.414-3.315 3.315 1.414 1.414zm-5.665 8.275c4.797.064 8.042-5.195 5.847-9.441l-1.777.918c1.501 2.904-.754 6.567-4.043 6.523l-.027 2zm-6.51-6.523a6.53 6.53 0 0 0 6.524 6.523v-2a4.53 4.53 0 0 1-4.524-4.523h-2zm9.442-5.833c-4.247-2.196-9.505 1.05-9.442 5.846l2-.027c-.043-3.288 3.62-5.544 6.523-4.043l.919-1.776zm2.663-3.649-3.83 3.83 1.414 1.414 3.83-3.83-1.414-1.414zm1.95-.808c-.731 0-1.433.29-1.95.808l1.414 1.414a.758.758 0 0 1 .536-.222v-2zm12.034 0H37.537v2h12.034v-2zm-38.137 1.114c2.58-22.496 34.556-22.51 37.144 0l1.987-.228c-2.86-24.876-38.267-24.856-41.118 0l1.987.228zm10.312-1.114H10.44v2h11.306v-2zm2.609-3.022-3.316 3.315 1.414 1.414 3.316-3.315-1.414-1.414zm5.664-8.275c-4.797-.064-8.041 5.195-5.846 9.441l1.777-.918c-1.501-2.903.754-6.567 4.043-6.523l.026-2zm6.51 6.524a6.53 6.53 0 0 0-6.523-6.524v2a4.53 4.53 0 0 1 4.523 4.524h2zm-9.44 5.832c4.246 2.196 9.504-1.05 9.44-5.846l-2 .027c.044 3.288-3.619 5.544-6.522 4.043l-.919 1.776zm-2.664 3.649 3.83-3.83-1.415-1.414-3.83 3.83 1.415 1.414zm-1.95.808c.731 0 1.433-.29 1.95-.808l-1.415-1.414a.758.758 0 0 1-.535.222v2zm-12.033 0h12.033v-2H10.442v2zM17.53 35.52a18.416 18.416 0 0 1-6.092-12.116l-1.992.18a20.416 20.416 0 0 0 6.756 13.432l1.328-1.496zm4.044 7.646a13.026 13.026 0 0 0-4.029-7.632l-1.358 1.469a11.025 11.025 0 0 1 3.41 6.458l1.977-.295zm17.942-.848a1.992 1.992 0 0 0-.082-.004H20.578a2.09 2.09 0 0 0-.127.009l.269 1.982c-.06.006-.124.009-.127.009h-.003 18.831s.001 0 0 0h-.002l-.082-.004.179-1.992zm2.951-6.784a13.025 13.025 0 0 0-4.03 7.632l1.979.295a11.025 11.025 0 0 1 3.409-6.459l-1.358-1.468zm6.107-12.13a18.415 18.415 0 0 1-6.092 12.116l1.328 1.496a20.415 20.415 0 0 0 6.756-13.432l-1.992-.18zm-10.309 1.09H49.57v-2H38.265v2zm1-1h-2 2zM19.718 48.838c0 5.01 3.597 9.19 8.342 10.102l.378-1.964c-3.823-.735-6.72-4.106-6.72-8.138h-2zm0-2.008v2.008h2V46.83h-2zm19.578-1H20.718v2h18.578v-2zm1 3.008V46.83h-2v2.008h2zM31.954 58.94c4.745-.912 8.342-5.091 8.342-10.102h-2c0 4.032-2.897 7.403-6.72 8.138l.378 1.964zm-4.703-1.046c-.06.932.228 1.732.786 2.298a2.76 2.76 0 0 0 1.97.809c.7 0 1.428-.259 1.97-.81.558-.566.846-1.366.786-2.297l-1.996.129c.028.43-.102.65-.215.765a.763.763 0 0 1-.545.213.762.762 0 0 1-.545-.212c-.113-.115-.242-.336-.215-.767l-1.996-.128zm2.76-44.697a1.01 1.01 0 0 1 1.007 1.008h2a3.01 3.01 0 0 0-3.008-3.008v2zm.037 2.017c-1.377-.053-1.376-1.965 0-2.018l-.076-1.998c-3.943.15-3.94 5.865 0 6.014l.076-1.998zm.97-1.01a1.01 1.01 0 0 1-1.008 1.009v2a3.01 3.01 0 0 0 3.008-3.008h-2zm-4.017 15.064a3.01 3.01 0 0 0 3.008 3.008v-2A1.01 1.01 0 0 1 29 29.268h-2zm3.008-3.007A3.01 3.01 0 0 0 27 29.269h2a1.01 1.01 0 0 1 1.008-1.008v-2zm.038 6.015c3.943-.15 3.942-5.866 0-6.015l-.076 1.999c1.377.052 1.377 1.965 0 2.017l.076 1.999z" fill="url(#f)" fill-opacity=".3" mask="url(#e)"/></g><defs><radialGradient id="d" cx="0" cy="0" r="1" gradientUnits="userSpaceOnUse" gradientTransform="matrix(0 52.0913 -52.0812 0 30.002 .545)"><stop stop-color="#fff"/><stop offset="1" stop-color="#fff" stop-opacity="0"/></radialGradient><radialGradient id="f" cx="0" cy="0" r="1" gradientUnits="userSpaceOnUse" gradientTransform="matrix(0 -30.0002 29.9944 0 30.002 60)"><stop stop-color="#fff"/><stop offset="1" stop-color="#fff" stop-opacity="0"/></radialGradient><linearGradient id="c" x1="2.483" y1="1.545" x2="30.759" y2="74.137" gradientUnits="userSpaceOnUse"><stop stop-color="#fff" stop-opacity=".6"/><stop offset="1" stop-color="#fff" stop-opacity="0"/></linearGradient><clipPath id="a"><path fill="#fff" d="M0 0h60v60H0z"/></clipPath><filter id="b" x="-499.992" y="-500" width="1059.99" height="1060" filterUnits="userSpaceOnUse" color-interpolation-filters="sRGB"><feFlood flood-opacity="0" result="BackgroundImageFix"/><feGaussianBlur in="BackgroundImageFix" stdDeviation="250"/><feComposite in2="SourceAlpha" operator="in" result="effect1_backgroundBlur_8462_42778"/><feColorMatrix in="SourceAlpha" values="0 0 0 0 0 0 0 0 0 0 0 0 0 0 0 0 0 0 127 0" result="hardAlpha"/><feOffset dy="2"/><feGaussianBlur stdDeviation="1"/><feComposite in2="hardAlpha" operator="out"/><feColorMatrix values="0 0 0 0 0 0 0 0 0 0 0 0 0 0 0 0 0 0 0.25 0"/><feBlend in2="effect1_backgroundBlur_8462_42778" result="effect2_dropShadow_8462_42778"/><feBlend in="SourceGraphic" in2="effect2_dropShadow_8462_42778" result="shape"/></filter></defs></svg>