<svg xmlns="http://www.w3.org/2000/svg" width="60" height="60" fill="none"><g filter="url(#b)" clip-path="url(#a)"><mask id="e" fill="#fff"><path fill-rule="evenodd" clip-rule="evenodd" d="M45.723 10.492c.27.244.469.556.577.903a2.046 2.046 0 0 1-.453 2.016l-5.305 5.68 1.131 7.054a2.05 2.05 0 0 1-2.95 2.152l-6.675-3.384-6.675 3.384a2.05 2.05 0 0 1-2.951-2.152l1.13-7.053-5.303-5.682a2.05 2.05 0 0 1 1.075-3.405l7.132-1.503 3.826-6.47a2.129 2.129 0 0 1 3.528 0l3.828 6.47 7.13 1.503c.357.075.686.243.955.487zm9.904 29.865a2.464 2.464 0 0 1-.84 1.64l-16.55 14.799c-.439.38-.999.59-1.58.594H21.306a2.393 2.393 0 0 1-1.251-.348l-4.407-2.706V43.123l4.591-2.91c.38-.243.821-.371 1.271-.37h16.42a2.375 2.375 0 0 1 2.358 2.378 2.307 2.307 0 0 1-.615 1.579l-.369.348c-.404.28-.883.43-1.373.431H26.86a2.05 2.05 0 0 0 0 4.1h11.07a6.462 6.462 0 0 0 4.591-1.906l9.192-8.382a2.473 2.473 0 0 1 1.722-.573 2.386 2.386 0 0 1 2.194 2.541l-.002-.002zM9.17 38.408H3.346a2.05 2.05 0 0 0-2.05 2.05v16.4a2.05 2.05 0 0 0 2.05 2.05H9.17a2.05 2.05 0 0 0 2.05-2.05v-16.4a2.05 2.05 0 0 0-2.05-2.05zm2.376-21.587h-4.1a2.05 2.05 0 0 1 0-4.1h4.1a2.05 2.05 0 0 1 0 4.1zm1.068-8.894a2.05 2.05 0 0 0 1.74-3.711l-3.713-1.74a2.05 2.05 0 0 0-1.74 3.712l3.713 1.739zM9.772 27.26a2.049 2.049 0 0 1-.87-3.905l3.712-1.74a2.05 2.05 0 0 1 1.74 3.711l-3.712 1.74a2.04 2.04 0 0 1-.87.194zm42.774-10.44h4.1a2.05 2.05 0 0 0 0-4.1h-4.1a2.05 2.05 0 0 0 0 4.1zm-1.936-8.7a2.05 2.05 0 0 1-.873-3.906l3.712-1.74a2.05 2.05 0 0 1 1.742 3.713l-3.713 1.74a2.044 2.044 0 0 1-.868.193zm2.84 18.946a2.047 2.047 0 0 0 2.152-.256 2.05 2.05 0 0 0-.41-3.456l-3.713-1.74a2.05 2.05 0 1 0-1.741 3.712l3.711 1.74z"/></mask><path fill-rule="evenodd" clip-rule="evenodd" d="M45.723 10.492c.27.244.469.556.577.903a2.046 2.046 0 0 1-.453 2.016l-5.305 5.68 1.131 7.054a2.05 2.05 0 0 1-2.95 2.152l-6.675-3.384-6.675 3.384a2.05 2.05 0 0 1-2.951-2.152l1.13-7.053-5.303-5.682a2.05 2.05 0 0 1 1.075-3.405l7.132-1.503 3.826-6.47a2.129 2.129 0 0 1 3.528 0l3.828 6.47 7.13 1.503c.357.075.686.243.955.487zm9.904 29.865a2.464 2.464 0 0 1-.84 1.64l-16.55 14.799c-.439.38-.999.59-1.58.594H21.306a2.393 2.393 0 0 1-1.251-.348l-4.407-2.706V43.123l4.591-2.91c.38-.243.821-.371 1.271-.37h16.42a2.375 2.375 0 0 1 2.358 2.378 2.307 2.307 0 0 1-.615 1.579l-.369.348c-.404.28-.883.43-1.373.431H26.86a2.05 2.05 0 0 0 0 4.1h11.07a6.462 6.462 0 0 0 4.591-1.906l9.192-8.382a2.473 2.473 0 0 1 1.722-.573 2.386 2.386 0 0 1 2.194 2.541l-.002-.002zM9.17 38.408H3.346a2.05 2.05 0 0 0-2.05 2.05v16.4a2.05 2.05 0 0 0 2.05 2.05H9.17a2.05 2.05 0 0 0 2.05-2.05v-16.4a2.05 2.05 0 0 0-2.05-2.05zm2.376-21.587h-4.1a2.05 2.05 0 0 1 0-4.1h4.1a2.05 2.05 0 0 1 0 4.1zm1.068-8.894a2.05 2.05 0 0 0 1.74-3.711l-3.713-1.74a2.05 2.05 0 0 0-1.74 3.712l3.713 1.739zM9.772 27.26a2.049 2.049 0 0 1-.87-3.905l3.712-1.74a2.05 2.05 0 0 1 1.74 3.711l-3.712 1.74a2.04 2.04 0 0 1-.87.194zm42.774-10.44h4.1a2.05 2.05 0 0 0 0-4.1h-4.1a2.05 2.05 0 0 0 0 4.1zm-1.936-8.7a2.05 2.05 0 0 1-.873-3.906l3.712-1.74a2.05 2.05 0 0 1 1.742 3.713l-3.713 1.74a2.044 2.044 0 0 1-.868.193zm2.84 18.946a2.047 2.047 0 0 0 2.152-.256 2.05 2.05 0 0 0-.41-3.456l-3.713-1.74a2.05 2.05 0 1 0-1.741 3.712l3.711 1.74z" fill="url(#c)" fill-opacity=".8" shape-rendering="crispEdges"/><path fill-rule="evenodd" clip-rule="evenodd" d="M45.723 10.492c.27.244.469.556.577.903a2.046 2.046 0 0 1-.453 2.016l-5.305 5.68 1.131 7.054a2.05 2.05 0 0 1-2.95 2.152l-6.675-3.384-6.675 3.384a2.05 2.05 0 0 1-2.951-2.152l1.13-7.053-5.303-5.682a2.05 2.05 0 0 1 1.075-3.405l7.132-1.503 3.826-6.47a2.129 2.129 0 0 1 3.528 0l3.828 6.47 7.13 1.503c.357.075.686.243.955.487zm9.904 29.865a2.464 2.464 0 0 1-.84 1.64l-16.55 14.799c-.439.38-.999.59-1.58.594H21.306a2.393 2.393 0 0 1-1.251-.348l-4.407-2.706V43.123l4.591-2.91c.38-.243.821-.371 1.271-.37h16.42a2.375 2.375 0 0 1 2.358 2.378 2.307 2.307 0 0 1-.615 1.579l-.369.348c-.404.28-.883.43-1.373.431H26.86a2.05 2.05 0 0 0 0 4.1h11.07a6.462 6.462 0 0 0 4.591-1.906l9.192-8.382a2.473 2.473 0 0 1 1.722-.573 2.386 2.386 0 0 1 2.194 2.541l-.002-.002zM9.17 38.408H3.346a2.05 2.05 0 0 0-2.05 2.05v16.4a2.05 2.05 0 0 0 2.05 2.05H9.17a2.05 2.05 0 0 0 2.05-2.05v-16.4a2.05 2.05 0 0 0-2.05-2.05zm2.376-21.587h-4.1a2.05 2.05 0 0 1 0-4.1h4.1a2.05 2.05 0 0 1 0 4.1zm1.068-8.894a2.05 2.05 0 0 0 1.74-3.711l-3.713-1.74a2.05 2.05 0 0 0-1.74 3.712l3.713 1.739zM9.772 27.26a2.049 2.049 0 0 1-.87-3.905l3.712-1.74a2.05 2.05 0 0 1 1.74 3.711l-3.712 1.74a2.04 2.04 0 0 1-.87.194zm42.774-10.44h4.1a2.05 2.05 0 0 0 0-4.1h-4.1a2.05 2.05 0 0 0 0 4.1zm-1.936-8.7a2.05 2.05 0 0 1-.873-3.906l3.712-1.74a2.05 2.05 0 0 1 1.742 3.713l-3.713 1.74a2.044 2.044 0 0 1-.868.193zm2.84 18.946a2.047 2.047 0 0 0 2.152-.256 2.05 2.05 0 0 0-.41-3.456l-3.713-1.74a2.05 2.05 0 1 0-1.741 3.712l3.711 1.74z" fill="#344254" fill-opacity=".15" shape-rendering="crispEdges"/><path d="m46.3 11.395-.715.224v.003l.715-.227zm-.577-.903.504-.555-.504.555zm.624 1.972.732.165-.732-.165zm-.5.947.548.511-.548-.511zm-5.305 5.68-.548-.511-.25.268.058.363.74-.12zm1.131 7.054.74-.119-.74.119zm-.816 1.98.442.605-.442-.606zm-1.043.386.06.748-.06-.748zm-1.091-.214-.34.669.34-.67zm-6.675-3.384.339-.669-.34-.171-.338.171.339.67zm-6.675 3.384-.34-.67.34.67zm-1.092.215.06-.748-.06.748zm-1.043-.387-.442.605.442-.605zm-.687-.875-.694.285.694-.285zm-.13-1.105-.74-.119.74.119zm1.13-7.053.741.118.058-.362-.25-.268-.548.512zM18.25 13.41l-.549.512.549-.512zm-.501-.946.731-.165-.731.165zm.044-1.07-.715-.226.715.226zm.578-.901-.504-.556.504.556zm.954-.488-.155-.734.155.734zm7.132-1.503.154.734.323-.068.168-.284-.645-.382zm3.826-6.47-.621-.42-.013.018-.011.02.645.382zm.765-.689.352.663-.352-.663zm1.998 0 .352-.662-.352.662zm.765.689.646-.382-.012-.02-.012-.018-.622.42zm3.828 6.47-.645.382.168.284.322.068.155-.734zm7.13 1.503-.154.734h.001l.154-.734zm10.02 31.993-.492-.567-.009.007.5.56zm.84-1.64.657-.36-1.182-2.162-.223 2.454.747.067zM38.236 56.795l.492.566.008-.007-.5-.56zm-1.578.594v.75h.004l-.004-.75zm-15.354 0v-.75h-.002l.003.75zm-1.25-.348-.392.639.002.001.39-.64zm-4.407-2.706h-.75v.42l.357.219.393-.64zm0-11.213-.402-.633-.348.22v.413h.75zm4.591-2.91.402.633.002-.002-.404-.632zm1.271-.37-.002.75h.002v-.75zm16.42 0 .006-.75h-.006v.75zm1.67.703.532-.528-.532.528zm.688 1.675h-.75v.004l.75-.004zm-.615 1.579.515.545.018-.017.017-.019-.55-.51zm-.369.348.427.617.047-.033.04-.039-.514-.545zm-1.373.431v.75h.002l-.003-.75zm-11.07 0v-.75h-.007l.007.75zm-1.437.608-.533-.528.533.528zm0 2.885.533-.528-.533.528zm1.437.607-.007.75h.007v-.75zm11.07 0v-.75.75zm2.486-.494.288.693-.288-.693zm2.105-1.412-.505-.554-.014.012-.013.013.532.529zm9.192-8.382-.482-.574-.012.01-.011.01.505.554zm1.722-.573.058-.748h-.009l-.009-.001-.04.749zm1.62.82.567-.49-.568.49zm.574 1.721-.658.36 1.23 2.25.176-2.558-.748-.052zM7.447 16.821l-.008.75h.008v-.75zm4.099 0v.75h.007l-.007-.75zm-5.536-.607-.533.528.533-.528zm0-2.885-.533-.528.533.527zm1.437-.608v-.75h-.008l.008.75zm4.099 0 .007-.75h-.007v.75zm1.437.607-.533.528.533-.527zm0 2.886-.533-.528.533.528zm.5-8.093v-.75.75zm-.869-.194.32-.679h-.002l-.318.679zm2.151-.256-.469-.585.47.585zm.72-1.154.731.164-.732-.164zm-.162-1.35-.673.331.673-.33zm-.97-.952.32-.679h-.001l-.318.68zm-3.712-1.74.318-.679-.318.68zm-.776-.19-.034.748.034-.749zm-.791.12.255.705-.255-.706zm-.685.413-.505-.554.505.554zm-.474.644.68.318-.68-.318zm-.191.777.749.034-.75-.034zm.12.79-.705.256.705-.256zm1.058 1.16-.318.678.318-.679zM8.49 26.81l-.47.585.47-.585zm1.282.45v-.75.75zm-2.001-1.604.732-.163-.732.163zm1.13-2.302.319.68-.318-.68zm3.713-1.74-.313-.68-.005.002.318.679zm1.561-.062.258-.704-.258.704zm1.152 1.055.68-.318-.68.318zm-.973 2.72.318.679.005-.003-.323-.677zm-3.712 1.74-.319-.68.319.68zM56.645 16.82v.75h.007l-.007-.75zm-4.1 0-.007.75h.007v-.75zm4.1-4.1.007-.75h-.007v.75zm-4.1 0v-.75h-.007l.007.75zm-1.936-4.6v-.75.75zm-2.002-1.603.732-.164-.732.164zm.16-1.35.673.33-.673-.33zm.97-.953-.319-.679.319.68zm3.711-1.74.318.68-.318-.68zm1.568-.072-.255.706.255-.706zm.174 3.785.318.679-.318-.68zm-3.713 1.74-.318-.68.318.68zm2.84 19.333v-.75.75zm-.869-.194.319-.679-.319.679zm2.153-.256-.469-.585.469.585zm.72-1.153-.733-.163.733.163zm-.16-1.35-.674.33.673-.33zm-.97-.953.319-.678-.32.678zm-3.713-1.74-.318.68.318-.68zm-1.567-.071.255.705-.255-.705zm-1.16 1.057-.678-.319.679.319zm.986 2.726-.319.68.319-.68zM47.016 11.17c-.149-.474-.42-.9-.789-1.233l-1.008 1.11c.17.155.297.352.366.572l1.431-.449zm.063 1.458a2.796 2.796 0 0 0-.064-1.461l-1.43.455c.07.22.08.453.03.678l1.464.328zm-.683 1.294c.338-.363.574-.81.683-1.293l-1.464-.33c-.05.225-.16.432-.316.6l1.097 1.023zm-5.306 5.682 5.305-5.681-1.096-1.024-5.305 5.681 1.096 1.024zm1.324 6.422-1.131-7.053-1.481.238 1.13 7.052 1.482-.237zm-.177 1.51a2.8 2.8 0 0 0 .177-1.51l-1.481.237a1.3 1.3 0 0 1-.082.7l1.386.572zM41.3 28.73a2.8 2.8 0 0 0 .938-1.195l-1.386-.571a1.3 1.3 0 0 1-.436.554l.884 1.212zm-1.425.529a2.8 2.8 0 0 0 1.425-.529l-.884-1.212a1.3 1.3 0 0 1-.661.246l.12 1.495zm-1.49-.293a2.8 2.8 0 0 0 1.49.293l-.12-1.495a1.3 1.3 0 0 1-.692-.136l-.678 1.338zm-6.675-3.384 6.674 3.384.679-1.338-6.675-3.384-.678 1.338zm-5.997 3.384 6.675-3.384-.678-1.338-6.675 3.384.678 1.338zm-1.491.293c.514.042 1.03-.06 1.49-.294l-.678-1.337a1.3 1.3 0 0 1-.692.136l-.12 1.495zm-1.425-.529c.417.305.91.488 1.425.53l.12-1.496a1.3 1.3 0 0 1-.661-.245l-.884 1.212zm-.939-1.195a2.8 2.8 0 0 0 .939 1.195l.884-1.211a1.3 1.3 0 0 1-.436-.555l-1.387.572zm-.176-1.509c-.081.51-.02 1.032.176 1.51l1.387-.572a1.3 1.3 0 0 1-.082-.7l-1.48-.238zm1.13-7.053-1.13 7.053 1.481.237 1.13-7.053-1.48-.237zm-5.11-5.05 5.302 5.68L24.1 18.58l-5.303-5.681-1.097 1.023zm-.685-1.293c.11.483.346.93.684 1.292l1.097-1.023a1.301 1.301 0 0 1-.318-.6l-1.463.33zm.061-1.462a2.8 2.8 0 0 0-.06 1.462l1.462-.332a1.3 1.3 0 0 1 .029-.678l-1.43-.452zm.79-1.23a2.8 2.8 0 0 0-.79 1.23l1.43.452a1.3 1.3 0 0 1 .367-.572l-1.008-1.11zm1.302-.667a2.8 2.8 0 0 0-1.303.666l1.008 1.111c.17-.155.38-.261.605-.309l-.31-1.468zM26.3 7.768l-7.132 1.503.31 1.468 7.131-1.503-.31-1.468zm3.336-6.118L25.81 8.12l1.291.764 3.827-6.47-1.291-.764zM30.696.68a2.88 2.88 0 0 0-1.035.93l1.242.84a1.38 1.38 0 0 1 .496-.445L30.696.68zm1.35-.336c-.47 0-.934.115-1.35.336l.703 1.325c.2-.106.422-.161.647-.161v-1.5zm1.35.336a2.88 2.88 0 0 0-1.35-.336v1.5c.226 0 .448.055.647.16l.704-1.324zm1.036.93a2.88 2.88 0 0 0-1.035-.93l-.704 1.325c.2.106.37.259.496.446l1.243-.84zm3.852 6.509-3.828-6.47-1.291.764 3.828 6.47 1.29-.764zm6.64 1.151-7.131-1.503-.31 1.468 7.131 1.503.31-1.468zm1.303.666a2.794 2.794 0 0 0-1.304-.666l-.308 1.468c.225.047.434.154.604.308l1.008-1.11zm9.051 32.627a3.214 3.214 0 0 0 1.096-2.139l-1.494-.135c-.04.441-.249.85-.584 1.14l.982 1.134zm-16.542 14.79 16.551-14.797-1-1.119-16.55 14.798 1 1.119zm-2.074.786a3.178 3.178 0 0 0 2.066-.778l-.983-1.133c-.303.263-.69.409-1.091.411l.008 1.5zm-15.357 0h15.353v-1.5H21.304v1.5zm-1.64-.458c.494.301 1.063.46 1.642.458l-.005-1.5c-.302 0-.6-.082-.858-.24l-.78 1.282zm-4.41-2.707 4.407 2.706.785-1.279-4.408-2.706-.785 1.279zm-.359-11.852v11.213h1.5V43.123h-1.5zm4.94-3.544-4.591 2.91.803 1.268 4.592-2.911-.803-1.267zm1.675-.486a3.103 3.103 0 0 0-1.676.487l.807 1.264c.258-.164.559-.252.866-.25l.003-1.5zm16.418 0H21.51v1.5h16.42v-1.5zm2.202.925a3.125 3.125 0 0 0-2.196-.925l-.011 1.5c.43.003.84.176 1.142.481l1.065-1.056zm.906 2.204c0-.825-.325-1.618-.906-2.204l-1.065 1.056c.302.305.471.717.471 1.146l1.5.002zm-.815 2.087a3.057 3.057 0 0 0 .815-2.091l-1.5.007c.002.394-.147.775-.415 1.065l1.1 1.02zm-.404.384.369-.348-1.03-1.09-.369.348 1.03 1.09zm-1.886.636a3.176 3.176 0 0 0 1.798-.564l-.854-1.234c-.279.193-.61.297-.949.298l.005 1.5zm-11.072 0h11.07v-1.5H26.86v1.5zm-.904.385a1.3 1.3 0 0 1 .91-.385l-.013-1.5a2.8 2.8 0 0 0-1.963.83l1.066 1.055zm-.377.915a1.3 1.3 0 0 1 .377-.915L24.89 44.66a2.8 2.8 0 0 0-.81 1.97h1.5zm.377.915a1.3 1.3 0 0 1-.377-.915h-1.5a2.8 2.8 0 0 0 .81 1.97l1.067-1.055zm.91.385a1.3 1.3 0 0 1-.91-.385L24.89 48.6a2.8 2.8 0 0 0 1.963.83l.014-1.5zm11.063 0H26.86v1.5h11.07v-1.5zm2.2-.436a5.713 5.713 0 0 1-2.198.436l-.002 1.5a7.212 7.212 0 0 0 2.775-.551l-.575-1.385zm1.86-1.249a5.713 5.713 0 0 1-1.86 1.249l.575 1.385a7.212 7.212 0 0 0 2.35-1.577l-1.065-1.057zm9.219-8.407-9.192 8.382 1.01 1.108 9.192-8.381-1.01-1.109zm2.267-.768a3.223 3.223 0 0 0-2.244.748l.963 1.15c.335-.281.764-.424 1.2-.4l.081-1.498zm2.147 1.078a3.136 3.136 0 0 0-2.129-1.077l-.117 1.495c.43.034.83.236 1.11.562l1.136-.98zm.755 2.264a3.136 3.136 0 0 0-.755-2.264l-1.135.98c.281.327.423.751.393 1.181l1.497.103zm-1.408.306.002.002 1.316-.72-.002-.002-1.316.72zM3.346 39.158H9.17v-1.5H3.346v1.5zm-1.3 1.3a1.3 1.3 0 0 1 1.3-1.3v-1.5a2.8 2.8 0 0 0-2.8 2.8h1.5zm0 16.4v-16.4h-1.5v16.4h1.5zm1.3 1.3a1.3 1.3 0 0 1-1.3-1.3h-1.5a2.8 2.8 0 0 0 2.8 2.8v-1.5zm5.824 0H3.346v1.5H9.17v-1.5zm1.3-1.3a1.3 1.3 0 0 1-1.3 1.3v1.5a2.8 2.8 0 0 0 2.8-2.8h-1.5zm0-16.4v16.4h1.5v-16.4h-1.5zm-1.3-1.3a1.3 1.3 0 0 1 1.3 1.3h1.5a2.8 2.8 0 0 0-2.8-2.8v1.5zM7.447 17.571h4.099v-1.5h-4.1v1.5zm-1.97-.83a2.8 2.8 0 0 0 1.962.83l.015-1.5a1.3 1.3 0 0 1-.912-.385l-1.065 1.056zm-.811-1.97a2.8 2.8 0 0 0 .81 1.97l1.066-1.055a1.3 1.3 0 0 1-.376-.915h-1.5zm.81-1.97a2.8 2.8 0 0 0-.81 1.97h1.5a1.3 1.3 0 0 1 .376-.915l-1.065-1.055zm1.963-.83a2.8 2.8 0 0 0-1.962.83l1.065 1.055a1.3 1.3 0 0 1 .912-.385l-.015-1.5zm4.107 0h-4.1v1.5h4.1v-1.5zm1.97.83a2.8 2.8 0 0 0-1.963-.83l-.014 1.5a1.3 1.3 0 0 1 .911.385l1.066-1.055zm.81 1.97a2.8 2.8 0 0 0-.81-1.97l-1.066 1.055a1.3 1.3 0 0 1 .377.915h1.5zm-.81 1.97a2.8 2.8 0 0 0 .81-1.97h-1.5a1.3 1.3 0 0 1-.376.915l1.066 1.056zm-1.963.83a2.8 2.8 0 0 0 1.963-.83l-1.066-1.055a1.3 1.3 0 0 1-.911.385l.014 1.5zm1.93-10.2c-.19 0-.377-.042-.55-.123l-.638 1.357c.371.175.777.266 1.188.266v-1.5zm.813-.285a1.3 1.3 0 0 1-.813.285v1.5a2.8 2.8 0 0 0 1.751-.615l-.938-1.17zm.456-.732a1.3 1.3 0 0 1-.456.732l.938 1.17a2.8 2.8 0 0 0 .982-1.575l-1.464-.327zm-.102-.856a1.3 1.3 0 0 1 .102.856l1.464.327a2.8 2.8 0 0 0-.22-1.844l-1.346.661zm-.615-.604a1.3 1.3 0 0 1 .615.604l1.346-.66a2.8 2.8 0 0 0-1.324-1.302l-.637 1.358zm-3.712-1.74 3.712 1.74.637-1.358-3.713-1.74-.636 1.359zm-.492-.12a1.3 1.3 0 0 1 .492.12l.636-1.358a2.8 2.8 0 0 0-1.06-.261L9.83 3.033zm-.502.076a1.3 1.3 0 0 1 .502-.077l.068-1.498a2.8 2.8 0 0 0-1.08.164l.51 1.41zm-.434.262a1.3 1.3 0 0 1 .434-.262L8.82 1.7a2.8 2.8 0 0 0-.935.564l1.011 1.108zm-.3.408a1.3 1.3 0 0 1 .3-.408L7.884 2.264a2.8 2.8 0 0 0-.648.88l1.358.636zm-.122.493a1.3 1.3 0 0 1 .121-.493l-1.358-.636a2.8 2.8 0 0 0-.261 1.06l1.498.069zm.076.501a1.3 1.3 0 0 1-.076-.501l-1.498-.068a2.8 2.8 0 0 0 .164 1.08l1.41-.51zm.263.434a1.3 1.3 0 0 1-.263-.434l-1.41.51a2.8 2.8 0 0 0 .565.936l1.108-1.012zm.408.3a1.3 1.3 0 0 1-.408-.3L7.704 6.22a2.8 2.8 0 0 0 .88.647L9.22 5.51zm3.712 1.74L9.22 5.508l-.636 1.36 3.712 1.738.636-1.358zM8.021 27.396a2.8 2.8 0 0 0 1.752.615l-.001-1.5a1.3 1.3 0 0 1-.813-.285l-.938 1.17zm-.982-1.576a2.8 2.8 0 0 0 .982 1.576l.938-1.17a1.3 1.3 0 0 1-.456-.732l-1.464.326zm.22-1.843a2.8 2.8 0 0 0-.22 1.843l1.464-.326a1.3 1.3 0 0 1 .102-.856l-1.346-.661zm1.325-1.3a2.8 2.8 0 0 0-1.325 1.3l1.346.661a1.3 1.3 0 0 1 .615-.603l-.636-1.359zm3.712-1.74-3.712 1.74.636 1.358 3.713-1.74-.637-1.358zm2.137-.088a2.8 2.8 0 0 0-2.132.085l.627 1.363a1.3 1.3 0 0 1 .99-.04l.515-1.408zm1.573 1.44a2.8 2.8 0 0 0-1.573-1.44l-.515 1.408a1.3 1.3 0 0 1 .73.67l1.358-.637zm.101 2.132a2.8 2.8 0 0 0-.1-2.131l-1.36.636a1.3 1.3 0 0 1 .048.99l1.412.505zm-1.43 1.583a2.8 2.8 0 0 0 1.43-1.583l-1.412-.505a1.3 1.3 0 0 1-.664.735l.646 1.353zm-3.717 1.742 3.712-1.74-.636-1.358-3.713 1.74.637 1.358zm-1.188.265c.411 0 .817-.09 1.189-.265l-.639-1.358a1.29 1.29 0 0 1-.55.123v1.5zm46.874-11.94h-4.1v1.5h4.1v-1.5zm.904-.385a1.3 1.3 0 0 1-.911.385l.014 1.5a2.8 2.8 0 0 0 1.963-.83l-1.066-1.055zm.377-.915a1.3 1.3 0 0 1-.377.915l1.066 1.056a2.8 2.8 0 0 0 .81-1.97h-1.5zm-.377-.915a1.3 1.3 0 0 1 .377.915h1.5a2.8 2.8 0 0 0-.811-1.97l-1.066 1.055zm-.911-.385a1.3 1.3 0 0 1 .911.385l1.066-1.055a2.8 2.8 0 0 0-1.963-.83l-.014 1.5zm-4.093 0h4.1v-1.5h-4.1v1.5zm-.904.385a1.3 1.3 0 0 1 .911-.385l-.014-1.5a2.8 2.8 0 0 0-1.963.83l1.066 1.055zm-.376.915a1.3 1.3 0 0 1 .376-.915l-1.066-1.055a2.8 2.8 0 0 0-.81 1.97h1.5zm.376.915a1.3 1.3 0 0 1-.376-.915h-1.5a2.8 2.8 0 0 0 .81 1.97l1.066-1.055zm.911.385a1.3 1.3 0 0 1-.911-.385l-1.066 1.056a2.8 2.8 0 0 0 1.963.83l.014-1.5zM48.86 8.257a2.8 2.8 0 0 0 1.752.614l-.001-1.5a1.3 1.3 0 0 1-.814-.285l-.937 1.17zm-.983-1.575a2.8 2.8 0 0 0 .983 1.575l.937-1.171a1.3 1.3 0 0 1-.456-.732l-1.464.328zm.219-1.844a2.8 2.8 0 0 0-.219 1.844l1.464-.328a1.3 1.3 0 0 1 .101-.856l-1.346-.66zm1.324-1.302a2.8 2.8 0 0 0-1.324 1.302l1.346.66a1.3 1.3 0 0 1 .615-.604l-.637-1.358zm3.712-1.74-3.712 1.74.637 1.358 3.711-1.74-.636-1.358zm2.14-.098a2.8 2.8 0 0 0-2.14.098l.637 1.358a1.3 1.3 0 0 1 .994-.045l.51-1.411zm1.584 1.444a2.8 2.8 0 0 0-1.583-1.444l-.51 1.41a1.3 1.3 0 0 1 .735.671l1.358-.637zm.099 2.141a2.8 2.8 0 0 0-.099-2.14l-1.358.636a1.3 1.3 0 0 1 .046.995l1.41.51zm-1.445 1.584a2.8 2.8 0 0 0 1.445-1.584l-1.411-.51a1.3 1.3 0 0 1-.67.736l.636 1.358zm-3.712 1.74 3.712-1.74-.636-1.358-3.713 1.74.637 1.358zm-1.187.264c.41 0 .815-.09 1.187-.264l-.637-1.359c-.172.081-.36.123-.55.123v1.5zm3.709 17.64c-.19 0-.379-.042-.551-.123l-.637 1.358c.371.174.776.265 1.187.265v-1.5zm.814-.285c-.23.184-.518.285-.814.285l-.002 1.5c.637 0 1.256-.216 1.754-.614l-.938-1.171zm.456-.731a1.3 1.3 0 0 1-.456.731l.938 1.171a2.8 2.8 0 0 0 .982-1.575l-1.463-.327zm-.101-.856a1.3 1.3 0 0 1 .102.856l1.463.327a2.8 2.8 0 0 0-.218-1.844l-1.347.66zm-.615-.605a1.3 1.3 0 0 1 .615.605l1.347-.661a2.8 2.8 0 0 0-1.324-1.302l-.638 1.358zm-3.712-1.74 3.713 1.74.636-1.358-3.712-1.74-.637 1.359zm-.994-.045a1.3 1.3 0 0 1 .994.046l.637-1.358a2.8 2.8 0 0 0-2.14-.099l.509 1.411zm-.735.67a1.3 1.3 0 0 1 .735-.67l-.51-1.41a2.8 2.8 0 0 0-1.583 1.443l1.358.637zm-.046.994a1.3 1.3 0 0 1 .046-.994l-1.358-.637a2.8 2.8 0 0 0-.099 2.14l1.41-.509zm.67.735a1.3 1.3 0 0 1-.67-.735l-1.41.51a2.8 2.8 0 0 0 1.443 1.583l.637-1.358zm3.712 1.74-3.712-1.74-.637 1.358 3.712 1.74.637-1.358z" fill="url(#d)" fill-opacity=".6" mask="url(#e)"/><path d="m46.3 11.395-.715.224v.003l.715-.227zm-.577-.903.504-.555-.504.555zm.624 1.972.732.165-.732-.165zm-.5.947.548.511-.548-.511zm-5.305 5.68-.548-.511-.25.268.058.363.74-.12zm1.131 7.054.74-.119-.74.119zm-.816 1.98.442.605-.442-.606zm-1.043.386.06.748-.06-.748zm-1.091-.214-.34.669.34-.67zm-6.675-3.384.339-.669-.34-.171-.338.171.339.67zm-6.675 3.384-.34-.67.34.67zm-1.092.215.06-.748-.06.748zm-1.043-.387-.442.605.442-.605zm-.687-.875-.694.285.694-.285zm-.13-1.105-.74-.119.74.119zm1.13-7.053.741.118.058-.362-.25-.268-.548.512zM18.25 13.41l-.549.512.549-.512zm-.501-.946.731-.165-.731.165zm.044-1.07-.715-.226.715.226zm.578-.901-.504-.556.504.556zm.954-.488-.155-.734.155.734zm7.132-1.503.154.734.323-.068.168-.284-.645-.382zm3.826-6.47-.621-.42-.013.018-.011.02.645.382zm.765-.689.352.663-.352-.663zm1.998 0 .352-.662-.352.662zm.765.689.646-.382-.012-.02-.012-.018-.622.42zm3.828 6.47-.645.382.168.284.322.068.155-.734zm7.13 1.503-.154.734h.001l.154-.734zm10.02 31.993-.492-.567-.009.007.5.56zm.84-1.64.657-.36-1.182-2.162-.223 2.454.747.067zM38.236 56.795l.492.566.008-.007-.5-.56zm-1.578.594v.75h.004l-.004-.75zm-15.354 0v-.75h-.002l.003.75zm-1.25-.348-.392.639.002.001.39-.64zm-4.407-2.706h-.75v.42l.357.219.393-.64zm0-11.213-.402-.633-.348.22v.413h.75zm4.591-2.91.402.633.002-.002-.404-.632zm1.271-.37-.002.75h.002v-.75zm16.42 0 .006-.75h-.006v.75zm1.67.703.532-.528-.532.528zm.688 1.675h-.75v.004l.75-.004zm-.615 1.579.515.545.018-.017.017-.019-.55-.51zm-.369.348.427.617.047-.033.04-.039-.514-.545zm-1.373.431v.75h.002l-.003-.75zm-11.07 0v-.75h-.007l.007.75zm-1.437.608-.533-.528.533.528zm0 2.885.533-.528-.533.528zm1.437.607-.007.75h.007v-.75zm11.07 0v-.75.75zm2.486-.494.288.693-.288-.693zm2.105-1.412-.505-.554-.014.012-.013.013.532.529zm9.192-8.382-.482-.574-.012.01-.011.01.505.554zm1.722-.573.058-.748h-.009l-.009-.001-.04.749zm1.62.82.567-.49-.568.49zm.574 1.721-.658.36 1.23 2.25.176-2.558-.748-.052zM7.447 16.821l-.008.75h.008v-.75zm4.099 0v.75h.007l-.007-.75zm-5.536-.607-.533.528.533-.528zm0-2.885-.533-.528.533.527zm1.437-.608v-.75h-.008l.008.75zm4.099 0 .007-.75h-.007v.75zm1.437.607-.533.528.533-.527zm0 2.886-.533-.528.533.528zm.5-8.093v-.75.75zm-.869-.194.32-.679h-.002l-.318.679zm2.151-.256-.469-.585.47.585zm.72-1.154.731.164-.732-.164zm-.162-1.35-.673.331.673-.33zm-.97-.952.32-.679h-.001l-.318.68zm-3.712-1.74.318-.679-.318.68zm-.776-.19-.034.748.034-.749zm-.791.12.255.705-.255-.706zm-.685.413-.505-.554.505.554zm-.474.644.68.318-.68-.318zm-.191.777.749.034-.75-.034zm.12.79-.705.256.705-.256zm1.058 1.16-.318.678.318-.679zM8.49 26.81l-.47.585.47-.585zm1.282.45v-.75.75zm-2.001-1.604.732-.163-.732.163zm1.13-2.302.319.68-.318-.68zm3.713-1.74-.313-.68-.005.002.318.679zm1.561-.062.258-.704-.258.704zm1.152 1.055.68-.318-.68.318zm-.973 2.72.318.679.005-.003-.323-.677zm-3.712 1.74-.319-.68.319.68zM56.645 16.82v.75h.007l-.007-.75zm-4.1 0-.007.75h.007v-.75zm4.1-4.1.007-.75h-.007v.75zm-4.1 0v-.75h-.007l.007.75zm-1.936-4.6v-.75.75zm-2.002-1.603.732-.164-.732.164zm.16-1.35.673.33-.673-.33zm.97-.953-.319-.679.319.68zm3.711-1.74.318.68-.318-.68zm1.568-.072-.255.706.255-.706zm.174 3.785.318.679-.318-.68zm-3.713 1.74-.318-.68.318.68zm2.84 19.333v-.75.75zm-.869-.194.319-.679-.319.679zm2.153-.256-.469-.585.469.585zm.72-1.153-.733-.163.733.163zm-.16-1.35-.674.33.673-.33zm-.97-.953.319-.678-.32.678zm-3.713-1.74-.318.68.318-.68zm-1.567-.071.255.705-.255-.705zm-1.16 1.057-.678-.319.679.319zm.986 2.726-.319.68.319-.68zM47.016 11.17c-.149-.474-.42-.9-.789-1.233l-1.008 1.11c.17.155.297.352.366.572l1.431-.449zm.063 1.458a2.796 2.796 0 0 0-.064-1.461l-1.43.455c.07.22.08.453.03.678l1.464.328zm-.683 1.294c.338-.363.574-.81.683-1.293l-1.464-.33c-.05.225-.16.432-.316.6l1.097 1.023zm-5.306 5.682 5.305-5.681-1.096-1.024-5.305 5.681 1.096 1.024zm1.324 6.422-1.131-7.053-1.481.238 1.13 7.052 1.482-.237zm-.177 1.51a2.8 2.8 0 0 0 .177-1.51l-1.481.237a1.3 1.3 0 0 1-.082.7l1.386.572zM41.3 28.73a2.8 2.8 0 0 0 .938-1.195l-1.386-.571a1.3 1.3 0 0 1-.436.554l.884 1.212zm-1.425.529a2.8 2.8 0 0 0 1.425-.529l-.884-1.212a1.3 1.3 0 0 1-.661.246l.12 1.495zm-1.49-.293a2.8 2.8 0 0 0 1.49.293l-.12-1.495a1.3 1.3 0 0 1-.692-.136l-.678 1.338zm-6.675-3.384 6.674 3.384.679-1.338-6.675-3.384-.678 1.338zm-5.997 3.384 6.675-3.384-.678-1.338-6.675 3.384.678 1.338zm-1.491.293c.514.042 1.03-.06 1.49-.294l-.678-1.337a1.3 1.3 0 0 1-.692.136l-.12 1.495zm-1.425-.529c.417.305.91.488 1.425.53l.12-1.496a1.3 1.3 0 0 1-.661-.245l-.884 1.212zm-.939-1.195a2.8 2.8 0 0 0 .939 1.195l.884-1.211a1.3 1.3 0 0 1-.436-.555l-1.387.572zm-.176-1.509c-.081.51-.02 1.032.176 1.51l1.387-.572a1.3 1.3 0 0 1-.082-.7l-1.48-.238zm1.13-7.053-1.13 7.053 1.481.237 1.13-7.053-1.48-.237zm-5.11-5.05 5.302 5.68L24.1 18.58l-5.303-5.681-1.097 1.023zm-.685-1.293c.11.483.346.93.684 1.292l1.097-1.023a1.301 1.301 0 0 1-.318-.6l-1.463.33zm.061-1.462a2.8 2.8 0 0 0-.06 1.462l1.462-.332a1.3 1.3 0 0 1 .029-.678l-1.43-.452zm.79-1.23a2.8 2.8 0 0 0-.79 1.23l1.43.452a1.3 1.3 0 0 1 .367-.572l-1.008-1.11zm1.302-.667a2.8 2.8 0 0 0-1.303.666l1.008 1.111c.17-.155.38-.261.605-.309l-.31-1.468zM26.3 7.768l-7.132 1.503.31 1.468 7.131-1.503-.31-1.468zm3.336-6.118L25.81 8.12l1.291.764 3.827-6.47-1.291-.764zM30.696.68a2.88 2.88 0 0 0-1.035.93l1.242.84a1.38 1.38 0 0 1 .496-.445L30.696.68zm1.35-.336c-.47 0-.934.115-1.35.336l.703 1.325c.2-.106.422-.161.647-.161v-1.5zm1.35.336a2.88 2.88 0 0 0-1.35-.336v1.5c.226 0 .448.055.647.16l.704-1.324zm1.036.93a2.88 2.88 0 0 0-1.035-.93l-.704 1.325c.2.106.37.259.496.446l1.243-.84zm3.852 6.509-3.828-6.47-1.291.764 3.828 6.47 1.29-.764zm6.64 1.151-7.131-1.503-.31 1.468 7.131 1.503.31-1.468zm1.303.666a2.794 2.794 0 0 0-1.304-.666l-.308 1.468c.225.047.434.154.604.308l1.008-1.11zm9.051 32.627a3.214 3.214 0 0 0 1.096-2.139l-1.494-.135c-.04.441-.249.85-.584 1.14l.982 1.134zm-16.542 14.79 16.551-14.797-1-1.119-16.55 14.798 1 1.119zm-2.074.786a3.178 3.178 0 0 0 2.066-.778l-.983-1.133c-.303.263-.69.409-1.091.411l.008 1.5zm-15.357 0h15.353v-1.5H21.304v1.5zm-1.64-.458c.494.301 1.063.46 1.642.458l-.005-1.5c-.302 0-.6-.082-.858-.24l-.78 1.282zm-4.41-2.707 4.407 2.706.785-1.279-4.408-2.706-.785 1.279zm-.359-11.852v11.213h1.5V43.123h-1.5zm4.94-3.544-4.591 2.91.803 1.268 4.592-2.911-.803-1.267zm1.675-.486a3.103 3.103 0 0 0-1.676.487l.807 1.264c.258-.164.559-.252.866-.25l.003-1.5zm16.418 0H21.51v1.5h16.42v-1.5zm2.202.925a3.125 3.125 0 0 0-2.196-.925l-.011 1.5c.43.003.84.176 1.142.481l1.065-1.056zm.906 2.204c0-.825-.325-1.618-.906-2.204l-1.065 1.056c.302.305.471.717.471 1.146l1.5.002zm-.815 2.087a3.057 3.057 0 0 0 .815-2.091l-1.5.007c.002.394-.147.775-.415 1.065l1.1 1.02zm-.404.384.369-.348-1.03-1.09-.369.348 1.03 1.09zm-1.886.636a3.176 3.176 0 0 0 1.798-.564l-.854-1.234c-.279.193-.61.297-.949.298l.005 1.5zm-11.072 0h11.07v-1.5H26.86v1.5zm-.904.385a1.3 1.3 0 0 1 .91-.385l-.013-1.5a2.8 2.8 0 0 0-1.963.83l1.066 1.055zm-.377.915a1.3 1.3 0 0 1 .377-.915L24.89 44.66a2.8 2.8 0 0 0-.81 1.97h1.5zm.377.915a1.3 1.3 0 0 1-.377-.915h-1.5a2.8 2.8 0 0 0 .81 1.97l1.067-1.055zm.91.385a1.3 1.3 0 0 1-.91-.385L24.89 48.6a2.8 2.8 0 0 0 1.963.83l.014-1.5zm11.063 0H26.86v1.5h11.07v-1.5zm2.2-.436a5.713 5.713 0 0 1-2.198.436l-.002 1.5a7.212 7.212 0 0 0 2.775-.551l-.575-1.385zm1.86-1.249a5.713 5.713 0 0 1-1.86 1.249l.575 1.385a7.212 7.212 0 0 0 2.35-1.577l-1.065-1.057zm9.219-8.407-9.192 8.382 1.01 1.108 9.192-8.381-1.01-1.109zm2.267-.768a3.223 3.223 0 0 0-2.244.748l.963 1.15c.335-.281.764-.424 1.2-.4l.081-1.498zm2.147 1.078a3.136 3.136 0 0 0-2.129-1.077l-.117 1.495c.43.034.83.236 1.11.562l1.136-.98zm.755 2.264a3.136 3.136 0 0 0-.755-2.264l-1.135.98c.281.327.423.751.393 1.181l1.497.103zm-1.408.306.002.002 1.316-.72-.002-.002-1.316.72zM3.346 39.158H9.17v-1.5H3.346v1.5zm-1.3 1.3a1.3 1.3 0 0 1 1.3-1.3v-1.5a2.8 2.8 0 0 0-2.8 2.8h1.5zm0 16.4v-16.4h-1.5v16.4h1.5zm1.3 1.3a1.3 1.3 0 0 1-1.3-1.3h-1.5a2.8 2.8 0 0 0 2.8 2.8v-1.5zm5.824 0H3.346v1.5H9.17v-1.5zm1.3-1.3a1.3 1.3 0 0 1-1.3 1.3v1.5a2.8 2.8 0 0 0 2.8-2.8h-1.5zm0-16.4v16.4h1.5v-16.4h-1.5zm-1.3-1.3a1.3 1.3 0 0 1 1.3 1.3h1.5a2.8 2.8 0 0 0-2.8-2.8v1.5zM7.447 17.571h4.099v-1.5h-4.1v1.5zm-1.97-.83a2.8 2.8 0 0 0 1.962.83l.015-1.5a1.3 1.3 0 0 1-.912-.385l-1.065 1.056zm-.811-1.97a2.8 2.8 0 0 0 .81 1.97l1.066-1.055a1.3 1.3 0 0 1-.376-.915h-1.5zm.81-1.97a2.8 2.8 0 0 0-.81 1.97h1.5a1.3 1.3 0 0 1 .376-.915l-1.065-1.055zm1.963-.83a2.8 2.8 0 0 0-1.962.83l1.065 1.055a1.3 1.3 0 0 1 .912-.385l-.015-1.5zm4.107 0h-4.1v1.5h4.1v-1.5zm1.97.83a2.8 2.8 0 0 0-1.963-.83l-.014 1.5a1.3 1.3 0 0 1 .911.385l1.066-1.055zm.81 1.97a2.8 2.8 0 0 0-.81-1.97l-1.066 1.055a1.3 1.3 0 0 1 .377.915h1.5zm-.81 1.97a2.8 2.8 0 0 0 .81-1.97h-1.5a1.3 1.3 0 0 1-.376.915l1.066 1.056zm-1.963.83a2.8 2.8 0 0 0 1.963-.83l-1.066-1.055a1.3 1.3 0 0 1-.911.385l.014 1.5zm1.93-10.2c-.19 0-.377-.042-.55-.123l-.638 1.357c.371.175.777.266 1.188.266v-1.5zm.813-.285a1.3 1.3 0 0 1-.813.285v1.5a2.8 2.8 0 0 0 1.751-.615l-.938-1.17zm.456-.732a1.3 1.3 0 0 1-.456.732l.938 1.17a2.8 2.8 0 0 0 .982-1.575l-1.464-.327zm-.102-.856a1.3 1.3 0 0 1 .102.856l1.464.327a2.8 2.8 0 0 0-.22-1.844l-1.346.661zm-.615-.604a1.3 1.3 0 0 1 .615.604l1.346-.66a2.8 2.8 0 0 0-1.324-1.302l-.637 1.358zm-3.712-1.74 3.712 1.74.637-1.358-3.713-1.74-.636 1.359zm-.492-.12a1.3 1.3 0 0 1 .492.12l.636-1.358a2.8 2.8 0 0 0-1.06-.261L9.83 3.033zm-.502.076a1.3 1.3 0 0 1 .502-.077l.068-1.498a2.8 2.8 0 0 0-1.08.164l.51 1.41zm-.434.262a1.3 1.3 0 0 1 .434-.262L8.82 1.7a2.8 2.8 0 0 0-.935.564l1.011 1.108zm-.3.408a1.3 1.3 0 0 1 .3-.408L7.884 2.264a2.8 2.8 0 0 0-.648.88l1.358.636zm-.122.493a1.3 1.3 0 0 1 .121-.493l-1.358-.636a2.8 2.8 0 0 0-.261 1.06l1.498.069zm.076.501a1.3 1.3 0 0 1-.076-.501l-1.498-.068a2.8 2.8 0 0 0 .164 1.08l1.41-.51zm.263.434a1.3 1.3 0 0 1-.263-.434l-1.41.51a2.8 2.8 0 0 0 .565.936l1.108-1.012zm.408.3a1.3 1.3 0 0 1-.408-.3L7.704 6.22a2.8 2.8 0 0 0 .88.647L9.22 5.51zm3.712 1.74L9.22 5.508l-.636 1.36 3.712 1.738.636-1.358zM8.021 27.396a2.8 2.8 0 0 0 1.752.615l-.001-1.5a1.3 1.3 0 0 1-.813-.285l-.938 1.17zm-.982-1.576a2.8 2.8 0 0 0 .982 1.576l.938-1.17a1.3 1.3 0 0 1-.456-.732l-1.464.326zm.22-1.843a2.8 2.8 0 0 0-.22 1.843l1.464-.326a1.3 1.3 0 0 1 .102-.856l-1.346-.661zm1.325-1.3a2.8 2.8 0 0 0-1.325 1.3l1.346.661a1.3 1.3 0 0 1 .615-.603l-.636-1.359zm3.712-1.74-3.712 1.74.636 1.358 3.713-1.74-.637-1.358zm2.137-.088a2.8 2.8 0 0 0-2.132.085l.627 1.363a1.3 1.3 0 0 1 .99-.04l.515-1.408zm1.573 1.44a2.8 2.8 0 0 0-1.573-1.44l-.515 1.408a1.3 1.3 0 0 1 .73.67l1.358-.637zm.101 2.132a2.8 2.8 0 0 0-.1-2.131l-1.36.636a1.3 1.3 0 0 1 .048.99l1.412.505zm-1.43 1.583a2.8 2.8 0 0 0 1.43-1.583l-1.412-.505a1.3 1.3 0 0 1-.664.735l.646 1.353zm-3.717 1.742 3.712-1.74-.636-1.358-3.713 1.74.637 1.358zm-1.188.265c.411 0 .817-.09 1.189-.265l-.639-1.358a1.29 1.29 0 0 1-.55.123v1.5zm46.874-11.94h-4.1v1.5h4.1v-1.5zm.904-.385a1.3 1.3 0 0 1-.911.385l.014 1.5a2.8 2.8 0 0 0 1.963-.83l-1.066-1.055zm.377-.915a1.3 1.3 0 0 1-.377.915l1.066 1.056a2.8 2.8 0 0 0 .81-1.97h-1.5zm-.377-.915a1.3 1.3 0 0 1 .377.915h1.5a2.8 2.8 0 0 0-.811-1.97l-1.066 1.055zm-.911-.385a1.3 1.3 0 0 1 .911.385l1.066-1.055a2.8 2.8 0 0 0-1.963-.83l-.014 1.5zm-4.093 0h4.1v-1.5h-4.1v1.5zm-.904.385a1.3 1.3 0 0 1 .911-.385l-.014-1.5a2.8 2.8 0 0 0-1.963.83l1.066 1.055zm-.376.915a1.3 1.3 0 0 1 .376-.915l-1.066-1.055a2.8 2.8 0 0 0-.81 1.97h1.5zm.376.915a1.3 1.3 0 0 1-.376-.915h-1.5a2.8 2.8 0 0 0 .81 1.97l1.066-1.055zm.911.385a1.3 1.3 0 0 1-.911-.385l-1.066 1.056a2.8 2.8 0 0 0 1.963.83l.014-1.5zM48.86 8.257a2.8 2.8 0 0 0 1.752.614l-.001-1.5a1.3 1.3 0 0 1-.814-.285l-.937 1.17zm-.983-1.575a2.8 2.8 0 0 0 .983 1.575l.937-1.171a1.3 1.3 0 0 1-.456-.732l-1.464.328zm.219-1.844a2.8 2.8 0 0 0-.219 1.844l1.464-.328a1.3 1.3 0 0 1 .101-.856l-1.346-.66zm1.324-1.302a2.8 2.8 0 0 0-1.324 1.302l1.346.66a1.3 1.3 0 0 1 .615-.604l-.637-1.358zm3.712-1.74-3.712 1.74.637 1.358 3.711-1.74-.636-1.358zm2.14-.098a2.8 2.8 0 0 0-2.14.098l.637 1.358a1.3 1.3 0 0 1 .994-.045l.51-1.411zm1.584 1.444a2.8 2.8 0 0 0-1.583-1.444l-.51 1.41a1.3 1.3 0 0 1 .735.671l1.358-.637zm.099 2.141a2.8 2.8 0 0 0-.099-2.14l-1.358.636a1.3 1.3 0 0 1 .046.995l1.41.51zm-1.445 1.584a2.8 2.8 0 0 0 1.445-1.584l-1.411-.51a1.3 1.3 0 0 1-.67.736l.636 1.358zm-3.712 1.74 3.712-1.74-.636-1.358-3.713 1.74.637 1.358zm-1.187.264c.41 0 .815-.09 1.187-.264l-.637-1.359c-.172.081-.36.123-.55.123v1.5zm3.709 17.64c-.19 0-.379-.042-.551-.123l-.637 1.358c.371.174.776.265 1.187.265v-1.5zm.814-.285c-.23.184-.518.285-.814.285l-.002 1.5c.637 0 1.256-.216 1.754-.614l-.938-1.171zm.456-.731a1.3 1.3 0 0 1-.456.731l.938 1.171a2.8 2.8 0 0 0 .982-1.575l-1.463-.327zm-.101-.856a1.3 1.3 0 0 1 .102.856l1.463.327a2.8 2.8 0 0 0-.218-1.844l-1.347.66zm-.615-.605a1.3 1.3 0 0 1 .615.605l1.347-.661a2.8 2.8 0 0 0-1.324-1.302l-.638 1.358zm-3.712-1.74 3.713 1.74.636-1.358-3.712-1.74-.637 1.359zm-.994-.045a1.3 1.3 0 0 1 .994.046l.637-1.358a2.8 2.8 0 0 0-2.14-.099l.509 1.411zm-.735.67a1.3 1.3 0 0 1 .735-.67l-.51-1.41a2.8 2.8 0 0 0-1.583 1.443l1.358.637zm-.046.994a1.3 1.3 0 0 1 .046-.994l-1.358-.637a2.8 2.8 0 0 0-.099 2.14l1.41-.509zm.67.735a1.3 1.3 0 0 1-.67-.735l-1.41.51a2.8 2.8 0 0 0 1.443 1.583l.637-1.358zm3.712 1.74-3.712-1.74-.637 1.358 3.712 1.74.637-1.358z" fill="url(#f)" fill-opacity=".3" mask="url(#e)"/></g><defs><radialGradient id="d" cx="0" cy="0" r="1" gradientUnits="userSpaceOnUse" gradientTransform="matrix(0 50.1919 -49.816 0 29.987 1.62)"><stop stop-color="#fff"/><stop offset="1" stop-color="#fff" stop-opacity="0"/></radialGradient><radialGradient id="f" cx="0" cy="0" r="1" gradientUnits="userSpaceOnUse" gradientTransform="matrix(0 -28.9063 28.6898 0 29.987 58.907)"><stop stop-color="#fff"/><stop offset="1" stop-color="#fff" stop-opacity="0"/></radialGradient><linearGradient id="c" x1="3.664" y1="2.584" x2="31.056" y2="72.393" gradientUnits="userSpaceOnUse"><stop stop-color="#fff" stop-opacity=".6"/><stop offset="1" stop-color="#fff" stop-opacity="0"/></linearGradient><clipPath id="a"><path fill="#fff" d="M0 0h60v60H0z"/></clipPath><filter id="b" x="-373.703" y="-373.905" width="807.383" height="807.813" filterUnits="userSpaceOnUse" color-interpolation-filters="sRGB"><feFlood flood-opacity="0" result="BackgroundImageFix"/><feGaussianBlur in="BackgroundImageFix" stdDeviation="187.5"/><feComposite in2="SourceAlpha" operator="in" result="effect1_backgroundBlur_8462_42678"/><feColorMatrix in="SourceAlpha" values="0 0 0 0 0 0 0 0 0 0 0 0 0 0 0 0 0 0 127 0" result="hardAlpha"/><feOffset dy="1.5"/><feGaussianBlur stdDeviation=".75"/><feComposite in2="hardAlpha" operator="out"/><feColorMatrix values="0 0 0 0 0 0 0 0 0 0 0 0 0 0 0 0 0 0 0.25 0"/><feBlend in2="effect1_backgroundBlur_8462_42678" result="effect2_dropShadow_8462_42678"/><feBlend in="SourceGraphic" in2="effect2_dropShadow_8462_42678" result="shape"/></filter></defs></svg>