<svg xmlns="http://www.w3.org/2000/svg" width="60" height="60" fill="none"><g filter="url(#a)"><mask id="d" fill="#fff"><path fill-rule="evenodd" clip-rule="evenodd" d="m7.5 31.578 3.837-3.288c.833-8.242 7.628-14.73 15.99-15.125L24.6 9.985a.934.934 0 0 1 0-1.219l2.655-3.141C14.725 6.068 4.544 15.993 3.75 28.432l3.75 3.146zm48.342 18.267L51.958 47.2a1.875 1.875 0 0 0-1.055-.325h-2.695a26.35 26.35 0 0 1-10.392 7.5h13.087c.377 0 .744-.113 1.055-.325l3.884-2.645a.944.944 0 0 0 0-1.56zM29.836 13.212 26.55 9.376l3.146-3.751c12.438.794 22.363 10.975 22.806 23.506l-3.14-2.654a.934.934 0 0 0-1.22 0l-3.18 2.726c-.394-8.363-6.883-15.158-15.125-15.991zM6.89 33.525l-3.104-2.66A24.247 24.247 0 0 0 8.937 45h11.49a16.87 16.87 0 0 1-9.123-14.215l-3.196 2.74a.933.933 0 0 1-1.22 0zm19.6 13.35 3.214 3.75-3.214 3.75H5.625A1.875 1.875 0 0 1 3.75 52.5v-3.75c0-1.036.84-1.875 1.875-1.875h20.864zm22.26-18.451-3.836 3.288c-.834 8.241-7.629 14.73-15.991 15.123l2.726 3.181c.303.35.303.87 0 1.22l-2.653 3.14c12.53-.444 22.631-10.368 23.425-22.806l-3.67-3.146zM16.875 30c0-6.213 5.037-11.25 11.25-11.25s11.25 5.037 11.25 11.25-5.037 11.25-11.25 11.25-11.25-5.037-11.25-11.25zm11.116 5.17 5.625-9.375a.937.937 0 1 0-1.607-.965l-5.007 8.346-2.902-2.901a.937.937 0 1 0-1.325 1.325l3.75 3.75a.938.938 0 0 0 1.466-.18z"/></mask><path fill-rule="evenodd" clip-rule="evenodd" d="m7.5 31.578 3.837-3.288c.833-8.242 7.628-14.73 15.99-15.125L24.6 9.985a.934.934 0 0 1 0-1.219l2.655-3.141C14.725 6.068 4.544 15.993 3.75 28.432l3.75 3.146zm48.342 18.267L51.958 47.2a1.875 1.875 0 0 0-1.055-.325h-2.695a26.35 26.35 0 0 1-10.392 7.5h13.087c.377 0 .744-.113 1.055-.325l3.884-2.645a.944.944 0 0 0 0-1.56zM29.836 13.212 26.55 9.376l3.146-3.751c12.438.794 22.363 10.975 22.806 23.506l-3.14-2.654a.934.934 0 0 0-1.22 0l-3.18 2.726c-.394-8.363-6.883-15.158-15.125-15.991zM6.89 33.525l-3.104-2.66A24.247 24.247 0 0 0 8.937 45h11.49a16.87 16.87 0 0 1-9.123-14.215l-3.196 2.74a.933.933 0 0 1-1.22 0zm19.6 13.35 3.214 3.75-3.214 3.75H5.625A1.875 1.875 0 0 1 3.75 52.5v-3.75c0-1.036.84-1.875 1.875-1.875h20.864zm22.26-18.451-3.836 3.288c-.834 8.241-7.629 14.73-15.991 15.123l2.726 3.181c.303.35.303.87 0 1.22l-2.653 3.14c12.53-.444 22.631-10.368 23.425-22.806l-3.67-3.146zM16.875 30c0-6.213 5.037-11.25 11.25-11.25s11.25 5.037 11.25 11.25-5.037 11.25-11.25 11.25-11.25-5.037-11.25-11.25zm11.116 5.17 5.625-9.375a.937.937 0 1 0-1.607-.965l-5.007 8.346-2.902-2.901a.937.937 0 1 0-1.325 1.325l3.75 3.75a.938.938 0 0 0 1.466-.18z" fill="url(#b)" fill-opacity=".8" shape-rendering="crispEdges"/><path fill-rule="evenodd" clip-rule="evenodd" d="m7.5 31.578 3.837-3.288c.833-8.242 7.628-14.73 15.99-15.125L24.6 9.985a.934.934 0 0 1 0-1.219l2.655-3.141C14.725 6.068 4.544 15.993 3.75 28.432l3.75 3.146zm48.342 18.267L51.958 47.2a1.875 1.875 0 0 0-1.055-.325h-2.695a26.35 26.35 0 0 1-10.392 7.5h13.087c.377 0 .744-.113 1.055-.325l3.884-2.645a.944.944 0 0 0 0-1.56zM29.836 13.212 26.55 9.376l3.146-3.751c12.438.794 22.363 10.975 22.806 23.506l-3.14-2.654a.934.934 0 0 0-1.22 0l-3.18 2.726c-.394-8.363-6.883-15.158-15.125-15.991zM6.89 33.525l-3.104-2.66A24.247 24.247 0 0 0 8.937 45h11.49a16.87 16.87 0 0 1-9.123-14.215l-3.196 2.74a.933.933 0 0 1-1.22 0zm19.6 13.35 3.214 3.75-3.214 3.75H5.625A1.875 1.875 0 0 1 3.75 52.5v-3.75c0-1.036.84-1.875 1.875-1.875h20.864zm22.26-18.451-3.836 3.288c-.834 8.241-7.629 14.73-15.991 15.123l2.726 3.181c.303.35.303.87 0 1.22l-2.653 3.14c12.53-.444 22.631-10.368 23.425-22.806l-3.67-3.146zM16.875 30c0-6.213 5.037-11.25 11.25-11.25s11.25 5.037 11.25 11.25-5.037 11.25-11.25 11.25-11.25-5.037-11.25-11.25zm11.116 5.17 5.625-9.375a.937.937 0 1 0-1.607-.965l-5.007 8.346-2.902-2.901a.937.937 0 1 0-1.325 1.325l3.75 3.75a.938.938 0 0 0 1.466-.18z" fill="#344254" fill-opacity=".15" shape-rendering="crispEdges"/><path d="m11.337 28.29.488.57.228-.195.03-.3-.746-.075zM7.5 31.578l-.482.575.487.408.483-.413-.488-.57zm19.827-18.413.035.75 1.533-.073-.999-1.165-.57.488zM24.6 9.985l.57-.488-.002-.002-.568.49zm0-1.219.568.49.005-.006-.573-.484zm2.655-3.141.572.484 1.094-1.293-1.693.06.027.749zM3.75 28.432l-.748-.048-.025.379.291.244.482-.575zM51.958 47.2l.422-.62-.422.62zm3.884 2.645-.422.62.422-.62zm-7.634-2.97v-.75h-.35l-.224.267.574.483zm-10.392 7.5-.278-.697.278 1.447v-.75zm14.142-.325.422.62-.422-.62zm3.884-2.645-.422-.62.422.62zM26.55 9.375l-.575-.481-.409.487.414.483.57-.488zm3.287 3.837-.57.488.196.228.299.03.075-.746zm-.14-7.587.047-.748-.379-.025-.243.291.574.482zM52.5 29.131l-.484.572 1.294 1.094-.06-1.693-.75.027zm-3.14-2.654-.49.567.006.005.484-.572zm-1.22 0 .489.569.002-.002-.49-.567zm-3.18 2.726-.75.035.073 1.533 1.165-.999-.488-.57zM3.785 30.865l.488-.57-1.298-1.113.06 1.709.75-.026zm3.104 2.66.49-.568-.002-.002-.488.57zM8.937 45l-.59.462.224.288h.366V45zm11.49 0v.75l.344-1.417-.343.667zm-9.123-14.215.75-.035-.073-1.533-1.165.999.488.57zm-3.196 2.74-.488-.57-.002.002.49.568zm21.595 17.1.57.488.417-.488-.418-.488-.57.488zm-3.214-3.75.57-.488-.225-.262h-.345v.75zm0 7.5v.75h.345l.225-.262-.57-.488zm18.424-22.663-.488-.57-.228.196-.03.298.746.076zm3.836-3.288.488-.57-.488-.418-.488.418.488.57zM28.922 46.835l-.035-.749-1.533.072.998 1.166.57-.489zm2.726 3.181-.569.489.002.002.567-.49zm0 1.22-.567-.49-.005.006.572.484zm-2.653 3.14-.573-.484-1.093 1.293 1.692-.06-.026-.75zM52.42 31.57l.749.047.024-.373-.285-.244-.488.57zM32.01 24.83l-.643-.387v.001l.643.386zm-5.007 8.346-.53.53.679.68.494-.824-.643-.386zm.3 2.442.089.744h.001l-.09-.744zM10.849 27.72l-3.837 3.288.976 1.139 3.837-3.288-.976-1.14zm16.443-15.305c-8.735.412-15.831 7.188-16.702 15.799l1.493.15c.796-7.872 7.289-14.074 15.28-14.45l-.071-1.499zm-3.26-1.943 2.726 3.18 1.138-.976-2.725-3.18-1.14.976zm.002-2.197a1.684 1.684 0 0 0 0 2.2l1.135-.98a.184.184 0 0 1 0-.24l-1.135-.98zm2.649-3.135-2.655 3.14 1.146.97 2.654-3.142-1.145-.968zM4.498 28.48c.77-12.054 10.638-21.676 22.784-22.105l-.053-1.5C14.313 5.332 3.82 15.56 3.002 28.385l1.496.095zm3.484 2.523-3.75-3.146-.964 1.15 3.75 3.146.964-1.15zM51.536 47.82l3.884 2.645.844-1.24-3.884-2.645-.844 1.24zm-.633-.195c.226 0 .447.068.633.195l.844-1.24a2.625 2.625 0 0 0-1.477-.455v1.5zm-2.695 0h2.695v-1.5h-2.695v1.5zm-10.114 7.447a27.1 27.1 0 0 0 10.688-7.714l-1.148-.966a25.6 25.6 0 0 1-10.096 7.286l.556 1.394zm12.81-1.447H37.815v1.5h13.087v-1.5zm.632-.195a1.126 1.126 0 0 1-.633.195v1.5c.527 0 1.042-.159 1.477-.455l-.844-1.24zm3.884-2.645-3.884 2.645.844 1.24 3.884-2.645-.844-1.24zm0-.32a.194.194 0 0 1 0 .32l.844 1.24a1.694 1.694 0 0 0 0-2.8l-.844 1.24zM25.98 9.864l3.287 3.836 1.139-.976-3.288-3.836-1.139.976zm3.14-4.721-3.146 3.75 1.15.965 3.146-3.751-1.15-.964zm24.13 23.961C52.795 16.19 42.567 5.695 29.744 4.877l-.096 1.496c12.054.77 21.675 10.639 22.105 22.784l1.499-.053zm-4.373-2.055 3.14 2.654.968-1.145-3.14-2.654-.968 1.145zm-.245-.005a.184.184 0 0 1 .239 0l.98-1.135a1.684 1.684 0 0 0-2.2 0l.98 1.135zm-3.183 2.728 3.18-2.726-.976-1.139-3.18 2.726.976 1.14zM29.761 13.958c7.873.796 14.075 7.29 14.45 15.28l1.5-.07c-.412-8.735-7.188-15.832-15.8-16.703l-.15 1.493zM3.297 31.434l3.103 2.66.977-1.139-3.104-2.66-.976 1.139zm6.23 13.104a23.497 23.497 0 0 1-4.992-13.7l-1.5.053a24.997 24.997 0 0 0 5.311 14.571l1.181-.924zm10.9-.288H8.938v1.5h11.49v-1.5zm-9.872-13.43a17.62 17.62 0 0 0 9.53 14.847l.686-1.334a16.12 16.12 0 0 1-8.718-13.583l-1.498.07zm-1.959 3.274 3.196-2.74-.976-1.138-3.196 2.74.976 1.138zm-2.198-.002a1.684 1.684 0 0 0 2.2 0l-.98-1.135a.184.184 0 0 1-.24 0l-.98 1.135zm23.874 16.045-3.214-3.75-1.139.976 3.214 3.75 1.14-.976zm-3.213 4.726 3.213-3.75-1.139-.976-3.213 3.75 1.139.976zm-21.434.262h20.864v-1.5H5.625v1.5zM3 52.5a2.625 2.625 0 0 0 2.625 2.625v-1.5A1.125 1.125 0 0 1 4.5 52.5H3zm0-3.75v3.75h1.5v-3.75H3zm2.625-2.625A2.625 2.625 0 0 0 3 48.75h1.5c0-.621.504-1.125 1.125-1.125v-1.5zm20.864 0H5.625v1.5h20.864v-1.5zM45.4 32.281l3.836-3.288-.976-1.139-3.836 3.288.976 1.14zM28.957 47.585c8.734-.412 15.83-7.187 16.702-15.798l-1.492-.15c-.797 7.872-7.29 14.073-15.28 14.45l.07 1.498zm3.26 1.943-2.726-3.18-1.139.976 2.727 3.18 1.139-.976zm-.001 2.198a1.684 1.684 0 0 0 0-2.2l-1.135.98a.184.184 0 0 1 0 .24l1.135.98zm-2.648 3.134 2.653-3.14-1.145-.968-2.654 3.14 1.146.968zm22.104-23.338c-.77 12.056-10.561 21.675-22.704 22.104l.053 1.5c12.919-.458 23.33-10.689 24.148-23.508l-1.497-.096zm-3.41-2.529 3.67 3.146.976-1.139-3.67-3.146-.977 1.14zM28.124 18c-6.627 0-12 5.373-12 12h1.5c0-5.799 4.701-10.5 10.5-10.5V18zm12 12c0-6.627-5.373-12-12-12v1.5c5.799 0 10.5 4.701 10.5 10.5h1.5zm-12 12c6.627 0 12-5.373 12-12h-1.5c0 5.799-4.701 10.5-10.5 10.5V42zm-12-12c0 6.627 5.373 12 12 12v-1.5c-5.799 0-10.5-4.701-10.5-10.5h-1.5zm16.848-4.59-5.625 9.374 1.287.772 5.625-9.375-1.287-.772zm-.064-.258a.187.187 0 0 1 .064.257l1.287.772c.479-.8.22-1.836-.58-2.316l-.77 1.287zm-.258.065a.188.188 0 0 1 .258-.065l.772-1.287a1.689 1.689 0 0 0-2.314.578l1.284.774zm-5.006 8.345 5.007-8.346-1.287-.772-5.006 8.346 1.286.772zm-4.075-2.757 2.901 2.901 1.061-1.06-2.901-2.902-1.061 1.061zm-.265 0a.187.187 0 0 1 .265 0l1.06-1.06a1.687 1.687 0 0 0-2.386 0l1.061 1.06zm0 .265a.187.187 0 0 1 0-.265l-1.06-1.06c-.66.658-.66 1.727 0 2.386l1.06-1.061zm3.75 3.75-3.75-3.75-1.06 1.06 3.75 3.75 1.06-1.06zm.133.055a.188.188 0 0 1-.133-.055l-1.06 1.06c.317.319.747.495 1.192.495v-1.5zm.025-.002a.25.25 0 0 1-.026.002v1.5c.074 0 .143-.005.204-.013l-.178-1.49zm.135-.089a.186.186 0 0 1-.136.09l.18 1.488a1.687 1.687 0 0 0 1.242-.806l-1.286-.772z" fill="url(#c)" fill-opacity=".6" mask="url(#d)"/><path d="m11.337 28.29.488.57.228-.195.03-.3-.746-.075zM7.5 31.578l-.482.575.487.408.483-.413-.488-.57zm19.827-18.413.035.75 1.533-.073-.999-1.165-.57.488zM24.6 9.985l.57-.488-.002-.002-.568.49zm0-1.219.568.49.005-.006-.573-.484zm2.655-3.141.572.484 1.094-1.293-1.693.06.027.749zM3.75 28.432l-.748-.048-.025.379.291.244.482-.575zM51.958 47.2l.422-.62-.422.62zm3.884 2.645-.422.62.422-.62zm-7.634-2.97v-.75h-.35l-.224.267.574.483zm-10.392 7.5-.278-.697.278 1.447v-.75zm14.142-.325.422.62-.422-.62zm3.884-2.645-.422-.62.422.62zM26.55 9.375l-.575-.481-.409.487.414.483.57-.488zm3.287 3.837-.57.488.196.228.299.03.075-.746zm-.14-7.587.047-.748-.379-.025-.243.291.574.482zM52.5 29.131l-.484.572 1.294 1.094-.06-1.693-.75.027zm-3.14-2.654-.49.567.006.005.484-.572zm-1.22 0 .489.569.002-.002-.49-.567zm-3.18 2.726-.75.035.073 1.533 1.165-.999-.488-.57zM3.785 30.865l.488-.57-1.298-1.113.06 1.709.75-.026zm3.104 2.66.49-.568-.002-.002-.488.57zM8.937 45l-.59.462.224.288h.366V45zm11.49 0v.75l.344-1.417-.343.667zm-9.123-14.215.75-.035-.073-1.533-1.165.999.488.57zm-3.196 2.74-.488-.57-.002.002.49.568zm21.595 17.1.57.488.417-.488-.418-.488-.57.488zm-3.214-3.75.57-.488-.225-.262h-.345v.75zm0 7.5v.75h.345l.225-.262-.57-.488zm18.424-22.663-.488-.57-.228.196-.03.298.746.076zm3.836-3.288.488-.57-.488-.418-.488.418.488.57zM28.922 46.835l-.035-.749-1.533.072.998 1.166.57-.489zm2.726 3.181-.569.489.002.002.567-.49zm0 1.22-.567-.49-.005.006.572.484zm-2.653 3.14-.573-.484-1.093 1.293 1.692-.06-.026-.75zM52.42 31.57l.749.047.024-.373-.285-.244-.488.57zM32.01 24.83l-.643-.387v.001l.643.386zm-5.007 8.346-.53.53.679.68.494-.824-.643-.386zm.3 2.442.089.744h.001l-.09-.744zM10.849 27.72l-3.837 3.288.976 1.139 3.837-3.288-.976-1.14zm16.443-15.305c-8.735.412-15.831 7.188-16.702 15.799l1.493.15c.796-7.872 7.289-14.074 15.28-14.45l-.071-1.499zm-3.26-1.943 2.726 3.18 1.138-.976-2.725-3.18-1.14.976zm.002-2.197a1.684 1.684 0 0 0 0 2.2l1.135-.98a.184.184 0 0 1 0-.24l-1.135-.98zm2.649-3.135-2.655 3.14 1.146.97 2.654-3.142-1.145-.968zM4.498 28.48c.77-12.054 10.638-21.676 22.784-22.105l-.053-1.5C14.313 5.332 3.82 15.56 3.002 28.385l1.496.095zm3.484 2.523-3.75-3.146-.964 1.15 3.75 3.146.964-1.15zM51.536 47.82l3.884 2.645.844-1.24-3.884-2.645-.844 1.24zm-.633-.195c.226 0 .447.068.633.195l.844-1.24a2.625 2.625 0 0 0-1.477-.455v1.5zm-2.695 0h2.695v-1.5h-2.695v1.5zm-10.114 7.447a27.1 27.1 0 0 0 10.688-7.714l-1.148-.966a25.6 25.6 0 0 1-10.096 7.286l.556 1.394zm12.81-1.447H37.815v1.5h13.087v-1.5zm.632-.195a1.126 1.126 0 0 1-.633.195v1.5c.527 0 1.042-.159 1.477-.455l-.844-1.24zm3.884-2.645-3.884 2.645.844 1.24 3.884-2.645-.844-1.24zm0-.32a.194.194 0 0 1 0 .32l.844 1.24a1.694 1.694 0 0 0 0-2.8l-.844 1.24zM25.98 9.864l3.287 3.836 1.139-.976-3.288-3.836-1.139.976zm3.14-4.721-3.146 3.75 1.15.965 3.146-3.751-1.15-.964zm24.13 23.961C52.795 16.19 42.567 5.695 29.744 4.877l-.096 1.496c12.054.77 21.675 10.639 22.105 22.784l1.499-.053zm-4.373-2.055 3.14 2.654.968-1.145-3.14-2.654-.968 1.145zm-.245-.005a.184.184 0 0 1 .239 0l.98-1.135a1.684 1.684 0 0 0-2.2 0l.98 1.135zm-3.183 2.728 3.18-2.726-.976-1.139-3.18 2.726.976 1.14zM29.761 13.958c7.873.796 14.075 7.29 14.45 15.28l1.5-.07c-.412-8.735-7.188-15.832-15.8-16.703l-.15 1.493zM3.297 31.434l3.103 2.66.977-1.139-3.104-2.66-.976 1.139zm6.23 13.104a23.497 23.497 0 0 1-4.992-13.7l-1.5.053a24.997 24.997 0 0 0 5.311 14.571l1.181-.924zm10.9-.288H8.938v1.5h11.49v-1.5zm-9.872-13.43a17.62 17.62 0 0 0 9.53 14.847l.686-1.334a16.12 16.12 0 0 1-8.718-13.583l-1.498.07zm-1.959 3.274 3.196-2.74-.976-1.138-3.196 2.74.976 1.138zm-2.198-.002a1.684 1.684 0 0 0 2.2 0l-.98-1.135a.184.184 0 0 1-.24 0l-.98 1.135zm23.874 16.045-3.214-3.75-1.139.976 3.214 3.75 1.14-.976zm-3.213 4.726 3.213-3.75-1.139-.976-3.213 3.75 1.139.976zm-21.434.262h20.864v-1.5H5.625v1.5zM3 52.5a2.625 2.625 0 0 0 2.625 2.625v-1.5A1.125 1.125 0 0 1 4.5 52.5H3zm0-3.75v3.75h1.5v-3.75H3zm2.625-2.625A2.625 2.625 0 0 0 3 48.75h1.5c0-.621.504-1.125 1.125-1.125v-1.5zm20.864 0H5.625v1.5h20.864v-1.5zM45.4 32.281l3.836-3.288-.976-1.139-3.836 3.288.976 1.14zM28.957 47.585c8.734-.412 15.83-7.187 16.702-15.798l-1.492-.15c-.797 7.872-7.29 14.073-15.28 14.45l.07 1.498zm3.26 1.943-2.726-3.18-1.139.976 2.727 3.18 1.139-.976zm-.001 2.198a1.684 1.684 0 0 0 0-2.2l-1.135.98a.184.184 0 0 1 0 .24l1.135.98zm-2.648 3.134 2.653-3.14-1.145-.968-2.654 3.14 1.146.968zm22.104-23.338c-.77 12.056-10.561 21.675-22.704 22.104l.053 1.5c12.919-.458 23.33-10.689 24.148-23.508l-1.497-.096zm-3.41-2.529 3.67 3.146.976-1.139-3.67-3.146-.977 1.14zM28.124 18c-6.627 0-12 5.373-12 12h1.5c0-5.799 4.701-10.5 10.5-10.5V18zm12 12c0-6.627-5.373-12-12-12v1.5c5.799 0 10.5 4.701 10.5 10.5h1.5zm-12 12c6.627 0 12-5.373 12-12h-1.5c0 5.799-4.701 10.5-10.5 10.5V42zm-12-12c0 6.627 5.373 12 12 12v-1.5c-5.799 0-10.5-4.701-10.5-10.5h-1.5zm16.848-4.59-5.625 9.374 1.287.772 5.625-9.375-1.287-.772zm-.064-.258a.187.187 0 0 1 .064.257l1.287.772c.479-.8.22-1.836-.58-2.316l-.77 1.287zm-.258.065a.188.188 0 0 1 .258-.065l.772-1.287a1.689 1.689 0 0 0-2.314.578l1.284.774zm-5.006 8.345 5.007-8.346-1.287-.772-5.006 8.346 1.286.772zm-4.075-2.757 2.901 2.901 1.061-1.06-2.901-2.902-1.061 1.061zm-.265 0a.187.187 0 0 1 .265 0l1.06-1.06a1.687 1.687 0 0 0-2.386 0l1.061 1.06zm0 .265a.187.187 0 0 1 0-.265l-1.06-1.06c-.66.658-.66 1.727 0 2.386l1.06-1.061zm3.75 3.75-3.75-3.75-1.06 1.06 3.75 3.75 1.06-1.06zm.133.055a.188.188 0 0 1-.133-.055l-1.06 1.06c.317.319.747.495 1.192.495v-1.5zm.025-.002a.25.25 0 0 1-.026.002v1.5c.074 0 .143-.005.204-.013l-.178-1.49zm.135-.089a.186.186 0 0 1-.136.09l.18 1.488a1.687 1.687 0 0 0 1.242-.806l-1.286-.772z" fill="url(#e)" fill-opacity=".3" mask="url(#d)"/></g><defs><radialGradient id="c" cx="0" cy="0" r="1" gradientUnits="userSpaceOnUse" gradientTransform="matrix(0 42.3246 -45.5836 0 30.002 6.068)"><stop stop-color="#fff"/><stop offset="1" stop-color="#fff" stop-opacity="0"/></radialGradient><radialGradient id="e" cx="0" cy="0" r="1" gradientUnits="userSpaceOnUse" gradientTransform="matrix(0 -24.3754 26.2523 0 30.002 54.376)"><stop stop-color="#fff"/><stop offset="1" stop-color="#fff" stop-opacity="0"/></radialGradient><linearGradient id="b" x1="5.916" y1="6.881" x2="27.64" y2="66.956" gradientUnits="userSpaceOnUse"><stop stop-color="#fff" stop-opacity=".6"/><stop offset="1" stop-color="#fff" stop-opacity="0"/></linearGradient><filter id="a" x="-371.25" y="-369.375" width="802.508" height="798.751" filterUnits="userSpaceOnUse" color-interpolation-filters="sRGB"><feFlood flood-opacity="0" result="BackgroundImageFix"/><feGaussianBlur in="BackgroundImageFix" stdDeviation="187.5"/><feComposite in2="SourceAlpha" operator="in" result="effect1_backgroundBlur_8462_42746"/><feColorMatrix in="SourceAlpha" values="0 0 0 0 0 0 0 0 0 0 0 0 0 0 0 0 0 0 127 0" result="hardAlpha"/><feOffset dy="1.5"/><feGaussianBlur stdDeviation=".75"/><feComposite in2="hardAlpha" operator="out"/><feColorMatrix values="0 0 0 0 0 0 0 0 0 0 0 0 0 0 0 0 0 0 0.25 0"/><feBlend in2="effect1_backgroundBlur_8462_42746" result="effect2_dropShadow_8462_42746"/><feBlend in="SourceGraphic" in2="effect2_dropShadow_8462_42746" result="shape"/></filter></defs></svg>