<svg xmlns="http://www.w3.org/2000/svg" width="60" height="60" fill="none"><g filter="url(#a)"><mask id="d" fill="#fff"><path fill-rule="evenodd" clip-rule="evenodd" d="M36.243 20.283h-3.682a5.989 5.989 0 0 0-4.036 1.544c-.003-.598-.001-3.642 0-6.815.003-3.64.005-7.451 0-7.926.163-5.049 7.55-5.053 7.718 0v13.197zm-13.458 8.152c2.072.005 3.732-1.695 3.733-3.733 0 0 0-15.547-.01-15.608-.362-4.787-7.319-4.63-7.456.192v15.416a3.737 3.737 0 0 0 3.733 3.733zm-9.909-.766a4.16 4.16 0 0 0 4.157-4.157v-8.04c-.17-5.49-8.137-5.496-8.314 0v7.96c-.038 2.294 1.83 4.245 4.157 4.237zm33.437-6.367a12.84 12.84 0 0 0-4.106-.979c-.696-.06-3.201-.047-3.945-.04V10.234c0-2.21 1.806-4.005 4.025-4.005 2.156-.039 4.073 1.836 4.026 4.005v11.068zm3.238 5.015c-1.9-2.576-5.036-4.03-8.313-4.016h-8.677c-1.08 0-2.098.414-2.855 1.17-2.526 2.449-.676 6.898 2.855 6.841h8.283c1.32.018 1.332 1.992 0 2.018h-8.283a6.076 6.076 0 0 1-5.59-3.703c-2.497 2.896-7.644 2.16-9.281-1.261-1.967 2.721-6.56 3.097-8.96.706v8.94c0 2.28 1.635 4.318 2.604 5.337.948.968 1.493 2.32 1.493 3.713v9.882c0 .437.354.792.792.792h28.754a.792.792 0 0 0 .792-.792v-8.642c0-1.846.908-3.52 2.421-4.5 3.834-1.99 8.127-11.23 3.965-16.485z"/></mask><path fill-rule="evenodd" clip-rule="evenodd" d="M36.243 20.283h-3.682a5.989 5.989 0 0 0-4.036 1.544c-.003-.598-.001-3.642 0-6.815.003-3.64.005-7.451 0-7.926.163-5.049 7.55-5.053 7.718 0v13.197zm-13.458 8.152c2.072.005 3.732-1.695 3.733-3.733 0 0 0-15.547-.01-15.608-.362-4.787-7.319-4.63-7.456.192v15.416a3.737 3.737 0 0 0 3.733 3.733zm-9.909-.766a4.16 4.16 0 0 0 4.157-4.157v-8.04c-.17-5.49-8.137-5.496-8.314 0v7.96c-.038 2.294 1.83 4.245 4.157 4.237zm33.437-6.367a12.84 12.84 0 0 0-4.106-.979c-.696-.06-3.201-.047-3.945-.04V10.234c0-2.21 1.806-4.005 4.025-4.005 2.156-.039 4.073 1.836 4.026 4.005v11.068zm3.238 5.015c-1.9-2.576-5.036-4.03-8.313-4.016h-8.677c-1.08 0-2.098.414-2.855 1.17-2.526 2.449-.676 6.898 2.855 6.841h8.283c1.32.018 1.332 1.992 0 2.018h-8.283a6.076 6.076 0 0 1-5.59-3.703c-2.497 2.896-7.644 2.16-9.281-1.261-1.967 2.721-6.56 3.097-8.96.706v8.94c0 2.28 1.635 4.318 2.604 5.337.948.968 1.493 2.32 1.493 3.713v9.882c0 .437.354.792.792.792h28.754a.792.792 0 0 0 .792-.792v-8.642c0-1.846.908-3.52 2.421-4.5 3.834-1.99 8.127-11.23 3.965-16.485z" fill="url(#b)" fill-opacity=".8" shape-rendering="crispEdges"/><path fill-rule="evenodd" clip-rule="evenodd" d="M36.243 20.283h-3.682a5.989 5.989 0 0 0-4.036 1.544c-.003-.598-.001-3.642 0-6.815.003-3.64.005-7.451 0-7.926.163-5.049 7.55-5.053 7.718 0v13.197zm-13.458 8.152c2.072.005 3.732-1.695 3.733-3.733 0 0 0-15.547-.01-15.608-.362-4.787-7.319-4.63-7.456.192v15.416a3.737 3.737 0 0 0 3.733 3.733zm-9.909-.766a4.16 4.16 0 0 0 4.157-4.157v-8.04c-.17-5.49-8.137-5.496-8.314 0v7.96c-.038 2.294 1.83 4.245 4.157 4.237zm33.437-6.367a12.84 12.84 0 0 0-4.106-.979c-.696-.06-3.201-.047-3.945-.04V10.234c0-2.21 1.806-4.005 4.025-4.005 2.156-.039 4.073 1.836 4.026 4.005v11.068zm3.238 5.015c-1.9-2.576-5.036-4.03-8.313-4.016h-8.677c-1.08 0-2.098.414-2.855 1.17-2.526 2.449-.676 6.898 2.855 6.841h8.283c1.32.018 1.332 1.992 0 2.018h-8.283a6.076 6.076 0 0 1-5.59-3.703c-2.497 2.896-7.644 2.16-9.281-1.261-1.967 2.721-6.56 3.097-8.96.706v8.94c0 2.28 1.635 4.318 2.604 5.337.948.968 1.493 2.32 1.493 3.713v9.882c0 .437.354.792.792.792h28.754a.792.792 0 0 0 .792-.792v-8.642c0-1.846.908-3.52 2.421-4.5 3.834-1.99 8.127-11.23 3.965-16.485z" fill="#344254" fill-opacity=".15" shape-rendering="crispEdges"/><path d="M32.56 20.283v.75-.75zm3.683 0v.75h.75v-.75h-.75zm-7.718 1.544-.75.003.008 1.683 1.246-1.131-.504-.555zm0-6.815h-.75.75zm0-7.926-.75-.024v.032l.75-.008zm7.718 0h.75v-.025l-.75.025zm-9.725 17.616v-.75h-.75v.75h.75zm-3.733 3.733.002-.75h-.002v.75zm3.723-19.34-.748.056.002.033.006.034.74-.124zm-7.456.191-.75-.021V9.286h.75zm-2.02 14.226h.75-.75zm-4.156 4.157v-.75h-.002l.002.75zm4.157-12.198h.75v-.023l-.75.023zm-8.314 0-.75-.024v.024h.75zm0 7.96.75.013v-.012h-.75zm33.488-3.108-.066.748h.01l.056-.748zm4.106.98-.295.689 1.045.447v-1.137h-.75zm-8.051-1.02h-.75v.757l.757-.007-.007-.75zM42.287 6.23v.75h.014l-.014-.75zm4.026 4.005-.75-.016v.016h.75zm-5.075 12.067v.75h.003l-.003-.75zm8.313 4.016-.603.445.008.01.008.01.587-.465zM32.561 22.3v-.75.75zm-2.855 1.17.522.54.008-.009-.53-.53zm2.855 6.841.283.695-.295-1.445.012.75zm8.283 0 .01-.75h-.01v.75zm0 2.018v.75h.015l-.015-.75zm-13.872-3.703.69-.292-.47-1.111-.788.913.568.49zm-9.282-1.261.676-.324-.545-1.139-.74 1.024.609.439zm-8.96.706.53-.531-1.28-1.275v1.806h.75zm2.604 14.277-.544.516.008.008.536-.524zm34.252.454-.345-.666-.032.017-.03.019.407.63zm-13.025-21.77h3.682v-1.5h-3.682v1.5zm-3.532 1.349a5.24 5.24 0 0 1 3.531-1.349l.001-1.5a6.74 6.74 0 0 0-4.54 1.738l1.008 1.11zm-1.253-7.37c-.002 3.17-.004 6.218-.001 6.818l1.5-.007c-.003-.595-.001-3.636 0-6.81l-1.5-.001zm-.001-7.918c.005.47.003 4.272 0 7.918h1.5c.003-3.636.005-7.453 0-7.933l-1.5.015zm9.218-.033c-.2-6.016-9.023-6.02-9.218.001l1.5.049c.131-4.078 6.083-4.09 6.219 0l1.499-.05zm0 13.222V7.086h-1.5v13.197h1.5zm-11.225 4.419c-.001 1.63-1.332 2.987-2.981 2.983l-.004 1.5c2.494.007 4.483-2.038 4.485-4.482l-1.5-.001zm0-15.484a1.324 1.324 0 0 1-.01-.095c0-.003 0-.004 0 0v.029l.001.131.002.501.003 1.775a8922.095 8922.095 0 0 1 .004 10.713V24.702s.22-.53.75-.75v1.5c.53-.22.75-.75.75-.75V22.272a31718.3 31718.3 0 0 0-.005-10.714 1658.912 1658.912 0 0 0-.005-2.463v-.021a.734.734 0 0 0-.01-.103l-1.48.247zm-5.966.09c.11-3.888 5.669-3.984 5.958-.157l1.495-.113c-.434-5.748-8.789-5.531-8.953.227l1.5.042zm0 15.394V9.286h-1.5v15.416h1.5zm2.983 2.983a2.988 2.988 0 0 1-2.983-2.983h-1.5a4.487 4.487 0 0 0 4.483 4.483v-1.5zm-6.502-4.173a3.41 3.41 0 0 1-3.406 3.407l-.002 1.5a4.91 4.91 0 0 0 4.908-4.906l-1.5-.001zm0-8.04v8.04h1.5v-8.04h-1.5zm-6.814.023c.146-4.538 6.675-4.51 6.814 0l1.5-.047c-.2-6.47-9.606-6.454-9.813 0l1.499.047zm0 7.937v-7.96h-1.5v7.96h1.5zm3.405 3.487c-1.899.007-3.436-1.59-3.405-3.475l-1.5-.025c-.044 2.704 2.152 5.01 4.91 5l-.005-1.5zm29.277-5.848c1.345.101 2.647.399 3.867.92l.59-1.378a13.588 13.588 0 0 0-4.345-1.037l-.112 1.495zm-3.882-.038c.767-.007 3.223-.02 3.872.038l.131-1.495c-.742-.065-3.297-.05-4.017-.043l.014 1.5zm-.757-10.799v10.05h1.5v-10.05h-1.5zm4.775-4.755c-2.63 0-4.775 2.128-4.775 4.755h1.5c0-1.791 1.466-3.255 3.275-3.255v-1.5zm4.776 4.772c.057-2.606-2.219-4.818-4.79-4.772l.028 1.5c1.74-.031 3.3 1.506 3.262 3.239l1.5.033zm0 11.051V10.234h-1.5v11.068h1.5zm-5.822 1.75c3.06-.014 5.961 1.345 7.707 3.71l1.207-.89c-2.056-2.786-5.427-4.336-8.92-4.32l.006 1.5zm-8.68 0h8.677v-1.5h-8.677v1.5zm-2.325.95a3.262 3.262 0 0 1 2.325-.95v-1.5c-1.273 0-2.485.489-3.385 1.39l1.06 1.06zm2.313 5.56c-2.857.046-4.355-3.58-2.321-5.552l-1.044-1.077c-3.018 2.925-.816 8.197 3.39 8.13l-.025-1.5zm8.295.75v-.75h-8.281s.735.607.28 1.445l-.564-1.39c-.454.838.28 1.445.281 1.445h8.284v-.75zm.015 2.768c2.317-.046 2.296-3.487-.005-3.518l-.02 1.5c.128.002.172.043.192.066a.297.297 0 0 1 .063.192c0 .09-.03.157-.061.192-.02.023-.066.066-.198.068l.03 1.5zm-8.298 0h8.283v-1.5h-8.283v1.5zm-6.28-4.16a6.826 6.826 0 0 0 6.28 4.16v-1.5a5.326 5.326 0 0 1-4.898-3.245l-1.382.585zm-9.268-1.23c.946 1.977 2.885 3.14 4.892 3.418 2.008.278 4.19-.317 5.635-1.99l-1.136-.98c-1.054 1.22-2.694 1.706-4.293 1.484-1.6-.221-3.054-1.135-3.745-2.58l-1.353.648zm-8.812.913c1.384 1.38 3.363 1.93 5.231 1.78 1.868-.148 3.729-1.005 4.866-2.578l-1.216-.878c-.83 1.148-2.248 1.84-3.77 1.962-1.52.121-3.037-.336-4.052-1.348L8.2 28.604zm1.28 8.408v-8.939h-1.5v8.94h1.5zm2.396 4.821c-.46-.485-1.069-1.2-1.558-2.053-.491-.855-.839-1.804-.839-2.768h-1.5c0 1.317.47 2.527 1.038 3.516.57.992 1.264 1.804 1.772 2.338l1.087-1.033zm1.7 4.23c0-1.584-.618-3.126-1.708-4.238l-1.071 1.05c.807.824 1.279 1.986 1.279 3.188h1.5zm0 9.882V46.06h-1.5v9.883h1.5zm.042.042a.042.042 0 0 1-.042-.042h-1.5c0 .851.69 1.542 1.542 1.542v-1.5zm28.754 0H13.619v1.5h28.754v-1.5zm.042-.042a.042.042 0 0 1-.042.042v1.5c.852 0 1.542-.69 1.542-1.542h-1.5zm0-8.642v8.642h1.5v-8.642h-1.5zm2.764-5.13c-1.73 1.12-2.764 3.034-2.764 5.13h1.5c0-1.596.783-3.032 2.079-3.87l-.815-1.26zm3.785-15.39c1.859 2.349 1.885 5.672.889 8.773a15.27 15.27 0 0 1-2.055 4.135c-.838 1.174-1.742 2.024-2.557 2.447l.691 1.331c1.102-.572 2.172-1.624 3.087-2.907a16.767 16.767 0 0 0 2.262-4.548c1.07-3.33 1.16-7.254-1.142-10.162l-1.175.931z" fill="url(#c)" fill-opacity=".6" mask="url(#d)"/><path d="M32.56 20.283v.75-.75zm3.683 0v.75h.75v-.75h-.75zm-7.718 1.544-.75.003.008 1.683 1.246-1.131-.504-.555zm0-6.815h-.75.75zm0-7.926-.75-.024v.032l.75-.008zm7.718 0h.75v-.025l-.75.025zm-9.725 17.616v-.75h-.75v.75h.75zm-3.733 3.733.002-.75h-.002v.75zm3.723-19.34-.748.056.002.033.006.034.74-.124zm-7.456.191-.75-.021V9.286h.75zm-2.02 14.226h.75-.75zm-4.156 4.157v-.75h-.002l.002.75zm4.157-12.198h.75v-.023l-.75.023zm-8.314 0-.75-.024v.024h.75zm0 7.96.75.013v-.012h-.75zm33.488-3.108-.066.748h.01l.056-.748zm4.106.98-.295.689 1.045.447v-1.137h-.75zm-8.051-1.02h-.75v.757l.757-.007-.007-.75zM42.287 6.23v.75h.014l-.014-.75zm4.026 4.005-.75-.016v.016h.75zm-5.075 12.067v.75h.003l-.003-.75zm8.313 4.016-.603.445.008.01.008.01.587-.465zM32.561 22.3v-.75.75zm-2.855 1.17.522.54.008-.009-.53-.53zm2.855 6.841.283.695-.295-1.445.012.75zm8.283 0 .01-.75h-.01v.75zm0 2.018v.75h.015l-.015-.75zm-13.872-3.703.69-.292-.47-1.111-.788.913.568.49zm-9.282-1.261.676-.324-.545-1.139-.74 1.024.609.439zm-8.96.706.53-.531-1.28-1.275v1.806h.75zm2.604 14.277-.544.516.008.008.536-.524zm34.252.454-.345-.666-.032.017-.03.019.407.63zm-13.025-21.77h3.682v-1.5h-3.682v1.5zm-3.532 1.349a5.24 5.24 0 0 1 3.531-1.349l.001-1.5a6.74 6.74 0 0 0-4.54 1.738l1.008 1.11zm-1.253-7.37c-.002 3.17-.004 6.218-.001 6.818l1.5-.007c-.003-.595-.001-3.636 0-6.81l-1.5-.001zm-.001-7.918c.005.47.003 4.272 0 7.918h1.5c.003-3.636.005-7.453 0-7.933l-1.5.015zm9.218-.033c-.2-6.016-9.023-6.02-9.218.001l1.5.049c.131-4.078 6.083-4.09 6.219 0l1.499-.05zm0 13.222V7.086h-1.5v13.197h1.5zm-11.225 4.419c-.001 1.63-1.332 2.987-2.981 2.983l-.004 1.5c2.494.007 4.483-2.038 4.485-4.482l-1.5-.001zm0-15.484a1.324 1.324 0 0 1-.01-.095c0-.003 0-.004 0 0v.029l.001.131.002.501.003 1.775a8922.095 8922.095 0 0 1 .004 10.713V24.702s.22-.53.75-.75v1.5c.53-.22.75-.75.75-.75V22.272a31718.3 31718.3 0 0 0-.005-10.714 1658.912 1658.912 0 0 0-.005-2.463v-.021a.734.734 0 0 0-.01-.103l-1.48.247zm-5.966.09c.11-3.888 5.669-3.984 5.958-.157l1.495-.113c-.434-5.748-8.789-5.531-8.953.227l1.5.042zm0 15.394V9.286h-1.5v15.416h1.5zm2.983 2.983a2.988 2.988 0 0 1-2.983-2.983h-1.5a4.487 4.487 0 0 0 4.483 4.483v-1.5zm-6.502-4.173a3.41 3.41 0 0 1-3.406 3.407l-.002 1.5a4.91 4.91 0 0 0 4.908-4.906l-1.5-.001zm0-8.04v8.04h1.5v-8.04h-1.5zm-6.814.023c.146-4.538 6.675-4.51 6.814 0l1.5-.047c-.2-6.47-9.606-6.454-9.813 0l1.499.047zm0 7.937v-7.96h-1.5v7.96h1.5zm3.405 3.487c-1.899.007-3.436-1.59-3.405-3.475l-1.5-.025c-.044 2.704 2.152 5.01 4.91 5l-.005-1.5zm29.277-5.848c1.345.101 2.647.399 3.867.92l.59-1.378a13.588 13.588 0 0 0-4.345-1.037l-.112 1.495zm-3.882-.038c.767-.007 3.223-.02 3.872.038l.131-1.495c-.742-.065-3.297-.05-4.017-.043l.014 1.5zm-.757-10.799v10.05h1.5v-10.05h-1.5zm4.775-4.755c-2.63 0-4.775 2.128-4.775 4.755h1.5c0-1.791 1.466-3.255 3.275-3.255v-1.5zm4.776 4.772c.057-2.606-2.219-4.818-4.79-4.772l.028 1.5c1.74-.031 3.3 1.506 3.262 3.239l1.5.033zm0 11.051V10.234h-1.5v11.068h1.5zm-5.822 1.75c3.06-.014 5.961 1.345 7.707 3.71l1.207-.89c-2.056-2.786-5.427-4.336-8.92-4.32l.006 1.5zm-8.68 0h8.677v-1.5h-8.677v1.5zm-2.325.95a3.262 3.262 0 0 1 2.325-.95v-1.5c-1.273 0-2.485.489-3.385 1.39l1.06 1.06zm2.313 5.56c-2.857.046-4.355-3.58-2.321-5.552l-1.044-1.077c-3.018 2.925-.816 8.197 3.39 8.13l-.025-1.5zm8.295.75v-.75h-8.281s.735.607.28 1.445l-.564-1.39c-.454.838.28 1.445.281 1.445h8.284v-.75zm.015 2.768c2.317-.046 2.296-3.487-.005-3.518l-.02 1.5c.128.002.172.043.192.066a.297.297 0 0 1 .063.192c0 .09-.03.157-.061.192-.02.023-.066.066-.198.068l.03 1.5zm-8.298 0h8.283v-1.5h-8.283v1.5zm-6.28-4.16a6.826 6.826 0 0 0 6.28 4.16v-1.5a5.326 5.326 0 0 1-4.898-3.245l-1.382.585zm-9.268-1.23c.946 1.977 2.885 3.14 4.892 3.418 2.008.278 4.19-.317 5.635-1.99l-1.136-.98c-1.054 1.22-2.694 1.706-4.293 1.484-1.6-.221-3.054-1.135-3.745-2.58l-1.353.648zm-8.812.913c1.384 1.38 3.363 1.93 5.231 1.78 1.868-.148 3.729-1.005 4.866-2.578l-1.216-.878c-.83 1.148-2.248 1.84-3.77 1.962-1.52.121-3.037-.336-4.052-1.348L8.2 28.604zm1.28 8.408v-8.939h-1.5v8.94h1.5zm2.396 4.821c-.46-.485-1.069-1.2-1.558-2.053-.491-.855-.839-1.804-.839-2.768h-1.5c0 1.317.47 2.527 1.038 3.516.57.992 1.264 1.804 1.772 2.338l1.087-1.033zm1.7 4.23c0-1.584-.618-3.126-1.708-4.238l-1.071 1.05c.807.824 1.279 1.986 1.279 3.188h1.5zm0 9.882V46.06h-1.5v9.883h1.5zm.042.042a.042.042 0 0 1-.042-.042h-1.5c0 .851.69 1.542 1.542 1.542v-1.5zm28.754 0H13.619v1.5h28.754v-1.5zm.042-.042a.042.042 0 0 1-.042.042v1.5c.852 0 1.542-.69 1.542-1.542h-1.5zm0-8.642v8.642h1.5v-8.642h-1.5zm2.764-5.13c-1.73 1.12-2.764 3.034-2.764 5.13h1.5c0-1.596.783-3.032 2.079-3.87l-.815-1.26zm3.785-15.39c1.859 2.349 1.885 5.672.889 8.773a15.27 15.27 0 0 1-2.055 4.135c-.838 1.174-1.742 2.024-2.557 2.447l.691 1.331c1.102-.572 2.172-1.624 3.087-2.907a16.767 16.767 0 0 0 2.262-4.548c1.07-3.33 1.16-7.254-1.142-10.162l-1.175.931z" fill="url(#e)" fill-opacity=".3" mask="url(#d)"/></g><defs><radialGradient id="c" cx="0" cy="0" r="1" gradientUnits="userSpaceOnUse" gradientTransform="matrix(0 46.3939 -36.9303 0 29.988 3.784)"><stop stop-color="#fff"/><stop offset="1" stop-color="#fff" stop-opacity="0"/></radialGradient><radialGradient id="e" cx="0" cy="0" r="1" gradientUnits="userSpaceOnUse" gradientTransform="matrix(0 -26.719 21.2688 0 29.988 56.736)"><stop stop-color="#fff"/><stop offset="1" stop-color="#fff" stop-opacity="0"/></radialGradient><linearGradient id="b" x1="10.474" y1="4.674" x2="39.868" y2="64.755" gradientUnits="userSpaceOnUse"><stop stop-color="#fff" stop-opacity=".6"/><stop offset="1" stop-color="#fff" stop-opacity="0"/></linearGradient><filter id="a" x="-366.281" y="-371.702" width="792.539" height="803.438" filterUnits="userSpaceOnUse" color-interpolation-filters="sRGB"><feFlood flood-opacity="0" result="BackgroundImageFix"/><feGaussianBlur in="BackgroundImageFix" stdDeviation="187.5"/><feComposite in2="SourceAlpha" operator="in" result="effect1_backgroundBlur_8462_42695"/><feColorMatrix in="SourceAlpha" values="0 0 0 0 0 0 0 0 0 0 0 0 0 0 0 0 0 0 127 0" result="hardAlpha"/><feOffset dy="1.5"/><feGaussianBlur stdDeviation=".75"/><feComposite in2="hardAlpha" operator="out"/><feColorMatrix values="0 0 0 0 0 0 0 0 0 0 0 0 0 0 0 0 0 0 0.25 0"/><feBlend in2="effect1_backgroundBlur_8462_42695" result="effect2_dropShadow_8462_42695"/><feBlend in="SourceGraphic" in2="effect2_dropShadow_8462_42695" result="shape"/></filter></defs></svg>