<svg xmlns="http://www.w3.org/2000/svg" width="60" height="60" fill="none"><g filter="url(#b)" clip-path="url(#a)"><mask id="e" fill="#fff"><path fill-rule="evenodd" clip-rule="evenodd" d="M11.543 15.996c0-6.492 5.262-11.754 11.742-11.754 6.492 0 11.754 5.262 11.754 11.742 0 6.493-5.262 11.754-11.754 11.754-6.48 0-11.742-5.25-11.742-11.742zm35.039 36.047a3.703 3.703 0 0 1-3.703 3.703H3.703A3.703 3.703 0 0 1 0 52.043c0-11.426 9.305-20.73 20.73-20.73h5.11c11.437 0 20.742 9.293 20.742 20.73zm7.09-33.844a3.692 3.692 0 0 1 5.238 0 3.692 3.692 0 0 1 0 5.238s-10.347 10.805-10.722 11.18a3.692 3.692 0 0 1-5.239 0l-6.82-6.82a3.692 3.692 0 0 1 0-5.238 3.692 3.692 0 0 1 5.238 0l3.973 3.972 8.332-8.332z"/></mask><path fill-rule="evenodd" clip-rule="evenodd" d="M11.543 15.996c0-6.492 5.262-11.754 11.742-11.754 6.492 0 11.754 5.262 11.754 11.742 0 6.493-5.262 11.754-11.754 11.754-6.48 0-11.742-5.25-11.742-11.742zm35.039 36.047a3.703 3.703 0 0 1-3.703 3.703H3.703A3.703 3.703 0 0 1 0 52.043c0-11.426 9.305-20.73 20.73-20.73h5.11c11.437 0 20.742 9.293 20.742 20.73zm7.09-33.844a3.692 3.692 0 0 1 5.238 0 3.692 3.692 0 0 1 0 5.238s-10.347 10.805-10.722 11.18a3.692 3.692 0 0 1-5.239 0l-6.82-6.82a3.692 3.692 0 0 1 0-5.238 3.692 3.692 0 0 1 5.238 0l3.973 3.972 8.332-8.332z" fill="url(#c)" fill-opacity=".8" shape-rendering="crispEdges"/><path fill-rule="evenodd" clip-rule="evenodd" d="M11.543 15.996c0-6.492 5.262-11.754 11.742-11.754 6.492 0 11.754 5.262 11.754 11.742 0 6.493-5.262 11.754-11.754 11.754-6.48 0-11.742-5.25-11.742-11.742zm35.039 36.047a3.703 3.703 0 0 1-3.703 3.703H3.703A3.703 3.703 0 0 1 0 52.043c0-11.426 9.305-20.73 20.73-20.73h5.11c11.437 0 20.742 9.293 20.742 20.73zm7.09-33.844a3.692 3.692 0 0 1 5.238 0 3.692 3.692 0 0 1 0 5.238s-10.347 10.805-10.722 11.18a3.692 3.692 0 0 1-5.239 0l-6.82-6.82a3.692 3.692 0 0 1 0-5.238 3.692 3.692 0 0 1 5.238 0l3.973 3.972 8.332-8.332z" fill="#344254" fill-opacity=".15" shape-rendering="crispEdges"/><path d="m53.672 18.2.53.53.002-.003-.532-.528zm5.238 5.238-.528-.533-.007.007-.007.007.542.518zm-10.722 11.18-.53-.531-.003.002.532.528zm-12.06-6.821.531-.53-.002-.003-.528.533zm0-5.238.531.53.002-.002-.532-.528zm9.212 3.972-.53.53.53.53.53-.53-.53-.53zM23.285 3.492c-6.895 0-12.492 5.598-12.492 12.504h1.5c0-6.078 4.926-11.004 10.992-11.004v-1.5zM35.79 15.984c0-6.895-5.598-12.492-12.504-12.492v1.5c6.079 0 11.004 4.927 11.004 10.992h1.5zM23.285 28.488c6.907 0 12.504-5.597 12.504-12.504h-1.5c0 6.078-4.926 11.004-11.004 11.004v1.5zM10.793 15.996c0 6.907 5.598 12.492 12.492 12.492v-1.5c-6.067 0-10.992-4.914-10.992-10.992h-1.5zm32.086 40.5a4.453 4.453 0 0 0 4.453-4.453h-1.5a2.953 2.953 0 0 1-2.953 2.953v1.5zm-39.176 0H42.88v-1.5H3.703v1.5zM-.75 52.043a4.453 4.453 0 0 0 4.453 4.453v-1.5A2.953 2.953 0 0 1 .75 52.043h-1.5zm21.48-21.48c-11.84 0-21.48 9.64-21.48 21.48h1.5c0-11.012 8.969-19.98 19.98-19.98v-1.5zm5.11 0h-5.11v1.5h5.11v-1.5zm21.492 21.48c0-11.852-9.641-21.48-21.492-21.48v1.5c11.024 0 19.992 8.957 19.992 19.98h1.5zM59.44 17.669a4.442 4.442 0 0 0-6.3.002l1.064 1.056a2.942 2.942 0 0 1 4.176.003l1.06-1.061zm-.002 6.301a4.442 4.442 0 0 0 .002-6.301l-1.06 1.06a2.942 2.942 0 0 1 .002 4.176l1.056 1.065zm-10.72 11.178c.195-.196 2.885-3 5.513-5.742l3.598-3.756c.488-.509.894-.932 1.177-1.229l.33-.343.086-.09a5.775 5.775 0 0 1 .03-.031l-.542-.52-.542-.518-.001.002a.447.447 0 0 1-.028.029l-.087.09-.329.344-1.177 1.229-3.598 3.755c-2.64 2.755-5.31 5.539-5.49 5.719l1.06 1.06zm-6.3 0a4.442 4.442 0 0 0 6.302-.003l-1.065-1.056a2.942 2.942 0 0 1-4.175-.002l-1.061 1.06zm-6.82-6.82 6.82 6.82 1.062-1.061-6.82-6.82-1.061 1.06zm0-6.3a4.442 4.442 0 0 0 .003 6.301l1.056-1.065a2.942 2.942 0 0 1 .002-4.175l-1.06-1.06zm6.3 0a4.442 4.442 0 0 0-6.302.002l1.065 1.057a2.942 2.942 0 0 1 4.176.002l1.06-1.06zm3.972 3.973-3.972-3.973-1.061 1.06 3.972 3.974L45.87 26zm7.272-8.332L44.809 26l1.061 1.06 8.332-8.331-1.06-1.061z" fill="url(#d)" fill-opacity=".6" mask="url(#e)"/><path d="m53.672 18.2.53.53.002-.003-.532-.528zm5.238 5.238-.528-.533-.007.007-.007.007.542.518zm-10.722 11.18-.53-.531-.003.002.532.528zm-12.06-6.821.531-.53-.002-.003-.528.533zm0-5.238.531.53.002-.002-.532-.528zm9.212 3.972-.53.53.53.53.53-.53-.53-.53zM23.285 3.492c-6.895 0-12.492 5.598-12.492 12.504h1.5c0-6.078 4.926-11.004 10.992-11.004v-1.5zM35.79 15.984c0-6.895-5.598-12.492-12.504-12.492v1.5c6.079 0 11.004 4.927 11.004 10.992h1.5zM23.285 28.488c6.907 0 12.504-5.597 12.504-12.504h-1.5c0 6.078-4.926 11.004-11.004 11.004v1.5zM10.793 15.996c0 6.907 5.598 12.492 12.492 12.492v-1.5c-6.067 0-10.992-4.914-10.992-10.992h-1.5zm32.086 40.5a4.453 4.453 0 0 0 4.453-4.453h-1.5a2.953 2.953 0 0 1-2.953 2.953v1.5zm-39.176 0H42.88v-1.5H3.703v1.5zM-.75 52.043a4.453 4.453 0 0 0 4.453 4.453v-1.5A2.953 2.953 0 0 1 .75 52.043h-1.5zm21.48-21.48c-11.84 0-21.48 9.64-21.48 21.48h1.5c0-11.012 8.969-19.98 19.98-19.98v-1.5zm5.11 0h-5.11v1.5h5.11v-1.5zm21.492 21.48c0-11.852-9.641-21.48-21.492-21.48v1.5c11.024 0 19.992 8.957 19.992 19.98h1.5zM59.44 17.669a4.442 4.442 0 0 0-6.3.002l1.064 1.056a2.942 2.942 0 0 1 4.176.003l1.06-1.061zm-.002 6.301a4.442 4.442 0 0 0 .002-6.301l-1.06 1.06a2.942 2.942 0 0 1 .002 4.176l1.056 1.065zm-10.72 11.178c.195-.196 2.885-3 5.513-5.742l3.598-3.756c.488-.509.894-.932 1.177-1.229l.33-.343.086-.09a5.775 5.775 0 0 1 .03-.031l-.542-.52-.542-.518-.001.002a.447.447 0 0 1-.028.029l-.087.09-.329.344-1.177 1.229-3.598 3.755c-2.64 2.755-5.31 5.539-5.49 5.719l1.06 1.06zm-6.3 0a4.442 4.442 0 0 0 6.302-.003l-1.065-1.056a2.942 2.942 0 0 1-4.175-.002l-1.061 1.06zm-6.82-6.82 6.82 6.82 1.062-1.061-6.82-6.82-1.061 1.06zm0-6.3a4.442 4.442 0 0 0 .003 6.301l1.056-1.065a2.942 2.942 0 0 1 .002-4.175l-1.06-1.06zm6.3 0a4.442 4.442 0 0 0-6.302.002l1.065 1.057a2.942 2.942 0 0 1 4.176.002l1.06-1.06zm3.972 3.973-3.972-3.973-1.061 1.06 3.972 3.974L45.87 26zm7.272-8.332L44.809 26l1.061 1.06 8.332-8.331-1.06-1.061z" fill="url(#f)" fill-opacity=".3" mask="url(#e)"/></g><defs><radialGradient id="d" cx="0" cy="0" r="1" gradientUnits="userSpaceOnUse" gradientTransform="matrix(0 44.7148 -52.0909 0 30 4.71)"><stop stop-color="#fff"/><stop offset="1" stop-color="#fff" stop-opacity="0"/></radialGradient><radialGradient id="f" cx="0" cy="0" r="1" gradientUnits="userSpaceOnUse" gradientTransform="matrix(0 -25.752 30 0 30 55.746)"><stop stop-color="#fff"/><stop offset="1" stop-color="#fff" stop-opacity="0"/></radialGradient><linearGradient id="c" x1="2.476" y1="5.569" x2="24.055" y2="70.121" gradientUnits="userSpaceOnUse"><stop stop-color="#fff" stop-opacity=".6"/><stop offset="1" stop-color="#fff" stop-opacity="0"/></linearGradient><clipPath id="a"><path fill="#fff" d="M0 0h60v60H0z"/></clipPath><filter id="b" x="-375" y="-370.758" width="810" height="801.504" filterUnits="userSpaceOnUse" color-interpolation-filters="sRGB"><feFlood flood-opacity="0" result="BackgroundImageFix"/><feGaussianBlur in="BackgroundImageFix" stdDeviation="187.5"/><feComposite in2="SourceAlpha" operator="in" result="effect1_backgroundBlur_8462_42735"/><feColorMatrix in="SourceAlpha" values="0 0 0 0 0 0 0 0 0 0 0 0 0 0 0 0 0 0 127 0" result="hardAlpha"/><feOffset dy="1.5"/><feGaussianBlur stdDeviation=".75"/><feComposite in2="hardAlpha" operator="out"/><feColorMatrix values="0 0 0 0 0 0 0 0 0 0 0 0 0 0 0 0 0 0 0.25 0"/><feBlend in2="effect1_backgroundBlur_8462_42735" result="effect2_dropShadow_8462_42735"/><feBlend in="SourceGraphic" in2="effect2_dropShadow_8462_42735" result="shape"/></filter></defs></svg>