<svg xmlns="http://www.w3.org/2000/svg" width="60" height="60" fill="none"><g filter="url(#b)" clip-path="url(#a)"><mask id="e" fill="#fff"><path fill-rule="evenodd" clip-rule="evenodd" d="m55.333 9.015-2.77.49a.938.938 0 0 0-.76 1.086l3.588 20.315c.09.51.577.85 1.087.76l2.77-.489c.51-.09.85-.576.76-1.086L56.42 9.775a.938.938 0 0 0-1.087-.76zm-51.73.782L.014 30.112c-.09.51.25.997.76 1.087l2.771.49c.51.09.997-.251 1.087-.761L8.22 10.612a.938.938 0 0 0-.76-1.086l-2.77-.49a.938.938 0 0 0-1.087.76zm15.18 21.806a2.344 2.344 0 0 1-.828 1.59l-4.312 3.616a2.344 2.344 0 0 1-3.012-3.59l4.313-3.615a2.343 2.343 0 0 1 3.84 1.999zm2.965 3.918a2.344 2.344 0 0 0-3.3-.29l-5.03 4.22a2.344 2.344 0 0 0-.295 3.3 2.344 2.344 0 0 0 3.3.289l5.03-4.219a2.344 2.344 0 0 0 .295-3.3zm11.305 7.643a2.344 2.344 0 0 0-3.3-.29l-3.594 3.018a2.344 2.344 0 0 0 3.012 3.59l3.592-3.012a2.343 2.343 0 0 0 .29-3.306zm-6.372-3.22a2.343 2.343 0 0 0-3.301-.288l-3.594 3.012a2.344 2.344 0 0 0 3.012 3.59l3.593-3.012a2.344 2.344 0 0 0 .29-3.302zM31.2 50.22l2.767-2.318c.187-.16.36-.336.515-.525a2.328 2.328 0 0 1-3.281 2.843zm8.657-23.47 9.265 6.133h-.001a2.344 2.344 0 1 1-2.588 3.91l-8.99-5.952a.936.936 0 1 0-1.03 1.564l7.427 4.916a2.345 2.345 0 1 1-2.587 3.909l-7.427-4.916a.939.939 0 0 0-1.312 1.31c.075.103.17.189.28.253l5.865 3.881a2.344 2.344 0 0 1-2.588 3.909l-.737-.487a4.192 4.192 0 0 0-6.363-4.106 4.18 4.18 0 0 0-4.93-3.76 4.188 4.188 0 0 0-3.75-4.475 4.204 4.204 0 0 0-6.656-4.675L9.423 31.78a4.2 4.2 0 0 0-.928 1.125c-.45-.64-.84-1.32-1.16-2.034l-.775-.136 3.296-18.665 2.617.462 10.585-1.618a8.415 8.415 0 0 1 4.544.562l-4.99 2.127c-.844.36-1.564.96-2.069 1.725l-3.315 5.007a3.755 3.755 0 0 0 1.058 5.197 4.693 4.693 0 0 0 6.496-1.322l1.175-1.781 3.007-.611a9.69 9.69 0 0 0 5.293 4.547c1.796.644 3.735.777 5.601.385zm-2.922-15.84 10.587 1.618 2.618-.46 3.295 18.668-.777.141c-.312.695-.689 1.359-1.125 1.984a4.162 4.162 0 0 0-1.375-1.54l-8.045-5.326c.43-.201.847-.433 1.245-.691l.787-.511a.937.937 0 1 0-1.022-1.572l-.79.507v.005a8.392 8.392 0 0 1-2.132.998 8.438 8.438 0 0 1-5.307-.129 7.78 7.78 0 0 1-4.56-4.253.923.923 0 0 0-1.03-.513l-4.478.911-1.605 2.425a2.812 2.812 0 0 1-3.898.793 1.875 1.875 0 0 1-.528-2.599l3.311-5.005a2.821 2.821 0 0 1 1.242-1.031l9.004-3.84a8.437 8.437 0 0 1 4.583-.58z"/></mask><path fill-rule="evenodd" clip-rule="evenodd" d="m55.333 9.015-2.77.49a.938.938 0 0 0-.76 1.086l3.588 20.315c.09.51.577.85 1.087.76l2.77-.489c.51-.09.85-.576.76-1.086L56.42 9.775a.938.938 0 0 0-1.087-.76zm-51.73.782L.014 30.112c-.09.51.25.997.76 1.087l2.771.49c.51.09.997-.251 1.087-.761L8.22 10.612a.938.938 0 0 0-.76-1.086l-2.77-.49a.938.938 0 0 0-1.087.76zm15.18 21.806a2.344 2.344 0 0 1-.828 1.59l-4.312 3.616a2.344 2.344 0 0 1-3.012-3.59l4.313-3.615a2.343 2.343 0 0 1 3.84 1.999zm2.965 3.918a2.344 2.344 0 0 0-3.3-.29l-5.03 4.22a2.344 2.344 0 0 0-.295 3.3 2.344 2.344 0 0 0 3.3.289l5.03-4.219a2.344 2.344 0 0 0 .295-3.3zm11.305 7.643a2.344 2.344 0 0 0-3.3-.29l-3.594 3.018a2.344 2.344 0 0 0 3.012 3.59l3.592-3.012a2.343 2.343 0 0 0 .29-3.306zm-6.372-3.22a2.343 2.343 0 0 0-3.301-.288l-3.594 3.012a2.344 2.344 0 0 0 3.012 3.59l3.593-3.012a2.344 2.344 0 0 0 .29-3.302zM31.2 50.22l2.767-2.318c.187-.16.36-.336.515-.525a2.328 2.328 0 0 1-3.281 2.843zm8.657-23.47 9.265 6.133h-.001a2.344 2.344 0 1 1-2.588 3.91l-8.99-5.952a.936.936 0 1 0-1.03 1.564l7.427 4.916a2.345 2.345 0 1 1-2.587 3.909l-7.427-4.916a.939.939 0 0 0-1.312 1.31c.075.103.17.189.28.253l5.865 3.881a2.344 2.344 0 0 1-2.588 3.909l-.737-.487a4.192 4.192 0 0 0-6.363-4.106 4.18 4.18 0 0 0-4.93-3.76 4.188 4.188 0 0 0-3.75-4.475 4.204 4.204 0 0 0-6.656-4.675L9.423 31.78a4.2 4.2 0 0 0-.928 1.125c-.45-.64-.84-1.32-1.16-2.034l-.775-.136 3.296-18.665 2.617.462 10.585-1.618a8.415 8.415 0 0 1 4.544.562l-4.99 2.127c-.844.36-1.564.96-2.069 1.725l-3.315 5.007a3.755 3.755 0 0 0 1.058 5.197 4.693 4.693 0 0 0 6.496-1.322l1.175-1.781 3.007-.611a9.69 9.69 0 0 0 5.293 4.547c1.796.644 3.735.777 5.601.385zm-2.922-15.84 10.587 1.618 2.618-.46 3.295 18.668-.777.141c-.312.695-.689 1.359-1.125 1.984a4.162 4.162 0 0 0-1.375-1.54l-8.045-5.326c.43-.201.847-.433 1.245-.691l.787-.511a.937.937 0 1 0-1.022-1.572l-.79.507v.005a8.392 8.392 0 0 1-2.132.998 8.438 8.438 0 0 1-5.307-.129 7.78 7.78 0 0 1-4.56-4.253.923.923 0 0 0-1.03-.513l-4.478.911-1.605 2.425a2.812 2.812 0 0 1-3.898.793 1.875 1.875 0 0 1-.528-2.599l3.311-5.005a2.821 2.821 0 0 1 1.242-1.031l9.004-3.84a8.437 8.437 0 0 1 4.583-.58z" fill="url(#c)" fill-opacity=".8" shape-rendering="crispEdges"/><path fill-rule="evenodd" clip-rule="evenodd" d="m55.333 9.015-2.77.49a.938.938 0 0 0-.76 1.086l3.588 20.315c.09.51.577.85 1.087.76l2.77-.489c.51-.09.85-.576.76-1.086L56.42 9.775a.938.938 0 0 0-1.087-.76zm-51.73.782L.014 30.112c-.09.51.25.997.76 1.087l2.771.49c.51.09.997-.251 1.087-.761L8.22 10.612a.938.938 0 0 0-.76-1.086l-2.77-.49a.938.938 0 0 0-1.087.76zm15.18 21.806a2.344 2.344 0 0 1-.828 1.59l-4.312 3.616a2.344 2.344 0 0 1-3.012-3.59l4.313-3.615a2.343 2.343 0 0 1 3.84 1.999zm2.965 3.918a2.344 2.344 0 0 0-3.3-.29l-5.03 4.22a2.344 2.344 0 0 0-.295 3.3 2.344 2.344 0 0 0 3.3.289l5.03-4.219a2.344 2.344 0 0 0 .295-3.3zm11.305 7.643a2.344 2.344 0 0 0-3.3-.29l-3.594 3.018a2.344 2.344 0 0 0 3.012 3.59l3.592-3.012a2.343 2.343 0 0 0 .29-3.306zm-6.372-3.22a2.343 2.343 0 0 0-3.301-.288l-3.594 3.012a2.344 2.344 0 0 0 3.012 3.59l3.593-3.012a2.344 2.344 0 0 0 .29-3.302zM31.2 50.22l2.767-2.318c.187-.16.36-.336.515-.525a2.328 2.328 0 0 1-3.281 2.843zm8.657-23.47 9.265 6.133h-.001a2.344 2.344 0 1 1-2.588 3.91l-8.99-5.952a.936.936 0 1 0-1.03 1.564l7.427 4.916a2.345 2.345 0 1 1-2.587 3.909l-7.427-4.916a.939.939 0 0 0-1.312 1.31c.075.103.17.189.28.253l5.865 3.881a2.344 2.344 0 0 1-2.588 3.909l-.737-.487a4.192 4.192 0 0 0-6.363-4.106 4.18 4.18 0 0 0-4.93-3.76 4.188 4.188 0 0 0-3.75-4.475 4.204 4.204 0 0 0-6.656-4.675L9.423 31.78a4.2 4.2 0 0 0-.928 1.125c-.45-.64-.84-1.32-1.16-2.034l-.775-.136 3.296-18.665 2.617.462 10.585-1.618a8.415 8.415 0 0 1 4.544.562l-4.99 2.127c-.844.36-1.564.96-2.069 1.725l-3.315 5.007a3.755 3.755 0 0 0 1.058 5.197 4.693 4.693 0 0 0 6.496-1.322l1.175-1.781 3.007-.611a9.69 9.69 0 0 0 5.293 4.547c1.796.644 3.735.777 5.601.385zm-2.922-15.84 10.587 1.618 2.618-.46 3.295 18.668-.777.141c-.312.695-.689 1.359-1.125 1.984a4.162 4.162 0 0 0-1.375-1.54l-8.045-5.326c.43-.201.847-.433 1.245-.691l.787-.511a.937.937 0 1 0-1.022-1.572l-.79.507v.005a8.392 8.392 0 0 1-2.132.998 8.438 8.438 0 0 1-5.307-.129 7.78 7.78 0 0 1-4.56-4.253.923.923 0 0 0-1.03-.513l-4.478.911-1.605 2.425a2.812 2.812 0 0 1-3.898.793 1.875 1.875 0 0 1-.528-2.599l3.311-5.005a2.821 2.821 0 0 1 1.242-1.031l9.004-3.84a8.437 8.437 0 0 1 4.583-.58z" fill="#344254" fill-opacity=".15" shape-rendering="crispEdges"/><path d="m52.563 9.504.13.739-.13-.739zm2.77-.49-.13-.738.13.739zm-3.53 1.577.738-.13-.738.13zm3.588 20.315.739-.13-.739.13zm1.087.76-.13-.738.13.739zm2.77-.489.13.739-.13-.739zm.76-1.086-.738.13.738-.13zM56.42 9.775l.738-.13-.738.13zM.014 30.112l.739.13-.739-.13zm3.59-20.315-.74-.13.74.13zM.773 31.199l.131-.739-.13.739zm2.771.49.13-.74-.13.74zm1.087-.761-.739-.13.739.13zM8.22 10.612l.739.13-.739-.13zm-.76-1.086.13-.739-.13.739zm-2.77-.49-.13.739.13-.739zm13.265 24.157.482.575-.482-.575zm.828-1.59-.747-.066.747.066zm-5.14 5.206.481.575-.481-.575zm-1.71.538-.066.748.066-.748zm-1.59-.827-.575.482.575-.482zm-.54-1.71.748.065-.747-.066zm.828-1.591-.482-.575.482.575zm4.313-3.615.482.575-.482-.575zm3.3.288.576-.481-.575.481zm3.504 5.63.576-.481-.002-.002-.574.482zm-3.3-.29-.482-.575.482.575zm-5.03 4.218.48.575h.001l-.482-.575zm-.295 3.3-.576.481.002.002.574-.483zm3.3.29.482.575-.482-.575zm5.03-4.219-.482-.575.482.575zm.83-1.589.747.067-.747-.067zm9.18 5.104-.066.748.066-.748zm1.59.828-.575.482.575-.482zm-3.3-.29-.482-.575v.001l.482.574zm-3.594 3.018.482.575-.482-.575zm-.828 1.59-.747-.065.747.066zm.538 1.711-.574.482.574-.482zm3.302.29.481.575-.482-.575zm3.592-3.013-.481-.575h-.001l.482.575zm.574-.714-.665-.347.665.347zm.157-1.79.715-.225-.715.226zm-6.813-4.022.574-.482-.574.482zm-3.301-.288.482.574-.482-.574zm-3.594 3.012-.481-.575-.007.006-.007.006.495.563zm-.788 1.582.747.057-.747-.057zm.54 1.683-.574.482.575-.482zm1.564.826-.074.747.074-.747zm1.696-.5.468.585.007-.005.006-.006-.481-.575zm3.593-3.013.482.575-.482-.575zm.829-1.59.747.065-.747-.066zm6.748 6.246.482.575.006-.006-.488-.57zm-2.766 2.318-.482-.575-.854.716.985.522.35-.663zm3.281-2.843.706-.254-.446-1.243-.84 1.02.58.477zm14.64-14.494v.75h2.492l-2.078-1.375-.414.625zm-9.265-6.132.414-.626-.261-.172-.307.064.154.734zm9.264 6.132v-.75H46.63l2.078 1.375.414-.625zm1.003 1.487.735-.15-.735.15zm-3.59 2.422-.415.626.414-.626zm-8.99-5.95-.44.607.012.009.014.009.414-.626zm-.343-.156-.166.732.166-.732zm-.376-.008-.134-.738.134.738zm-.348.14-.414-.625.414.625zm-.266.266.626.413-.626-.413zm-.14.35-.738-.135.738.134zm.009.375-.732.167.732-.167zm.155.342-.607.441.607-.44zm.277.254.414-.626-.014-.009-.015-.009-.385.644zm7.428 4.916-.414.626.006.003.408-.629zm.658.643-.62.423.62-.423zm.36.846.734-.153-.734.153zm-.989 2.422-.417-.622.418.623zm-.849.353-.146-.735.146.735zm-.919 0 .148-.736-.148.735zm-.848-.355.42-.622-.006-.004-.414.626zm-7.427-4.916-.446.604.016.011.016.01.414-.625zm-.72-.169-.132-.738.131.738zm-.62.407.627.413-.627-.413zm-.14.351.738.132-.738-.132zm.01.378.73-.17-.73.17zm.158.343-.604.445.604-.445zm.28.253.415-.625-.017-.012-.018-.01-.38.647zm5.865 3.881.42-.621-.006-.004-.414.625zm.988 1.486.736-.146-.736.146zm-1.822 2.752.153.734-.153-.734zm-1.754-.33-.413.627.005.003.408-.63zm-.737-.486-.743-.097-.061.465.391.258.413-.626zm-.353-2.305.68-.315-.68.315zm-1.53-1.76.407-.63-.407.63zm-2.234-.669-.007.75.007-.75zm-2.245.628-.748.063.103 1.218 1.04-.643-.395-.638zm-.5-1.66.657-.36-.658.36zM27.441 38.1l.454-.596-.454.596zm-1.567-.742-.174.73.174-.73zm-1.733-.043-.748-.056-.072.971.957-.178-.137-.737zm-.966-3 .575-.481-.575.481zm-2.784-1.476-.703-.261-.337.908.964.1.076-.747zm.074-2.712.716-.223-.716.223zm-1.598-2.193.43-.614-.43.614zm-5.132.23.482.574.002-.002-.484-.572zM9.423 31.78l-.482-.575-.004.004.486.57zm-.928 1.125-.613.432.683.967.583-1.03-.653-.37zm-1.16-2.034.684-.308-.163-.362-.392-.069-.13.74zm-.775-.136-.738-.13-.13.74.739.129.13-.739zm3.296-18.665.13-.738-.739-.13-.13.738.739.13zm2.617.462-.13.738.121.022.122-.019-.113-.741zm10.585-1.618.113.741-.113-.741zm4.544.562.294.69 1.628-.694-1.631-.687-.291.691zm-4.99 2.127.294.69-.294-.69zm-2.069 1.725.626.414-.626-.414zm-3.315 5.007-.625-.414.625.414zm1.058 5.197-.415.625.002.001.413-.626zm3.52.682.15.735-.15-.735zm2.976-2.004.625.415v-.002l-.625-.413zm1.175-1.781-.15-.735-.304.062-.172.26.626.413zm3.007-.611.66-.355-.263-.491-.547.11.15.736zm5.293 4.547.253-.706-.002-.001-.251.707zm13.266-13.838-.114.742.122.018.122-.021-.13-.739zM36.936 10.91l.114-.741-.114.741zm13.205 1.157.739-.13-.13-.739-.74.13.131.74zm3.295 18.67.134.737.735-.133-.13-.735-.739.13zm-.777.14-.133-.738-.389.07-.162.36.684.308zm-1.125 1.984-.666.345.571 1.102.71-1.018-.615-.43zm-1.375-1.54.418-.623-.004-.003-.414.625zm-8.045-5.326-.318-.678-1.21.567 1.114.737.414-.625zm1.245-.691.408.629-.408-.63zm.787-.511.408.629-.408-.63zm.262-.256.618.425-.618-.425zm.149-.702.737-.137-.737.137zm-.136-.34.629-.408-.63.409zm-.255-.261-.425.618.425-.618zm-.702-.15.136.738-.136-.737zm-.34.137.405.63.004-.002-.41-.628zm-.79.507-.406-.632-.344.222v.41h.75zm0 .005.41.628.34-.222v-.406h-.75zm-2.132.998.218.717h.001l-.22-.717zm-5.307-.129.253-.706-.004-.001-.249.707zm-4.56-4.253.689-.298-.004-.009-.005-.01-.68.317zm-.425-.437.334-.672-.334.672zm-.606-.076.15.735.008-.002-.158-.733zm-4.477.911-.15-.735-.304.062-.172.26.626.413zm-1.605 2.425-.626-.414.626.414zm-1.785 1.203-.15-.735.15.735zm-2.113-.41-.413.625.413-.625zm-.52-.515.623-.42-.622.42zm-.285-1.407-.737-.143.737.143zm.277-.677.625.414-.625-.414zm3.311-5.005-.624-.416-.002.002.626.414zm1.242-1.031.294.69-.294-.69zm9.004-3.84-.294-.69.294.69zm20.34-1.247 2.77-.49-.26-1.477-2.77.49.26 1.477zm-.152.217a.188.188 0 0 1 .152-.217l-.26-1.477a1.688 1.688 0 0 0-1.369 1.955l1.477-.26zm3.589 20.316L52.54 10.46l-1.477.261 3.589 20.316 1.477-.261zm.217.152a.188.188 0 0 1-.217-.152l-1.477.26a1.688 1.688 0 0 0 1.955 1.37l-.26-1.478zm2.77-.49-2.77.49.261 1.477 2.77-.49-.26-1.476zm.153-.217c.018.102-.05.2-.152.218l.26 1.477a1.688 1.688 0 0 0 1.369-1.956l-1.477.261zM55.68 9.905l3.589 20.316 1.477-.26-3.589-20.316-1.477.26zm-.217-.152c.102-.018.2.05.217.152l1.477-.26a1.688 1.688 0 0 0-1.955-1.369l.26 1.477zM.753 30.243 4.342 9.927l-1.477-.26-3.59 20.315 1.478.26zm.152.217a.188.188 0 0 1-.152-.217l-1.477-.261a1.688 1.688 0 0 0 1.368 1.955l.261-1.477zm2.77.49-2.77-.49-.26 1.477 2.77.49.26-1.477zm.218-.153a.188.188 0 0 1-.217.152l-.261 1.478a1.688 1.688 0 0 0 1.955-1.369l-1.477-.26zm3.589-20.315L3.893 30.797l1.477.261L8.96 10.743l-1.477-.261zm-.152-.218c.102.018.17.116.152.218l1.477.26a1.688 1.688 0 0 0-1.368-1.955l-.261 1.477zm-2.77-.49 2.77.49.26-1.477-2.77-.49-.26 1.478zm-.218.153a.188.188 0 0 1 .217-.152l.261-1.477a1.688 1.688 0 0 0-1.955 1.368l1.477.261zm14.095 23.841a3.094 3.094 0 0 0 1.093-2.1l-1.494-.13c-.037.42-.24.81-.563 1.08l.964 1.15zm-4.313 3.616 4.313-3.616-.964-1.15-4.312 3.617.963 1.15zm-2.257.71a3.094 3.094 0 0 0 2.257-.71l-.963-1.15a1.593 1.593 0 0 1-1.163.366l-.13 1.495zm-2.099-1.092a3.094 3.094 0 0 0 2.099 1.093l.131-1.495c-.42-.037-.81-.24-1.081-.563l-1.149.965zm-.712-2.258c-.071.817.185 1.63.712 2.258l1.15-.964a1.594 1.594 0 0 1-.367-1.163l-1.495-.13zm1.093-2.1a3.093 3.093 0 0 0-1.093 2.1l1.495.13c.037-.42.239-.81.563-1.08l-.965-1.15zm4.313-3.615-4.313 3.615.964 1.15 4.313-3.615-.964-1.15zm2.257-.711a3.094 3.094 0 0 0-2.257.711l.964 1.15a1.594 1.594 0 0 1 1.163-.367l.13-1.494zm2.1 1.092a3.094 3.094 0 0 0-2.1-1.092l-.13 1.494c.42.037.81.24 1.081.563l1.15-.965zm.711 2.259a3.094 3.094 0 0 0-.71-2.258l-1.15.963c.271.324.403.742.366 1.163l1.494.132zm.562 3.772c.421.037.81.239 1.082.563l1.148-.965a3.094 3.094 0 0 0-2.098-1.093l-.132 1.495zm-1.162.365a1.594 1.594 0 0 1 1.162-.365l.132-1.495a3.094 3.094 0 0 0-2.258.71l.964 1.15zm-5.03 4.219 5.03-4.219-.964-1.15-5.03 4.22.963 1.149zm-.566 1.081c.038-.42.24-.81.565-1.08l-.963-1.15a3.094 3.094 0 0 0-1.096 2.097l1.494.133zm.365 1.163a1.594 1.594 0 0 1-.365-1.163l-1.494-.133c-.073.817.182 1.629.707 2.258l1.152-.962zm1.08.562c-.421-.037-.81-.24-1.082-.563l-1.148.965a3.094 3.094 0 0 0 2.099 1.092l.13-1.494zm1.162-.366a1.594 1.594 0 0 1-1.162.366l-.131 1.494a3.094 3.094 0 0 0 2.257-.71l-.964-1.15zm5.03-4.218-5.03 4.218.964 1.15 5.03-4.22-.964-1.148zm.565-1.081c-.037.42-.24.809-.565 1.08l.963 1.15A3.094 3.094 0 0 0 23.03 37.3l-1.494-.133zm-.364-1.164c.271.324.402.743.364 1.163l1.494.134a3.094 3.094 0 0 0-.706-2.258l-1.152.961zm10.225 7.081c.42.037.81.24 1.081.563l1.15-.964a3.094 3.094 0 0 0-2.1-1.093l-.131 1.495zm-1.163.366a1.593 1.593 0 0 1 1.163-.365l.131-1.495a3.094 3.094 0 0 0-2.257.71l.963 1.15zm-3.592 3.018 3.593-3.018-.965-1.149-3.593 3.018.965 1.149zm-.564 1.081c.037-.42.24-.81.563-1.081l-.964-1.15a3.094 3.094 0 0 0-1.093 2.1l1.494.131zm.366 1.163a1.594 1.594 0 0 1-.366-1.163l-1.494-.13c-.072.816.184 1.628.71 2.257l1.15-.964zm1.082.563c-.421-.037-.81-.24-1.082-.563l-1.149.964a3.094 3.094 0 0 0 2.1 1.094l.13-1.495zm1.163-.366a1.593 1.593 0 0 1-1.163.366l-.131 1.495a3.094 3.094 0 0 0 2.257-.711l-.963-1.15zm3.592-3.013-3.592 3.013.963 1.15 3.593-3.014-.964-1.149zm.39-.486c-.096.186-.229.351-.39.486l.963 1.15c.312-.261.57-.581.758-.942l-1.33-.694zm.175-.597a1.594 1.594 0 0 1-.174.597l1.33.694c.188-.36.303-.755.339-1.16l-1.495-.131zm-.067-.62c.063.2.086.41.067.62l1.495.13a3.095 3.095 0 0 0-.132-1.201l-1.43.452zm-.3-.545c.135.16.236.346.3.546l1.43-.452a3.094 3.094 0 0 0-.582-1.06l-1.148.966zm-7.454-3.783c.42.037.81.239 1.081.563l1.15-.965a3.094 3.094 0 0 0-2.1-1.093l-.131 1.495zm-1.163.366a1.594 1.594 0 0 1 1.163-.366l.13-1.495a3.093 3.093 0 0 0-2.257.712l.964 1.15zm-3.594 3.013 3.594-3.013-.964-1.15-3.593 3.013.963 1.15zm-.523 1.064c.032-.415.224-.801.537-1.076l-.991-1.126a3.094 3.094 0 0 0-1.041 2.088l1.495.114zm.369 1.144c-.268-.319-.4-.73-.369-1.144l-1.495-.114a3.094 3.094 0 0 0 .714 2.222l1.15-.964zm1.063.562a1.594 1.594 0 0 1-1.063-.562l-1.15.964c.52.62 1.26 1.01 2.064 1.09l.149-1.492zm1.152-.34c-.325.26-.738.381-1.152.34l-.15 1.493a3.094 3.094 0 0 0 2.239-.662l-.936-1.172zm3.58-3.002-3.593 3.013.963 1.15 3.594-3.013-.964-1.15zm.564-1.081c-.037.42-.24.81-.564 1.081l.964 1.15a3.094 3.094 0 0 0 1.094-2.1l-1.494-.131zm-.367-1.164c.272.324.404.743.367 1.164l1.494.13a3.094 3.094 0 0 0-.712-2.258l-1.149.964zm7.38 6.9-2.766 2.32.964 1.149 2.766-2.319-.963-1.15zm.418-.426c-.128.156-.27.3-.423.432l.975 1.14c.22-.189.423-.396.606-.619l-1.158-.953zm1.366 2.043c.157-.601.129-1.235-.081-1.82l-1.412.507c.108.3.122.625.042.933l1.45.38zm-.962 1.547c.47-.407.805-.946.962-1.547l-1.451-.38c-.08.308-.253.584-.493.793l.982 1.133zm-1.668.732a3.078 3.078 0 0 0 1.668-.733l-.982-1.133c-.24.208-.539.34-.855.375l.17 1.49zm-1.79-.34c.55.292 1.173.41 1.79.34l-.17-1.49a1.578 1.578 0 0 1-.917-.175l-.702 1.326zm18.687-18.624-9.265-6.133-.828 1.251 9.265 6.132.828-1.25zm-.415 1.375v-1.5 1.5zm1.738.588a3.095 3.095 0 0 0-1.324-1.963l-.828 1.25c.352.234.598.598.682 1.012l1.47-.3zm-.452 2.324c.453-.684.616-1.52.452-2.324l-1.47.299c.084.414 0 .845-.233 1.198l1.251.827zm-1.963 1.325a3.094 3.094 0 0 0 1.963-1.325l-1.25-.827a1.594 1.594 0 0 1-1.012.682l.299 1.47zm-2.325-.452c.685.453 1.52.615 2.325.452l-.3-1.47c-.413.084-.844 0-1.197-.233l-.828 1.25zm-8.99-5.951 8.99 5.95.828-1.25-8.99-5.951-.827 1.25zm-.094-.05a.187.187 0 0 1 .069.031l.88-1.214a1.688 1.688 0 0 0-.617-.28l-.332 1.463zm-.075-.001a.187.187 0 0 1 .075.002l.332-1.463a1.688 1.688 0 0 0-.676-.015l.269 1.476zm-.07.028a.188.188 0 0 1 .07-.028l-.27-1.476c-.223.041-.437.127-.627.253l.827 1.25zm-.053.053a.187.187 0 0 1 .053-.053l-.827-1.251c-.19.125-.353.288-.478.478l1.252.826zm-.028.07a.188.188 0 0 1 .028-.07l-1.252-.826c-.126.19-.211.404-.252.628l1.476.268zm.002.075a.184.184 0 0 1-.002-.075l-1.476-.268c-.04.225-.035.455.015.677l1.463-.334zm.03.069a.188.188 0 0 1-.03-.069l-1.463.334c.051.222.146.432.28.616l1.214-.881zm.056.05a.188.188 0 0 1-.055-.05l-1.214.881c.134.184.304.34.5.457l.77-1.288zm7.457 4.935-7.428-4.916-.828 1.25 7.428 4.917.828-1.251zm.863.844a3.095 3.095 0 0 0-.868-.848l-.817 1.258c.176.115.328.263.447.437l1.238-.847zm.475 1.117c-.083-.4-.244-.78-.475-1.117l-1.238.847c.119.174.202.37.245.575l1.468-.305zm.01 1.214a3.095 3.095 0 0 0-.01-1.214l-1.468.305c.042.206.044.419.004.625l1.473.284zm-.46 1.123c.226-.34.382-.722.46-1.123l-1.474-.284c-.04.207-.12.404-.236.58l1.25.827zm-.855.861c.34-.227.63-.52.856-.86l-1.25-.829a1.595 1.595 0 0 1-.441.444l.836 1.245zm-1.12.466c.4-.08.781-.238 1.12-.466l-.835-1.245a1.593 1.593 0 0 1-.578.24l.293 1.47zm-1.214-.002c.4.081.813.081 1.214.002l-.293-1.471c-.206.04-.419.04-.625-.001l-.296 1.47zm-1.12-.468c.34.229.72.388 1.12.468l.296-1.47a1.593 1.593 0 0 1-.577-.241l-.839 1.243zm-7.421-4.911 7.427 4.915.828-1.25-7.427-4.916-.828 1.25zm-.1-.054a.188.188 0 0 1 .068.032l.891-1.207a1.688 1.688 0 0 0-.617-.285l-.342 1.46zm-.076-.002a.185.185 0 0 1 .076.002l.342-1.46a1.686 1.686 0 0 0-.68-.019l.262 1.477zm-.07.028a.188.188 0 0 1 .07-.028l-.262-1.477c-.226.04-.44.126-.632.252l.824 1.253zm-.053.053a.188.188 0 0 1 .053-.053l-.824-1.254c-.191.126-.355.29-.481.481l1.252.826zm-.029.07a.187.187 0 0 1 .029-.07l-1.252-.826a1.686 1.686 0 0 0-.253.632l1.476.264zm.002.076a.187.187 0 0 1-.002-.076l-1.476-.264c-.04.225-.035.457.017.68l1.461-.34zm.032.069a.186.186 0 0 1-.032-.069l-1.46.34c.051.223.148.433.284.618l1.208-.89zm.056.05a.187.187 0 0 1-.056-.05l-1.208.889c.136.184.307.34.505.455l.76-1.294zm5.899 3.903-5.864-3.881-.828 1.25 5.864 3.882.828-1.251zm1.31 1.965a3.094 3.094 0 0 0-1.305-1.961l-.839 1.243c.349.235.59.598.672 1.01l1.471-.292zm-.455 2.311c.45-.68.614-1.51.454-2.311l-1.47.293c.081.412-.003.84-.235 1.19l1.25.828zm-1.95 1.322c.798-.166 1.5-.641 1.95-1.322l-1.25-.828c-.233.35-.594.595-1.006.68l.306 1.47zm-2.315-.435c.684.444 1.516.6 2.315.434l-.306-1.468c-.411.085-.84.005-1.192-.224l-.817 1.258zm-.742-.49.737.487.827-1.252-.737-.487-.827 1.252zm-.62-2.615c.273.59.374 1.247.29 1.892l1.487.194a4.941 4.941 0 0 0-.416-2.717l-1.361.63zm-1.257-1.445c.547.353.983.854 1.257 1.445l1.36-.631a4.941 4.941 0 0 0-1.803-2.074l-.814 1.26zm-1.834-.55a3.442 3.442 0 0 1 1.834.55l.813-1.26a4.942 4.942 0 0 0-2.633-.79l-.014 1.5zm-1.844.516a3.442 3.442 0 0 1 1.844-.516l.014-1.5a4.942 4.942 0 0 0-2.647.74l.79 1.276zm-1.552-1.937c.23.42.37.884.41 1.362l1.495-.126a4.931 4.931 0 0 0-.59-1.957l-1.315.72zm-.928-1.078c.381.29.697.658.928 1.078l1.315-.721a4.932 4.932 0 0 0-1.334-1.55l-.91 1.193zm-1.286-.61c.467.111.905.319 1.286.61l.91-1.193a4.929 4.929 0 0 0-1.848-.876l-.348 1.46zm-1.422-.035a3.429 3.429 0 0 1 1.422.035l.348-1.459a4.93 4.93 0 0 0-2.044-.05l.274 1.474zm-1.678-3.255c.575.686.86 1.57.793 2.462l1.496.111a4.938 4.938 0 0 0-1.14-3.536l-1.15.963zm-2.285-1.212c.89.091 1.71.526 2.285 1.212l1.15-.963a4.938 4.938 0 0 0-3.283-1.741l-.152 1.492zm-.566-3.236c.227.73.205 1.513-.06 2.229l1.405.522a4.954 4.954 0 0 0 .087-3.196l-1.432.445zm-1.314-1.802a3.455 3.455 0 0 1 1.314 1.802l1.432-.445A4.954 4.954 0 0 0 19.3 27.32l-.863 1.227zm-2.14-.624a3.455 3.455 0 0 1 2.14.624l.863-1.227a4.955 4.955 0 0 0-3.07-.895l.067 1.498zm-2.076.813a3.455 3.455 0 0 1 2.076-.813l-.067-1.498a4.954 4.954 0 0 0-2.977 1.166l.968 1.145zm-4.315 3.62 4.313-3.618-.964-1.149-4.313 3.617.964 1.15zm-.757.92c.198-.35.456-.664.762-.925l-.973-1.14c-.44.374-.81.823-1.094 1.325l1.305.74zM6.65 31.18c.34.757.753 1.48 1.231 2.158l1.226-.865c-.423-.6-.788-1.24-1.09-1.909l-1.367.616zm-.22.295.774.136.26-1.478-.775-.136-.26 1.478zM9.117 11.94 5.822 30.606l1.477.26 3.295-18.664-1.477-.26zm3.486-.147-2.617-.461-.26 1.477 2.617.461.26-1.477zm10.341-1.62L12.36 11.79l.226 1.483 10.585-1.618-.227-1.483zm4.949.612a9.164 9.164 0 0 0-4.95-.613l.228 1.483a7.664 7.664 0 0 1 4.14.512l.582-1.382zm-4.987 3.508 4.99-2.127-.589-1.38-4.989 2.127.588 1.38zm-1.737 1.448a3.918 3.918 0 0 1 1.737-1.448l-.587-1.38a5.419 5.419 0 0 0-2.402 2.002l1.252.826zm-3.316 5.008 3.316-5.007-1.251-.828-3.315 5.007 1.25.828zm-.436 2.253a3.005 3.005 0 0 1 .437-2.254l-1.252-.827a4.505 4.505 0 0 0-.655 3.38l1.47-.299zm1.283 1.905a3.004 3.004 0 0 1-1.283-1.905l-1.47.3a4.505 4.505 0 0 0 1.924 2.855l.83-1.25zm2.957.572a3.943 3.943 0 0 1-2.958-.573l-.827 1.252a5.443 5.443 0 0 0 4.084.791l-.299-1.47zm2.5-1.683a3.943 3.943 0 0 1-2.5 1.683l.3 1.47a5.443 5.443 0 0 0 3.45-2.324l-1.25-.83zm1.174-1.78-1.175 1.781 1.252.826 1.175-1.78-1.252-.827zm3.483-.933-3.006.611.299 1.47 3.006-.611-.299-1.47zm5.694 4.575a8.939 8.939 0 0 1-4.884-4.195l-1.321.71a10.439 10.439 0 0 0 5.703 4.898l.502-1.413zm5.196.358a9.563 9.563 0 0 1-5.194-.357l-.506 1.412c1.926.69 4.006.834 6.009.413l-.309-1.468zm7.932-14.23L37.05 10.169l-.227 1.483 10.586 1.618.227-1.483zm2.375-.459-2.619.462.26 1.477 2.62-.461-.261-1.478zm4.164 19.278-3.295-18.67-1.477.261 3.295 18.67 1.477-.26zm-1.382 1.01.777-.142-.267-1.476-.777.141.267 1.476zm-.644 1.674c.463-.663.863-1.368 1.194-2.105l-1.368-.615a11.491 11.491 0 0 1-1.056 1.862l1.23.858zm-2.408-1.347c.476.32.864.754 1.127 1.263l1.332-.69a4.91 4.91 0 0 0-1.623-1.818l-.836 1.245zm-8.04-5.322 8.044 5.325.828-1.25-8.045-5.326-.828 1.25zm1.25-1.947c-.37.24-.756.455-1.155.643l.637 1.357c.461-.216.907-.464 1.334-.741l-.816-1.259zm.786-.51-.786.51.817 1.259.786-.511-.817-1.258zm.052-.051a.186.186 0 0 1-.052.05l.817 1.259c.186-.121.346-.277.472-.46l-1.237-.85zm.03-.067a.19.19 0 0 1-.03.067l1.237.849c.125-.183.214-.388.26-.605l-1.468-.311zm0-.074a.188.188 0 0 1 0 .073l1.467.312c.046-.217.048-.44.008-.659l-1.475.274zm-.027-.068c.014.021.023.044.027.068l1.475-.274a1.688 1.688 0 0 0-.244-.611l-1.258.817zm-.051-.052c.02.014.038.032.051.052l1.258-.817a1.687 1.687 0 0 0-.46-.472l-.849 1.237zm-.067-.029a.187.187 0 0 1 .067.029l.85-1.236a1.687 1.687 0 0 0-.606-.26l-.311 1.467zm-.074 0a.188.188 0 0 1 .074 0l.311-1.467a1.687 1.687 0 0 0-.658-.009l.273 1.475zm-.067.026a.187.187 0 0 1 .067-.027l-.273-1.475c-.218.04-.426.124-.612.245l.818 1.257zm-.794.51.79-.507-.81-1.263-.79.508.81 1.262zm.345-.626v-.005h-1.5v.005h1.5zm-2.663 1.715a9.139 9.139 0 0 0 2.322-1.087l-.82-1.256a7.64 7.64 0 0 1-1.94.909l.438 1.434zm-5.779-.14a9.187 9.187 0 0 0 5.778.14l-.437-1.435a7.688 7.688 0 0 1-4.834-.117l-.507 1.412zm-2.983-1.807a8.531 8.531 0 0 0 2.988 1.809l.497-1.415a7.031 7.031 0 0 1-2.462-1.491l-1.023 1.097zm-2.012-2.855a8.533 8.533 0 0 0 2.012 2.855l1.023-1.097a7.03 7.03 0 0 1-1.658-2.353l-1.377.595zm-.071-.063a.172.172 0 0 1 .08.082l1.36-.632a1.672 1.672 0 0 0-.772-.793l-.668 1.343zm-.114-.014a.172.172 0 0 1 .114.014l.668-1.343a1.672 1.672 0 0 0-1.098-.137l.316 1.466zm-4.486.913 4.478-.91-.3-1.47-4.477.91.3 1.47zm-1.129 2.104 1.605-2.425-1.25-.828-1.606 2.425 1.251.828zm-2.26 1.524a3.563 3.563 0 0 0 2.26-1.524l-1.25-.828a2.063 2.063 0 0 1-1.31.882l.3 1.47zm-2.676-.52c.787.522 1.75.709 2.676.52l-.3-1.47c-.535.11-1.092.001-1.549-.3l-.827 1.25zm-.728-.72c.193.285.44.53.728.72l.827-1.25a1.127 1.127 0 0 1-.311-.31l-1.244.84zm-.396-.945c.069.337.203.658.396.944l1.244-.839a1.125 1.125 0 0 1-.17-.405l-1.47.3zm-.005-1.025c-.065.339-.064.687.005 1.025l1.47-.3a1.126 1.126 0 0 1-.002-.439l-1.473-.286zm.388-.948c-.19.288-.322.61-.388.948l1.473.287c.028-.146.085-.284.166-.407l-1.25-.828zm3.311-5.005-3.31 5.005 1.25.828 3.312-5.005-1.252-.828zm1.574-1.307a3.572 3.572 0 0 0-1.572 1.305l1.248.832c.224-.336.54-.6.912-.758l-.588-1.38zm9.004-3.84-9.004 3.84.588 1.38 9.004-3.84-.588-1.38zm4.99-.631a9.186 9.186 0 0 0-4.99.63l.588 1.38a7.687 7.687 0 0 1 4.176-.527l.227-1.483z" fill="url(#d)" fill-opacity=".6" mask="url(#e)"/><path d="m52.563 9.504.13.739-.13-.739zm2.77-.49-.13-.738.13.739zm-3.53 1.577.738-.13-.738.13zm3.588 20.315.739-.13-.739.13zm1.087.76-.13-.738.13.739zm2.77-.489.13.739-.13-.739zm.76-1.086-.738.13.738-.13zM56.42 9.775l.738-.13-.738.13zM.014 30.112l.739.13-.739-.13zm3.59-20.315-.74-.13.74.13zM.773 31.199l.131-.739-.13.739zm2.771.49.13-.74-.13.74zm1.087-.761-.739-.13.739.13zM8.22 10.612l.739.13-.739-.13zm-.76-1.086.13-.739-.13.739zm-2.77-.49-.13.739.13-.739zm13.265 24.157.482.575-.482-.575zm.828-1.59-.747-.066.747.066zm-5.14 5.206.481.575-.481-.575zm-1.71.538-.066.748.066-.748zm-1.59-.827-.575.482.575-.482zm-.54-1.71.748.065-.747-.066zm.828-1.591-.482-.575.482.575zm4.313-3.615.482.575-.482-.575zm3.3.288.576-.481-.575.481zm3.504 5.63.576-.481-.002-.002-.574.482zm-3.3-.29-.482-.575.482.575zm-5.03 4.218.48.575h.001l-.482-.575zm-.295 3.3-.576.481.002.002.574-.483zm3.3.29.482.575-.482-.575zm5.03-4.219-.482-.575.482.575zm.83-1.589.747.067-.747-.067zm9.18 5.104-.066.748.066-.748zm1.59.828-.575.482.575-.482zm-3.3-.29-.482-.575v.001l.482.574zm-3.594 3.018.482.575-.482-.575zm-.828 1.59-.747-.065.747.066zm.538 1.711-.574.482.574-.482zm3.302.29.481.575-.482-.575zm3.592-3.013-.481-.575h-.001l.482.575zm.574-.714-.665-.347.665.347zm.157-1.79.715-.225-.715.226zm-6.813-4.022.574-.482-.574.482zm-3.301-.288.482.574-.482-.574zm-3.594 3.012-.481-.575-.007.006-.007.006.495.563zm-.788 1.582.747.057-.747-.057zm.54 1.683-.574.482.575-.482zm1.564.826-.074.747.074-.747zm1.696-.5.468.585.007-.005.006-.006-.481-.575zm3.593-3.013.482.575-.482-.575zm.829-1.59.747.065-.747-.066zm6.748 6.246.482.575.006-.006-.488-.57zm-2.766 2.318-.482-.575-.854.716.985.522.35-.663zm3.281-2.843.706-.254-.446-1.243-.84 1.02.58.477zm14.64-14.494v.75h2.492l-2.078-1.375-.414.625zm-9.265-6.132.414-.626-.261-.172-.307.064.154.734zm9.264 6.132v-.75H46.63l2.078 1.375.414-.625zm1.003 1.487.735-.15-.735.15zm-3.59 2.422-.415.626.414-.626zm-8.99-5.95-.44.607.012.009.014.009.414-.626zm-.343-.156-.166.732.166-.732zm-.376-.008-.134-.738.134.738zm-.348.14-.414-.625.414.625zm-.266.266.626.413-.626-.413zm-.14.35-.738-.135.738.134zm.009.375-.732.167.732-.167zm.155.342-.607.441.607-.44zm.277.254.414-.626-.014-.009-.015-.009-.385.644zm7.428 4.916-.414.626.006.003.408-.629zm.658.643-.62.423.62-.423zm.36.846.734-.153-.734.153zm-.989 2.422-.417-.622.418.623zm-.849.353-.146-.735.146.735zm-.919 0 .148-.736-.148.735zm-.848-.355.42-.622-.006-.004-.414.626zm-7.427-4.916-.446.604.016.011.016.01.414-.625zm-.72-.169-.132-.738.131.738zm-.62.407.627.413-.627-.413zm-.14.351.738.132-.738-.132zm.01.378.73-.17-.73.17zm.158.343-.604.445.604-.445zm.28.253.415-.625-.017-.012-.018-.01-.38.647zm5.865 3.881.42-.621-.006-.004-.414.625zm.988 1.486.736-.146-.736.146zm-1.822 2.752.153.734-.153-.734zm-1.754-.33-.413.627.005.003.408-.63zm-.737-.486-.743-.097-.061.465.391.258.413-.626zm-.353-2.305.68-.315-.68.315zm-1.53-1.76.407-.63-.407.63zm-2.234-.669-.007.75.007-.75zm-2.245.628-.748.063.103 1.218 1.04-.643-.395-.638zm-.5-1.66.657-.36-.658.36zM27.441 38.1l.454-.596-.454.596zm-1.567-.742-.174.73.174-.73zm-1.733-.043-.748-.056-.072.971.957-.178-.137-.737zm-.966-3 .575-.481-.575.481zm-2.784-1.476-.703-.261-.337.908.964.1.076-.747zm.074-2.712.716-.223-.716.223zm-1.598-2.193.43-.614-.43.614zm-5.132.23.482.574.002-.002-.484-.572zM9.423 31.78l-.482-.575-.004.004.486.57zm-.928 1.125-.613.432.683.967.583-1.03-.653-.37zm-1.16-2.034.684-.308-.163-.362-.392-.069-.13.74zm-.775-.136-.738-.13-.13.74.739.129.13-.739zm3.296-18.665.13-.738-.739-.13-.13.738.739.13zm2.617.462-.13.738.121.022.122-.019-.113-.741zm10.585-1.618.113.741-.113-.741zm4.544.562.294.69 1.628-.694-1.631-.687-.291.691zm-4.99 2.127.294.69-.294-.69zm-2.069 1.725.626.414-.626-.414zm-3.315 5.007-.625-.414.625.414zm1.058 5.197-.415.625.002.001.413-.626zm3.52.682.15.735-.15-.735zm2.976-2.004.625.415v-.002l-.625-.413zm1.175-1.781-.15-.735-.304.062-.172.26.626.413zm3.007-.611.66-.355-.263-.491-.547.11.15.736zm5.293 4.547.253-.706-.002-.001-.251.707zm13.266-13.838-.114.742.122.018.122-.021-.13-.739zM36.936 10.91l.114-.741-.114.741zm13.205 1.157.739-.13-.13-.739-.74.13.131.74zm3.295 18.67.134.737.735-.133-.13-.735-.739.13zm-.777.14-.133-.738-.389.07-.162.36.684.308zm-1.125 1.984-.666.345.571 1.102.71-1.018-.615-.43zm-1.375-1.54.418-.623-.004-.003-.414.625zm-8.045-5.326-.318-.678-1.21.567 1.114.737.414-.625zm1.245-.691.408.629-.408-.63zm.787-.511.408.629-.408-.63zm.262-.256.618.425-.618-.425zm.149-.702.737-.137-.737.137zm-.136-.34.629-.408-.63.409zm-.255-.261-.425.618.425-.618zm-.702-.15.136.738-.136-.737zm-.34.137.405.63.004-.002-.41-.628zm-.79.507-.406-.632-.344.222v.41h.75zm0 .005.41.628.34-.222v-.406h-.75zm-2.132.998.218.717h.001l-.22-.717zm-5.307-.129.253-.706-.004-.001-.249.707zm-4.56-4.253.689-.298-.004-.009-.005-.01-.68.317zm-.425-.437.334-.672-.334.672zm-.606-.076.15.735.008-.002-.158-.733zm-4.477.911-.15-.735-.304.062-.172.26.626.413zm-1.605 2.425-.626-.414.626.414zm-1.785 1.203-.15-.735.15.735zm-2.113-.41-.413.625.413-.625zm-.52-.515.623-.42-.622.42zm-.285-1.407-.737-.143.737.143zm.277-.677.625.414-.625-.414zm3.311-5.005-.624-.416-.002.002.626.414zm1.242-1.031.294.69-.294-.69zm9.004-3.84-.294-.69.294.69zm20.34-1.247 2.77-.49-.26-1.477-2.77.49.26 1.477zm-.152.217a.188.188 0 0 1 .152-.217l-.26-1.477a1.688 1.688 0 0 0-1.369 1.955l1.477-.26zm3.589 20.316L52.54 10.46l-1.477.261 3.589 20.316 1.477-.261zm.217.152a.188.188 0 0 1-.217-.152l-1.477.26a1.688 1.688 0 0 0 1.955 1.37l-.26-1.478zm2.77-.49-2.77.49.261 1.477 2.77-.49-.26-1.476zm.153-.217c.018.102-.05.2-.152.218l.26 1.477a1.688 1.688 0 0 0 1.369-1.956l-1.477.261zM55.68 9.905l3.589 20.316 1.477-.26-3.589-20.316-1.477.26zm-.217-.152c.102-.018.2.05.217.152l1.477-.26a1.688 1.688 0 0 0-1.955-1.369l.26 1.477zM.753 30.243 4.342 9.927l-1.477-.26-3.59 20.315 1.478.26zm.152.217a.188.188 0 0 1-.152-.217l-1.477-.261a1.688 1.688 0 0 0 1.368 1.955l.261-1.477zm2.77.49-2.77-.49-.26 1.477 2.77.49.26-1.477zm.218-.153a.188.188 0 0 1-.217.152l-.261 1.478a1.688 1.688 0 0 0 1.955-1.369l-1.477-.26zm3.589-20.315L3.893 30.797l1.477.261L8.96 10.743l-1.477-.261zm-.152-.218c.102.018.17.116.152.218l1.477.26a1.688 1.688 0 0 0-1.368-1.955l-.261 1.477zm-2.77-.49 2.77.49.26-1.477-2.77-.49-.26 1.478zm-.218.153a.188.188 0 0 1 .217-.152l.261-1.477a1.688 1.688 0 0 0-1.955 1.368l1.477.261zm14.095 23.841a3.094 3.094 0 0 0 1.093-2.1l-1.494-.13c-.037.42-.24.81-.563 1.08l.964 1.15zm-4.313 3.616 4.313-3.616-.964-1.15-4.312 3.617.963 1.15zm-2.257.71a3.094 3.094 0 0 0 2.257-.71l-.963-1.15a1.593 1.593 0 0 1-1.163.366l-.13 1.495zm-2.099-1.092a3.094 3.094 0 0 0 2.099 1.093l.131-1.495c-.42-.037-.81-.24-1.081-.563l-1.149.965zm-.712-2.258c-.071.817.185 1.63.712 2.258l1.15-.964a1.594 1.594 0 0 1-.367-1.163l-1.495-.13zm1.093-2.1a3.093 3.093 0 0 0-1.093 2.1l1.495.13c.037-.42.239-.81.563-1.08l-.965-1.15zm4.313-3.615-4.313 3.615.964 1.15 4.313-3.615-.964-1.15zm2.257-.711a3.094 3.094 0 0 0-2.257.711l.964 1.15a1.594 1.594 0 0 1 1.163-.367l.13-1.494zm2.1 1.092a3.094 3.094 0 0 0-2.1-1.092l-.13 1.494c.42.037.81.24 1.081.563l1.15-.965zm.711 2.259a3.094 3.094 0 0 0-.71-2.258l-1.15.963c.271.324.403.742.366 1.163l1.494.132zm.562 3.772c.421.037.81.239 1.082.563l1.148-.965a3.094 3.094 0 0 0-2.098-1.093l-.132 1.495zm-1.162.365a1.594 1.594 0 0 1 1.162-.365l.132-1.495a3.094 3.094 0 0 0-2.258.71l.964 1.15zm-5.03 4.219 5.03-4.219-.964-1.15-5.03 4.22.963 1.149zm-.566 1.081c.038-.42.24-.81.565-1.08l-.963-1.15a3.094 3.094 0 0 0-1.096 2.097l1.494.133zm.365 1.163a1.594 1.594 0 0 1-.365-1.163l-1.494-.133c-.073.817.182 1.629.707 2.258l1.152-.962zm1.08.562c-.421-.037-.81-.24-1.082-.563l-1.148.965a3.094 3.094 0 0 0 2.099 1.092l.13-1.494zm1.162-.366a1.594 1.594 0 0 1-1.162.366l-.131 1.494a3.094 3.094 0 0 0 2.257-.71l-.964-1.15zm5.03-4.218-5.03 4.218.964 1.15 5.03-4.22-.964-1.148zm.565-1.081c-.037.42-.24.809-.565 1.08l.963 1.15A3.094 3.094 0 0 0 23.03 37.3l-1.494-.133zm-.364-1.164c.271.324.402.743.364 1.163l1.494.134a3.094 3.094 0 0 0-.706-2.258l-1.152.961zm10.225 7.081c.42.037.81.24 1.081.563l1.15-.964a3.094 3.094 0 0 0-2.1-1.093l-.131 1.495zm-1.163.366a1.593 1.593 0 0 1 1.163-.365l.131-1.495a3.094 3.094 0 0 0-2.257.71l.963 1.15zm-3.592 3.018 3.593-3.018-.965-1.149-3.593 3.018.965 1.149zm-.564 1.081c.037-.42.24-.81.563-1.081l-.964-1.15a3.094 3.094 0 0 0-1.093 2.1l1.494.131zm.366 1.163a1.594 1.594 0 0 1-.366-1.163l-1.494-.13c-.072.816.184 1.628.71 2.257l1.15-.964zm1.082.563c-.421-.037-.81-.24-1.082-.563l-1.149.964a3.094 3.094 0 0 0 2.1 1.094l.13-1.495zm1.163-.366a1.593 1.593 0 0 1-1.163.366l-.131 1.495a3.094 3.094 0 0 0 2.257-.711l-.963-1.15zm3.592-3.013-3.592 3.013.963 1.15 3.593-3.014-.964-1.149zm.39-.486c-.096.186-.229.351-.39.486l.963 1.15c.312-.261.57-.581.758-.942l-1.33-.694zm.175-.597a1.594 1.594 0 0 1-.174.597l1.33.694c.188-.36.303-.755.339-1.16l-1.495-.131zm-.067-.62c.063.2.086.41.067.62l1.495.13a3.095 3.095 0 0 0-.132-1.201l-1.43.452zm-.3-.545c.135.16.236.346.3.546l1.43-.452a3.094 3.094 0 0 0-.582-1.06l-1.148.966zm-7.454-3.783c.42.037.81.239 1.081.563l1.15-.965a3.094 3.094 0 0 0-2.1-1.093l-.131 1.495zm-1.163.366a1.594 1.594 0 0 1 1.163-.366l.13-1.495a3.093 3.093 0 0 0-2.257.712l.964 1.15zm-3.594 3.013 3.594-3.013-.964-1.15-3.593 3.013.963 1.15zm-.523 1.064c.032-.415.224-.801.537-1.076l-.991-1.126a3.094 3.094 0 0 0-1.041 2.088l1.495.114zm.369 1.144c-.268-.319-.4-.73-.369-1.144l-1.495-.114a3.094 3.094 0 0 0 .714 2.222l1.15-.964zm1.063.562a1.594 1.594 0 0 1-1.063-.562l-1.15.964c.52.62 1.26 1.01 2.064 1.09l.149-1.492zm1.152-.34c-.325.26-.738.381-1.152.34l-.15 1.493a3.094 3.094 0 0 0 2.239-.662l-.936-1.172zm3.58-3.002-3.593 3.013.963 1.15 3.594-3.013-.964-1.15zm.564-1.081c-.037.42-.24.81-.564 1.081l.964 1.15a3.094 3.094 0 0 0 1.094-2.1l-1.494-.131zm-.367-1.164c.272.324.404.743.367 1.164l1.494.13a3.094 3.094 0 0 0-.712-2.258l-1.149.964zm7.38 6.9-2.766 2.32.964 1.149 2.766-2.319-.963-1.15zm.418-.426c-.128.156-.27.3-.423.432l.975 1.14c.22-.189.423-.396.606-.619l-1.158-.953zm1.366 2.043c.157-.601.129-1.235-.081-1.82l-1.412.507c.108.3.122.625.042.933l1.45.38zm-.962 1.547c.47-.407.805-.946.962-1.547l-1.451-.38c-.08.308-.253.584-.493.793l.982 1.133zm-1.668.732a3.078 3.078 0 0 0 1.668-.733l-.982-1.133c-.24.208-.539.34-.855.375l.17 1.49zm-1.79-.34c.55.292 1.173.41 1.79.34l-.17-1.49a1.578 1.578 0 0 1-.917-.175l-.702 1.326zm18.687-18.624-9.265-6.133-.828 1.251 9.265 6.132.828-1.25zm-.415 1.375v-1.5 1.5zm1.738.588a3.095 3.095 0 0 0-1.324-1.963l-.828 1.25c.352.234.598.598.682 1.012l1.47-.3zm-.452 2.324c.453-.684.616-1.52.452-2.324l-1.47.299c.084.414 0 .845-.233 1.198l1.251.827zm-1.963 1.325a3.094 3.094 0 0 0 1.963-1.325l-1.25-.827a1.594 1.594 0 0 1-1.012.682l.299 1.47zm-2.325-.452c.685.453 1.52.615 2.325.452l-.3-1.47c-.413.084-.844 0-1.197-.233l-.828 1.25zm-8.99-5.951 8.99 5.95.828-1.25-8.99-5.951-.827 1.25zm-.094-.05a.187.187 0 0 1 .069.031l.88-1.214a1.688 1.688 0 0 0-.617-.28l-.332 1.463zm-.075-.001a.187.187 0 0 1 .075.002l.332-1.463a1.688 1.688 0 0 0-.676-.015l.269 1.476zm-.07.028a.188.188 0 0 1 .07-.028l-.27-1.476c-.223.041-.437.127-.627.253l.827 1.25zm-.053.053a.187.187 0 0 1 .053-.053l-.827-1.251c-.19.125-.353.288-.478.478l1.252.826zm-.028.07a.188.188 0 0 1 .028-.07l-1.252-.826c-.126.19-.211.404-.252.628l1.476.268zm.002.075a.184.184 0 0 1-.002-.075l-1.476-.268c-.04.225-.035.455.015.677l1.463-.334zm.03.069a.188.188 0 0 1-.03-.069l-1.463.334c.051.222.146.432.28.616l1.214-.881zm.056.05a.188.188 0 0 1-.055-.05l-1.214.881c.134.184.304.34.5.457l.77-1.288zm7.457 4.935-7.428-4.916-.828 1.25 7.428 4.917.828-1.251zm.863.844a3.095 3.095 0 0 0-.868-.848l-.817 1.258c.176.115.328.263.447.437l1.238-.847zm.475 1.117c-.083-.4-.244-.78-.475-1.117l-1.238.847c.119.174.202.37.245.575l1.468-.305zm.01 1.214a3.095 3.095 0 0 0-.01-1.214l-1.468.305c.042.206.044.419.004.625l1.473.284zm-.46 1.123c.226-.34.382-.722.46-1.123l-1.474-.284c-.04.207-.12.404-.236.58l1.25.827zm-.855.861c.34-.227.63-.52.856-.86l-1.25-.829a1.595 1.595 0 0 1-.441.444l.836 1.245zm-1.12.466c.4-.08.781-.238 1.12-.466l-.835-1.245a1.593 1.593 0 0 1-.578.24l.293 1.47zm-1.214-.002c.4.081.813.081 1.214.002l-.293-1.471c-.206.04-.419.04-.625-.001l-.296 1.47zm-1.12-.468c.34.229.72.388 1.12.468l.296-1.47a1.593 1.593 0 0 1-.577-.241l-.839 1.243zm-7.421-4.911 7.427 4.915.828-1.25-7.427-4.916-.828 1.25zm-.1-.054a.188.188 0 0 1 .068.032l.891-1.207a1.688 1.688 0 0 0-.617-.285l-.342 1.46zm-.076-.002a.185.185 0 0 1 .076.002l.342-1.46a1.686 1.686 0 0 0-.68-.019l.262 1.477zm-.07.028a.188.188 0 0 1 .07-.028l-.262-1.477c-.226.04-.44.126-.632.252l.824 1.253zm-.053.053a.188.188 0 0 1 .053-.053l-.824-1.254c-.191.126-.355.29-.481.481l1.252.826zm-.029.07a.187.187 0 0 1 .029-.07l-1.252-.826a1.686 1.686 0 0 0-.253.632l1.476.264zm.002.076a.187.187 0 0 1-.002-.076l-1.476-.264c-.04.225-.035.457.017.68l1.461-.34zm.032.069a.186.186 0 0 1-.032-.069l-1.46.34c.051.223.148.433.284.618l1.208-.89zm.056.05a.187.187 0 0 1-.056-.05l-1.208.889c.136.184.307.34.505.455l.76-1.294zm5.899 3.903-5.864-3.881-.828 1.25 5.864 3.882.828-1.251zm1.31 1.965a3.094 3.094 0 0 0-1.305-1.961l-.839 1.243c.349.235.59.598.672 1.01l1.471-.292zm-.455 2.311c.45-.68.614-1.51.454-2.311l-1.47.293c.081.412-.003.84-.235 1.19l1.25.828zm-1.95 1.322c.798-.166 1.5-.641 1.95-1.322l-1.25-.828c-.233.35-.594.595-1.006.68l.306 1.47zm-2.315-.435c.684.444 1.516.6 2.315.434l-.306-1.468c-.411.085-.84.005-1.192-.224l-.817 1.258zm-.742-.49.737.487.827-1.252-.737-.487-.827 1.252zm-.62-2.615c.273.59.374 1.247.29 1.892l1.487.194a4.941 4.941 0 0 0-.416-2.717l-1.361.63zm-1.257-1.445c.547.353.983.854 1.257 1.445l1.36-.631a4.941 4.941 0 0 0-1.803-2.074l-.814 1.26zm-1.834-.55a3.442 3.442 0 0 1 1.834.55l.813-1.26a4.942 4.942 0 0 0-2.633-.79l-.014 1.5zm-1.844.516a3.442 3.442 0 0 1 1.844-.516l.014-1.5a4.942 4.942 0 0 0-2.647.74l.79 1.276zm-1.552-1.937c.23.42.37.884.41 1.362l1.495-.126a4.931 4.931 0 0 0-.59-1.957l-1.315.72zm-.928-1.078c.381.29.697.658.928 1.078l1.315-.721a4.932 4.932 0 0 0-1.334-1.55l-.91 1.193zm-1.286-.61c.467.111.905.319 1.286.61l.91-1.193a4.929 4.929 0 0 0-1.848-.876l-.348 1.46zm-1.422-.035a3.429 3.429 0 0 1 1.422.035l.348-1.459a4.93 4.93 0 0 0-2.044-.05l.274 1.474zm-1.678-3.255c.575.686.86 1.57.793 2.462l1.496.111a4.938 4.938 0 0 0-1.14-3.536l-1.15.963zm-2.285-1.212c.89.091 1.71.526 2.285 1.212l1.15-.963a4.938 4.938 0 0 0-3.283-1.741l-.152 1.492zm-.566-3.236c.227.73.205 1.513-.06 2.229l1.405.522a4.954 4.954 0 0 0 .087-3.196l-1.432.445zm-1.314-1.802a3.455 3.455 0 0 1 1.314 1.802l1.432-.445A4.954 4.954 0 0 0 19.3 27.32l-.863 1.227zm-2.14-.624a3.455 3.455 0 0 1 2.14.624l.863-1.227a4.955 4.955 0 0 0-3.07-.895l.067 1.498zm-2.076.813a3.455 3.455 0 0 1 2.076-.813l-.067-1.498a4.954 4.954 0 0 0-2.977 1.166l.968 1.145zm-4.315 3.62 4.313-3.618-.964-1.149-4.313 3.617.964 1.15zm-.757.92c.198-.35.456-.664.762-.925l-.973-1.14c-.44.374-.81.823-1.094 1.325l1.305.74zM6.65 31.18c.34.757.753 1.48 1.231 2.158l1.226-.865c-.423-.6-.788-1.24-1.09-1.909l-1.367.616zm-.22.295.774.136.26-1.478-.775-.136-.26 1.478zM9.117 11.94 5.822 30.606l1.477.26 3.295-18.664-1.477-.26zm3.486-.147-2.617-.461-.26 1.477 2.617.461.26-1.477zm10.341-1.62L12.36 11.79l.226 1.483 10.585-1.618-.227-1.483zm4.949.612a9.164 9.164 0 0 0-4.95-.613l.228 1.483a7.664 7.664 0 0 1 4.14.512l.582-1.382zm-4.987 3.508 4.99-2.127-.589-1.38-4.989 2.127.588 1.38zm-1.737 1.448a3.918 3.918 0 0 1 1.737-1.448l-.587-1.38a5.419 5.419 0 0 0-2.402 2.002l1.252.826zm-3.316 5.008 3.316-5.007-1.251-.828-3.315 5.007 1.25.828zm-.436 2.253a3.005 3.005 0 0 1 .437-2.254l-1.252-.827a4.505 4.505 0 0 0-.655 3.38l1.47-.299zm1.283 1.905a3.004 3.004 0 0 1-1.283-1.905l-1.47.3a4.505 4.505 0 0 0 1.924 2.855l.83-1.25zm2.957.572a3.943 3.943 0 0 1-2.958-.573l-.827 1.252a5.443 5.443 0 0 0 4.084.791l-.299-1.47zm2.5-1.683a3.943 3.943 0 0 1-2.5 1.683l.3 1.47a5.443 5.443 0 0 0 3.45-2.324l-1.25-.83zm1.174-1.78-1.175 1.781 1.252.826 1.175-1.78-1.252-.827zm3.483-.933-3.006.611.299 1.47 3.006-.611-.299-1.47zm5.694 4.575a8.939 8.939 0 0 1-4.884-4.195l-1.321.71a10.439 10.439 0 0 0 5.703 4.898l.502-1.413zm5.196.358a9.563 9.563 0 0 1-5.194-.357l-.506 1.412c1.926.69 4.006.834 6.009.413l-.309-1.468zm7.932-14.23L37.05 10.169l-.227 1.483 10.586 1.618.227-1.483zm2.375-.459-2.619.462.26 1.477 2.62-.461-.261-1.478zm4.164 19.278-3.295-18.67-1.477.261 3.295 18.67 1.477-.26zm-1.382 1.01.777-.142-.267-1.476-.777.141.267 1.476zm-.644 1.674c.463-.663.863-1.368 1.194-2.105l-1.368-.615a11.491 11.491 0 0 1-1.056 1.862l1.23.858zm-2.408-1.347c.476.32.864.754 1.127 1.263l1.332-.69a4.91 4.91 0 0 0-1.623-1.818l-.836 1.245zm-8.04-5.322 8.044 5.325.828-1.25-8.045-5.326-.828 1.25zm1.25-1.947c-.37.24-.756.455-1.155.643l.637 1.357c.461-.216.907-.464 1.334-.741l-.816-1.259zm.786-.51-.786.51.817 1.259.786-.511-.817-1.258zm.052-.051a.186.186 0 0 1-.052.05l.817 1.259c.186-.121.346-.277.472-.46l-1.237-.85zm.03-.067a.19.19 0 0 1-.03.067l1.237.849c.125-.183.214-.388.26-.605l-1.468-.311zm0-.074a.188.188 0 0 1 0 .073l1.467.312c.046-.217.048-.44.008-.659l-1.475.274zm-.027-.068c.014.021.023.044.027.068l1.475-.274a1.688 1.688 0 0 0-.244-.611l-1.258.817zm-.051-.052c.02.014.038.032.051.052l1.258-.817a1.687 1.687 0 0 0-.46-.472l-.849 1.237zm-.067-.029a.187.187 0 0 1 .067.029l.85-1.236a1.687 1.687 0 0 0-.606-.26l-.311 1.467zm-.074 0a.188.188 0 0 1 .074 0l.311-1.467a1.687 1.687 0 0 0-.658-.009l.273 1.475zm-.067.026a.187.187 0 0 1 .067-.027l-.273-1.475c-.218.04-.426.124-.612.245l.818 1.257zm-.794.51.79-.507-.81-1.263-.79.508.81 1.262zm.345-.626v-.005h-1.5v.005h1.5zm-2.663 1.715a9.139 9.139 0 0 0 2.322-1.087l-.82-1.256a7.64 7.64 0 0 1-1.94.909l.438 1.434zm-5.779-.14a9.187 9.187 0 0 0 5.778.14l-.437-1.435a7.688 7.688 0 0 1-4.834-.117l-.507 1.412zm-2.983-1.807a8.531 8.531 0 0 0 2.988 1.809l.497-1.415a7.031 7.031 0 0 1-2.462-1.491l-1.023 1.097zm-2.012-2.855a8.533 8.533 0 0 0 2.012 2.855l1.023-1.097a7.03 7.03 0 0 1-1.658-2.353l-1.377.595zm-.071-.063a.172.172 0 0 1 .08.082l1.36-.632a1.672 1.672 0 0 0-.772-.793l-.668 1.343zm-.114-.014a.172.172 0 0 1 .114.014l.668-1.343a1.672 1.672 0 0 0-1.098-.137l.316 1.466zm-4.486.913 4.478-.91-.3-1.47-4.477.91.3 1.47zm-1.129 2.104 1.605-2.425-1.25-.828-1.606 2.425 1.251.828zm-2.26 1.524a3.563 3.563 0 0 0 2.26-1.524l-1.25-.828a2.063 2.063 0 0 1-1.31.882l.3 1.47zm-2.676-.52c.787.522 1.75.709 2.676.52l-.3-1.47c-.535.11-1.092.001-1.549-.3l-.827 1.25zm-.728-.72c.193.285.44.53.728.72l.827-1.25a1.127 1.127 0 0 1-.311-.31l-1.244.84zm-.396-.945c.069.337.203.658.396.944l1.244-.839a1.125 1.125 0 0 1-.17-.405l-1.47.3zm-.005-1.025c-.065.339-.064.687.005 1.025l1.47-.3a1.126 1.126 0 0 1-.002-.439l-1.473-.286zm.388-.948c-.19.288-.322.61-.388.948l1.473.287c.028-.146.085-.284.166-.407l-1.25-.828zm3.311-5.005-3.31 5.005 1.25.828 3.312-5.005-1.252-.828zm1.574-1.307a3.572 3.572 0 0 0-1.572 1.305l1.248.832c.224-.336.54-.6.912-.758l-.588-1.38zm9.004-3.84-9.004 3.84.588 1.38 9.004-3.84-.588-1.38zm4.99-.631a9.186 9.186 0 0 0-4.99.63l.588 1.38a7.687 7.687 0 0 1 4.176-.527l.227-1.483z" fill="url(#f)" fill-opacity=".3" mask="url(#e)"/></g><defs><radialGradient id="d" cx="0" cy="0" r="1" gradientUnits="userSpaceOnUse" gradientTransform="matrix(0 36.0218 -52.1108 0 30.012 9.377)"><stop stop-color="#fff"/><stop offset="1" stop-color="#fff" stop-opacity="0"/></radialGradient><radialGradient id="f" cx="0" cy="0" r="1" gradientUnits="userSpaceOnUse" gradientTransform="matrix(0 -20.7455 30.0115 0 30.012 50.491)"><stop stop-color="#fff"/><stop offset="1" stop-color="#fff" stop-opacity="0"/></radialGradient><linearGradient id="c" x1="2.477" y1="10.069" x2="16.989" y2="63.977" gradientUnits="userSpaceOnUse"><stop stop-color="#fff" stop-opacity=".6"/><stop offset="1" stop-color="#fff" stop-opacity="0"/></linearGradient><clipPath id="a"><path fill="#fff" d="M0 0h60v60H0z"/></clipPath><filter id="b" x="-375" y="-366" width="810.023" height="791.491" filterUnits="userSpaceOnUse" color-interpolation-filters="sRGB"><feFlood flood-opacity="0" result="BackgroundImageFix"/><feGaussianBlur in="BackgroundImageFix" stdDeviation="187.5"/><feComposite in2="SourceAlpha" operator="in" result="effect1_backgroundBlur_8462_42761"/><feColorMatrix in="SourceAlpha" values="0 0 0 0 0 0 0 0 0 0 0 0 0 0 0 0 0 0 127 0" result="hardAlpha"/><feOffset dy="1.5"/><feGaussianBlur stdDeviation=".75"/><feComposite in2="hardAlpha" operator="out"/><feColorMatrix values="0 0 0 0 0 0 0 0 0 0 0 0 0 0 0 0 0 0 0.25 0"/><feBlend in2="effect1_backgroundBlur_8462_42761" result="effect2_dropShadow_8462_42761"/><feBlend in="SourceGraphic" in2="effect2_dropShadow_8462_42761" result="shape"/></filter></defs></svg>